<svg xmlns="http://www.w3.org/2000/svg" viewBox="0 0 45.63 45.63"><defs><style>.cls-1{fill:#22627c;}</style></defs><title>!</title><g id="Слой_2" data-name="Слой 2"><g id="Слой_8" data-name="Слой 8"><path class="cls-1" d="M24.2,45.63H21.43l-1.69-.23a21.78,21.78,0,0,1-7.3-2.27,22.72,22.72,0,0,1-8.18-7.06A22.77,22.77,0,0,1,.59,17.68a22.71,22.71,0,0,1,9-13.43A22.8,22.8,0,0,1,38,5.75a22.83,22.83,0,0,1,7.46,14c.07.55.14,1.1.22,1.65V24.2c-.08.55-.15,1.1-.22,1.65a21.92,21.92,0,0,1-2.26,7.3,22.55,22.55,0,0,1-7.08,8.22,22.34,22.34,0,0,1-10.21,4ZM22.81,3.71A19.1,19.1,0,1,0,41.92,22.83,19.15,19.15,0,0,0,22.81,3.71Z"/><path class="cls-1" d="M19.51,8.69h6.65l-.92,19h-4.8Z"/><path class="cls-1" d="M19.06,33.64a3.62,3.62,0,0,1,3.82-3.77,3.62,3.62,0,0,1,3.69,3.87,3.6,3.6,0,0,1-3.82,3.78A3.64,3.64,0,0,1,19.06,33.64Z"/></g></g></svg>