<svg xmlns="http://www.w3.org/2000/svg" viewBox="0 0 491.71 197.46"><defs><style>.cls-1{fill:#22627c;}</style></defs><title>Ресурс 1</title><g id="Слой_2" data-name="Слой 2"><g id="Слой_8" data-name="Слой 8"><path class="cls-1" d="M202.27,145.6c-.9-9.91-1.83-19.81-2.61-29.73-.19-2.4-1.19-3.12-3.46-2.86-3.51.39-7,.48-10.54.91-1.78.22-2.63-.14-2.38-2.24l4.86-1.14c-.45-5.38-1-10.75-1.29-16.13a36.11,36.11,0,0,1,.29-7.78c2-12.21,2.81-24.36.2-36.64-1.15-5.41-1.64-10.94-5.44-15.33a66.87,66.87,0,0,0-5.43-5.61c-2.56-2.34-5.49-4.31-7.86-6.82-2.75-2.9-3.38-6.86-4.47-10.6a23.11,23.11,0,0,0-3.59-7.42C159.15,2.37,156.86,0,155,0a18.94,18.94,0,0,0-9.8,2.74c-2.85,1.82-5,5-7,7.78-2.17,3-1.24,4.68,1.6,7.1a9.91,9.91,0,0,1,3.82,6.92c.08,1.64.13,2.76,2.31,3.23,1.23.27,2.62,2.17,3,3.58.74,2.76,2.18,3,4.42,2.15,1.3-.48,2.62-.88,4.07-1.36,0,.59.18.89.08,1.07-2.62,4.58-5.33,9.12-7.85,13.76-.43.78,0,2,0,3a7.08,7.08,0,0,1,0,1.78c-1.16,4.64-2.37,9.26-3.64,14.16-4.39-1-8-3.47-11.36-6.53a20.18,20.18,0,0,0-5.11-3.36,4.45,4.45,0,0,0-3.38.26c-.84.43-1.28,1.64-2,2.71l-7.25-3.74c-.16.27-.31.55-.46.83a9.64,9.64,0,0,1,2,1.42,18.69,18.69,0,0,1,1.88,2.82c.4.65.68,1.36,1.09,2,.28.43,1,.82,1,1.15-.5,3.48,2.66,3.72,4.43,5.22a11.29,11.29,0,0,1,3,3.49,4.84,4.84,0,0,0,3.4,3.07c3.06.78,6,2,9,2.9,1.65.51,2.12,1.47,2.06,3.2-.31,9-.37,17.9-.75,26.85-.12,2.77.71,4.23,3.48,4.58,1.15.15,2.26.54,4.28,1-1.27,1.44-2.25,2.48-3.14,3.6-.46.59-1.21,1.45-1.06,2,1.25,4.34-1.4,7.69-2.75,11.34-2.63,7.1-5.62,14.07-8,21.23-2,5.84-5.43,10.53-9.55,14.94-3.49,3.74-6.76,7.68-10.23,11.66l4.25,3.72c0,.25,0,.51-.07.77-3.56-.33-7.12-.71-10.68-1a37.45,37.45,0,0,0-4,.09c.75,1.14,1.28,2.58,2.31,3.35,5.46,4.07,11.34,7.11,18.5,6.32.35,0,.71,0,1.17,0,1,4.53,5.35,3.23,8.24,5.09.91-1.88,2.16-3.42,2.37-5.1.74-6.06,3.53-11,7.12-15.82,4.31-5.78,6.72-12.55,8.58-19.48a3,3,0,0,1,3.22-2.54c4.87-.31,9.74-.76,14.59-1.26,1.6-.17,2.37.36,3.12,1.8a50.46,50.46,0,0,0,4.38,6.83c5,6.7,6.85,14.45,7.5,22.57.47,5.92.4,5.9-5.43,7.92a28.57,28.57,0,0,0-4.49,1.88c-.67.37-1,1.3-1.55,2a6.26,6.26,0,0,0,1.94,1.11c6.86,1,13.66,1.21,20.05-2.23,1-.54,2.11-.91,3.55-1.52.4,2.47,1.56,2.79,3.37,2.21,2-.66,4.16-1.08,6.35-1.63-1.31-15.1-8.12-28.47-11-43.15C203.14,150.51,202.48,148,202.27,145.6Z"/><path class="cls-1" d="M491.39,191.82c-.05-.11-.07-.23-.13-.34a22.77,22.77,0,0,0-1.7-3.34c-1-1.43-2.28-2.7-3.45-4-1.49-1.69-2.21-1.85-4.2-.92-.33.16-.59.47-.92.61-.64.28-1.3.5-1.95.74a13,13,0,0,1,1.31-2.85.83.83,0,0,1,.5-.35c1.06-.23,2.13-.41,3.19-.63,1.44-.29,2.89-.59,4.33-.92.22-.06.53-.32.55-.52a1.09,1.09,0,0,0-.31-.8,2.19,2.19,0,0,0-.93-.37c-1.59-.37-3.22-.61-4.77-1.1-2-.63-3.88-1.43-5.79-2.22-1.71-.7-2.6-.32-3.2,1.45-.21.6-.48,1.17-.72,1.75l-.25-.11a5.65,5.65,0,0,0,.11-.91,24.93,24.93,0,0,0-.28-5c-1-4.3-4.91-6.54-9.26-5.66a7.78,7.78,0,0,1-3.27.34,67,67,0,0,1-8.87-3,6.89,6.89,0,0,1-3.33-3,5.34,5.34,0,0,1,.72-5.78,13.42,13.42,0,0,0,2.73-7.48c.56-5.62-4.12-10.44-10-10.67a16,16,0,0,0-11.56,4c-2.65,2.29-3.77,5-2.81,8.45.44,1.53.23,2.69-1.24,3.57-.9.52-.9,1-.21,1.81.34.39.57.76.24,1.23-.59.84-.21,1.44.44,2,.27.23.76.62.7.78-.38,1.07.37,1.44,1,1.9a1.32,1.32,0,0,1,.39.51c.63,1.43.8,1.52,2.39,1.36.18,0,.36,0,.55,0,1,0,1.94-.08,2.92-.1a1.37,1.37,0,0,1,.87.14.79.79,0,0,1,.08,1.14,6.2,6.2,0,0,0-.95,4.19,16.54,16.54,0,0,0,4.24,9.8,1.12,1.12,0,0,1,.3,1.22c-.46,1.8-.85,3.61-1.3,5.41a1.57,1.57,0,0,1-.56.8c-1.5,1-3,2-4.54,3-.31.21-.78.72-.71.87a2.28,2.28,0,0,0,1,1.12,14.1,14.1,0,0,0,2.28.4,4.52,4.52,0,0,1,.85.36,3.06,3.06,0,0,1-.56.85c-.9.66-1.86,1.23-2.76,1.89-.62.45-1.57.88-.48,1.82.06.06,0,.27,0,.35a9.15,9.15,0,0,0,.78.87c.13.13.44.13.51.27.37.77.92.71,1.55.4s1.1-.67,1.76-.08c.14.13.64-.06.93-.19.67-.31,1.3-.72,2-1,1.67-.73,3.11-1.66,3.62-3.57a1.84,1.84,0,0,1,.37-.63c1.49-1.93,3.05-3.81,4.48-5.79.88-1.22,1.56-2.58,2.34-3.89l.48.18a19.78,19.78,0,0,0,7.19,2.07,1.38,1.38,0,0,1,.82.61c1.4,2.12,2.76,4.26,4.17,6.38a14.5,14.5,0,0,0,1.4,1.73,4.18,4.18,0,0,0,3.31,1.63q3.35-.19,6.67-.47a26.69,26.69,0,0,0,8.59-2.59,1.62,1.62,0,0,1,1.12-.16,18,18,0,0,1,3.43,1.63,3.57,3.57,0,0,0,2.9.55C491.78,193.4,492,193,491.39,191.82Z"/><path class="cls-1" d="M317.46,181.26c-.57-1.47-1.57-2.88-1.72-4.39-.17-1.8-1.1-2.43-2.51-3s-2.75-1.46-2.91-3.39c-.06-.7-.82-1.36-1.29-2a12.13,12.13,0,0,1-1.22-1.58c-2.26-4.57-4.38-9.22-6.77-13.72a10.35,10.35,0,0,0-3.36-3.42,3.51,3.51,0,0,1-1.78-2.23c-.62-2.72-1.22-5.45-2-8.11s-.88-2.51,1.58-3.55a9.93,9.93,0,0,0,1-.52,1.73,1.73,0,0,0,1-2.13c-.38-1.64-.57-3.32-.79-5a1.78,1.78,0,0,1,.16-1.21c1.17-1.36,2.5-2.58,3.59-4a3.41,3.41,0,0,0,.62-2.32c-.19-1.51-.86-3-1-4.48-.13-1.35-.84-2.93.31-4.08a2.1,2.1,0,0,0,.49-2.46,20.58,20.58,0,0,1-1.07-3c-.34-1.87-.45-3.78-.72-5.66a5.66,5.66,0,0,0-2-3.42,8,8,0,0,1-2.24-2.94c-1.37-3.89-3.53-7.43-4.38-11.57-.72-3.5-2.31-6.82-3.37-10.26a17.56,17.56,0,0,0-6.45-9.51,5.13,5.13,0,0,1-2.18-3.24c-.14-.63-.66-1.6-1.1-1.66-2.08-.26-1.43-1.49-1.1-2.61a12,12,0,0,1,.8-2c3-5.83.85-12.06-3.1-16.21a2,2,0,0,0-1.21-.68,13.46,13.46,0,0,0-4,.21c-2.55.75-5,1.81-7.51,2.73-.75.27-1.69.92-2.25.69-1.33-.54-1.87.26-2,1.08a7.28,7.28,0,0,0,.15,4,7.38,7.38,0,0,1,.8,3.4c0,.52-.13,1.21.15,1.55,1.05,1.29.52,2.49.13,3.81a2.64,2.64,0,0,0,.34,1.77A38.6,38.6,0,0,1,261,60.63c.4,1.14,1,1.63,2,1.63.81,0,1.62-.28,2.44-.3a8.7,8.7,0,0,1,1.79.3l.12.62-1.15.86c-2,1.62-2.13,2.18-1,4.57.31.68.86,1.32.17,2.24a13,13,0,0,0-2.4,4.14c-.74,2.81-1.71,5.65-1.25,8.64.24,1.52.22,2.92-1,4.09a2.23,2.23,0,0,0-.47,1.34c-.19,2-.4,3.92-.46,5.88-.06,1.73-.36,2.23-2,2.29A2.86,2.86,0,0,0,255,98.51c-1.47,2.86-4.45,4-6.76,5.92a1.23,1.23,0,0,1-.67.26c-3.31.31-5.9,2.26-8.53,4-.89.58-1.15,2.16-1.64,3.31-.06.14.13.48.3.59a25,25,0,0,0,2.59,1.63,9.4,9.4,0,0,0,1.87.54c.19.79.71,1,1.64.25a5.47,5.47,0,0,1,2.08-1.11c1.6-.32,3.25-.39,4.87-.59.54-.07,1.06-.3,1.6-.34a10.33,10.33,0,0,0,2.16,0,13.64,13.64,0,0,0,5.8-3.41c1.15-1.19,2.39-2.3,3.67-3.52v1.51c0,2.56,0,5.12,0,7.67a18,18,0,0,1-.34,4.1c-.49,2-1.3,4-1.9,6-.47,1.55-.88,3.13-1.21,4.72-.44,2.2-.78,4.41-1.17,6.62a8.48,8.48,0,0,0-.3,1.39,26.67,26.67,0,0,1-.75,4.36c-.87,1.34-2.36,2.58-1.55,4.5a1.77,1.77,0,0,1-.35,2.2,10.17,10.17,0,0,0-2.56,6.14,62.38,62.38,0,0,1-1.57,9.39c-1.18,4-2.88,7.8-1.82,12-2.52.84-2.88,1.17-3.76,3.39-.23.59-.44,1.18-.68,1.75-1.61,3.81-4.44,5.85-8.61,5.84a4.83,4.83,0,0,0-4.07,1.77v2c1.08,1,2,2.32,3.31,2,.57.54.87,1.06,1.27,1.16,2.17.55,4.36,1.07,6.57,1.45,1.79.31,3.62.35,5.41.63,1.16.17,2.28.54,3.42.82h6.37a6.78,6.78,0,0,0,1.64-.49c.45-.26,1-.72,1.08-1.15a19,19,0,0,0,.1-4.58c-.45-3.18-.87-6.33-.26-9.41a24.92,24.92,0,0,0,3-1.48c3.78-2.54,5.77-6.42,7.36-10.48,1.07-2.72,1.7-5.62,2.57-8.42,1-3.2,2.05-6.38,3.2-10a193.44,193.44,0,0,0,21.38,31.27l-2.65,3.32.22.33,1.56-.35.21.41c-.91.56-1.78,1.21-2.73,1.67a21.9,21.9,0,0,0-3,1.26c-.71.49-1.54,1.5-1.48,2.21s1.09,1.41,1.82,1.95a2.85,2.85,0,0,0,1.65.45,58.06,58.06,0,0,0,8-.38,59,59,0,0,0,7.95-2.19c2.38-.73,4.76-1.5,7.08-2.39a1.64,1.64,0,0,0,1.11-2.31C318.81,184.92,318.17,183.08,317.46,181.26Z"/><path class="cls-1" d="M396.4,182.32c.13-2.27-1-3.52-3.32-3.74-1.56-.14-3.12-.4-4.66-.69a3.7,3.7,0,0,1-1.28-.65c-2.28-1.48-3.61-4-5.85-5.55l-.66.45c.12-.16.25-.32.41-.51a3.17,3.17,0,0,0-.31-.32c-.76-.57-1.52-1.12-2.27-1.7a.53.53,0,0,1-.17-.41,6.33,6.33,0,0,0-.55-3.49,2.35,2.35,0,0,1,0-1.59,3.93,3.93,0,0,1,1-1.57,13.5,13.5,0,0,0,3.1-7.79c.1-1.34,0-2.69,0-4.1l-.42.07a10,10,0,0,0,.77-.67.67.67,0,0,0,0-1c-.72-.85-1.41-1.74-2.11-2.61a.87.87,0,0,1-.14-1,2,2,0,0,0-.53-2.48.64.64,0,0,1-.11-.95c.27-.4.57-.77.79-1.18a2.8,2.8,0,0,0-.24-3.29,8.51,8.51,0,0,1-1.05-2.19,40.36,40.36,0,0,1-1.38-7c-.54-3.16-1.17-6.3-1.82-9.44a4.4,4.4,0,0,0-1.23-2.57,6.7,6.7,0,0,1-.85-1.21s-.21,0-.32,0a4.84,4.84,0,0,1-.33-.46c-.64-1.18-.52-1.77.77-1.87a3.92,3.92,0,0,0,2.15-1.09c.71-.51,1.41-1,2.08-1.59s1.23-1.06,1.84-1.59c-.08.18-.17.35-.25.54.72-.23,1.4-1.09,2.35-3l.18.42a6.1,6.1,0,0,0,.84-4.27,6.58,6.58,0,0,0-.63-2,10.6,10.6,0,0,1-.91-2.66,8.4,8.4,0,0,0-2.7-4.72,6.57,6.57,0,0,0-2.24-1.3,29.08,29.08,0,0,0-9.28-1.54,14.3,14.3,0,0,0-3.28.63,6.48,6.48,0,0,0-1.42.83c-.51-.32-.63-.28-.91.35a2.63,2.63,0,0,1-.35.58,11.34,11.34,0,0,0-3,6.69c0,.41.1.84.06,1.24s-.19.79.18,1.18c.11.1-.06.54-.18.79a1.7,1.7,0,0,1-.49.47,1.2,1.2,0,0,0-.4,1.61.64.64,0,0,1,0,.47,3.4,3.4,0,0,0,0,2.86,9.28,9.28,0,0,1,.47,2.15c.1,1,.38,1.47,1.41,1.68a5.86,5.86,0,0,1,2.91,1.57,2.87,2.87,0,0,1,.75,3.28l-.21.6a3.41,3.41,0,0,0,1.82-.44,2.06,2.06,0,0,1-2.05.45c-.44-.16-.65,0-.74.4a.59.59,0,0,0-.05.22,4.19,4.19,0,0,1-.94,2.67,15,15,0,0,0-1.83,5.77c-.31,2.27-.49,4.55-.72,6.73,0-.17-.09-.48-.15-.79-.82-3.9-2.65-7.23-6.15-9.27-9.92-5.77-18.89,1.14-20.39,9A14,14,0,0,0,337.88,146a12,12,0,0,0,5.13,1.56,16.51,16.51,0,0,0,7-.69,12.37,12.37,0,0,0,5.89-4.92c.19-.26.35-.53.58-.89l-2.14-.33v-.06l3.1.4a23.6,23.6,0,0,0,.5,7.27,11.19,11.19,0,0,1-.05,2.08,5.24,5.24,0,0,0,0,1.63,7.58,7.58,0,0,1,.14,2.64,31.39,31.39,0,0,0,.14,3.35c0,.45.38.6.79.5a101.91,101.91,0,0,0,14-3.87l4.38-1.76a5,5,0,0,1-.58.35,66.64,66.64,0,0,1-16.33,5c-.37.07-.56.18-.63.57a7.42,7.42,0,0,1-.44,1.1c-.56,1.46-1.14,2.91-1.65,4.39a10.55,10.55,0,0,0-.13,1.4c-.07.46-.23.9-.34,1.35a25.18,25.18,0,0,0-.68,2.79,17.12,17.12,0,0,0,0,2.68A2.23,2.23,0,0,0,359,174.9c.67,0,1.36-.09,2-.1,1.26,0,2.53,0,3.8,0h.08c-1.42.06-2.84.13-4.26.18-.47,0-.63.2-.58.68.36,3.85.7,7.71,1.06,11.56.09,1,0,1-.92,1.36a5.23,5.23,0,0,0-1,.58,7.14,7.14,0,0,0-.77.55c-.14.11-.36.29-.33.38.13.48-.21.53-.49.59s-.71.1-1.07.16-.71.08-.39.59c.05.08-.06.35-.17.41a4.27,4.27,0,0,1-.66.14c-.21.05-.49.08-.62.23a3,3,0,0,1-2.86.84,7.35,7.35,0,0,0-1.24-.05,1.32,1.32,0,0,0-1.23,1,1.29,1.29,0,0,0,.42,1.54,7.45,7.45,0,0,0,1.84,1,21.32,21.32,0,0,0,5.89.94c.27,0,.56-.09.84-.09,1.14,0,2.27,0,3.4,0l4.95,0a1.73,1.73,0,0,0,1.7-1.35,6.32,6.32,0,0,0,0-3.37,19.3,19.3,0,0,0-.54-2,3.57,3.57,0,0,1-.38-2.08.93.93,0,0,0-.1-.61,5.06,5.06,0,0,1,.07-4.09,11.89,11.89,0,0,0,.64-3.74,12.09,12.09,0,0,0-1-4.81.65.65,0,0,0-.77-.48,6,6,0,0,1-.85,0v-.09c.41,0,.82,0,1.23-.07.71-.08.8-.28.69-1a14.32,14.32,0,0,1-.1-1.47l.23-.06c.1.16.22.31.3.47.68,1.34,1.26,2.73,2,4a9.93,9.93,0,0,1,1.44,3.24c.19.93.77,1,1.48.4l3.18-2.83a1.67,1.67,0,0,0,.34.47c2,1.3,4.08,2.58,6.12,3.86a2,2,0,0,1,.2.11c.65.62,1.32,1.22,1.93,1.87.19.21.2.57.32.84s.31.65.51,1.07c-.16.52-.12.56.52.74.16.05.27.29.39.45a7.4,7.4,0,0,1,.53.72,1.91,1.91,0,0,1,.36.65c.06.42.11.76.57.95.16.06.19.42.29.63a6.62,6.62,0,0,0,.3.66c.13.23.41.43.42.66a12.2,12.2,0,0,1-.09,1.81c-.06.54-.21,1.08-.26,1.62a2.46,2.46,0,0,0,3.46,2.68,4.68,4.68,0,0,0,2.33-1.75,10.93,10.93,0,0,0,1.92-8.8,7.1,7.1,0,0,1,.16-3.27A5.9,5.9,0,0,0,396.4,182.32Zm-29.56-61.54a4.16,4.16,0,0,0-3,.28A2.9,2.9,0,0,1,366.84,120.78Zm-4.95,9.38a9.16,9.16,0,0,0,0-3.76,4.89,4.89,0,0,1,.27-3.56,3.81,3.81,0,0,1,1.16-1.46,3.81,3.81,0,0,0-1.16,1.46,7.4,7.4,0,0,0-.16,3.71,6.73,6.73,0,0,1,.22,1.73c0,.75-.18,1.5-.27,2.26s-.2,1.79-.31,2.74l.6,0,1.57,0-1.14.09-1.16.06C361.64,132.23,361.77,131.19,361.89,130.16Zm-8.24,5.64v-.07l3.95-.26v.09Zm10.19,5.44h-6.06v-.05h6.06Zm7.74-5.06a2.17,2.17,0,0,0-1-2c-.81-.27-1.59-.62-2.41-.82a8.33,8.33,0,0,0-1-.16h.61a4.51,4.51,0,0,1,2.79,1h0l.93.65.45-1.34Zm1-5.8c-.13,1-.39,2.08-.6,3.11,0-.22.07-.45.11-.67.57-3.16,1-6.32-.56-9.36a13.91,13.91,0,0,1,.86,1.89A12.19,12.19,0,0,1,372.56,130.38Zm.17-14.23c-2.5-.69-5-1.1-7.53-.1a7.6,7.6,0,0,1,1-.42,10.24,10.24,0,0,1,4.44-.07c.95.16,1.88.4,2.82.61A3.37,3.37,0,0,1,372.73,116.15Z"/><path class="cls-1" d="M82.38,34.07C75.7,31.94,69,30,62.26,27.93a11,11,0,0,1-2.14-.43A29.1,29.1,0,0,0,44,23.79a9.32,9.32,0,0,0-3,.29c-1.87.75-3.62,1.63-4.73-.95l-1.87,1.4c-2.39-3.38-3-6.91-1.52-10.73-1.84-.14-3.46.18-4.47-.47s-1.86-2.25-2.51-3.55c-1.05-2.1-2.82-2.47-4.85-2.41-3.92.11-7.38,1.63-10.75,3.5a4.76,4.76,0,0,0-2.52,5.9c.42,1.69.93,3.35,1.32,5,.62,2.66,1.33,5.3-.75,7.77a8.47,8.47,0,0,0-1.25,2.93,1.36,1.36,0,0,0,.26,1.21,1.4,1.4,0,0,0,1.26,0c1-.54,1.91-1.22,2.87-1.83.62-.4,1.27-.77,1.9-1.15.29.71.54,1.43.86,2.12a6.6,6.6,0,0,0,1.28,2.44c1.07.89,2.54,1.3,3.63,2.18s2,2.25,3.1,3.19a3.32,3.32,0,0,0,2.2.44,11.06,11.06,0,0,0,2.37-.81c2.55,2.76,2.55,2.76.48,5.66l-.12.16c-2.59,3.45-3.67,7.16-1.95,11.36a3.29,3.29,0,0,1,.08,1.37,14.25,14.25,0,0,1-3,7.47c-1.3,1.81-2.08,3.72-1.07,5.53A19.23,19.23,0,0,0,19.46,74a32.75,32.75,0,0,1-1.65,3.3c-1.34,1.78-3.06,3.31-4.3,5.15a4.89,4.89,0,0,1-3.39,2.34A2.76,2.76,0,0,0,7.9,87.76a2.89,2.89,0,0,1-.57,1.78,34.66,34.66,0,0,1-4.59,4.4A5.7,5.7,0,0,0,0,99.26c0,3.33,1.49,5.7,3.22,8.18a4.75,4.75,0,0,1,1,2.39c.2,9.64.31,19.28.45,28.92q.33,24.08.72,48.14c0,.4.64.79,1,1.19.44-.47,1.21-.9,1.26-1.41a26.39,26.39,0,0,0-.3-3.15c-.12-5.69-.16-11.38-.29-17.07-.4-19.14-.8-38.29-1.3-57.43-.06-2.35.26-4.25,2.11-5.88.67-.59.79-1.78,1.25-2.66,1.07-2,1.83-4.42,3.41-5.92,1.43-1.35,3.82-1.67,5.74-2.53a7.85,7.85,0,0,0,2.44-1.52c2.08-2.15,3.93-4.48,6.74-5.86s5.13-3.37,5.54-6.84A7.25,7.25,0,0,1,33.9,76c.64.87,1.13,1.47,1.56,2.12,1.65,2.51,3.22,5.08,4.93,7.56,1.52,2.19,3.1,4.21,5.76,5.36,1.75.76,3.07,2.49,4.57,3.81a.72.72,0,0,1,.2.53c-.05,2.47.36,5.07-.29,7.37-1.13,4-1.2,8.05-1.4,12.12-.14,3-.15,6.12-.3,9.17s-.76,5.88-.49,8.75.27,5.59.38,8.38c.15,3.6,1.25,7.16,1.82,10.75.63,4,1.55,7.94.07,12.05-.55,1.53.12,3.49.2,5.25a4,4,0,0,1-.07,1.3,25.81,25.81,0,0,1-1,3.45,5.53,5.53,0,0,1-1.43,2.18c-3.56,2.85-7,6.09-12,6-.25,0-.64.09-.73.26a14.17,14.17,0,0,0-1.73,3.79c-.09.48,1.16,1.61,1.95,1.8a22.26,22.26,0,0,0,13-.84c2.53-.93,4.84-1.42,7.93-.14-2.51,1.3-4.58,2.46-6.72,3.47-1.92.91-2.15,2.76-2.23,4.4,0,.6,1.44,1.65,2.37,1.87a24.17,24.17,0,0,0,17.29-2,21.42,21.42,0,0,1,3.12-1.31c1.74-.58,3.51-1.07,5.28-1.6a1.81,1.81,0,0,0,1.31-2.34,17,17,0,0,1-.67-3.73,76.53,76.53,0,0,1,.88-11.14c1.66-8.54,1.45-17.18,1.95-25.79.36-6.14.77-12.3,1.68-18.37,1.72-11.6,2.6-23.25,3.33-34.95.46-7.36-1.54-14.21-2.4-21.28-.4-3.31-2.41-6.42-3.58-9.67a2.69,2.69,0,0,1,.27-2c.81-1.33,1.95-2.47,2.71-3.82,1.86-3.34,3.54-6.77,3.21-10.78a2.58,2.58,0,0,1,.16-.57c.46-2.47,1-4.92,1.34-7.41C86.35,38,84.33,34.7,82.38,34.07ZM70.27,53c-1.06-2.39-2.07-4.7-3.09-7,1.3,1.18,4,.41,4.12,2.83C71.37,50.22,72.05,51.77,70.27,53Z"/></g></g></svg>