<svg xmlns="http://www.w3.org/2000/svg" viewBox="0 0 234.89 589.52"><defs><style>.cls-1{fill:#f4f4f4;}.cls-2{fill:#f36f85;}.cls-3{fill:#fff;}.cls-4{fill:#6697d3;}.cls-5{fill:#22627c;}.cls-6{fill:#ffdc00;}</style></defs><title>Ресурс 9</title><g id="Слой_2" data-name="Слой 2"><g id="Слой_8" data-name="Слой 8"><path class="cls-1" d="M14,473.77a102.78,102.78,0,1,1,.23,3.5C14.16,476.1,14.09,474.93,14,473.77Zm198.07-9.23c0-1.11-.12-2.21-.21-3.32A95.91,95.91,0,0,0,20.48,473.47c.05,1.09.12,2.18.21,3.28a95.92,95.92,0,0,0,168.69,54.34A95.25,95.25,0,0,0,212.1,464.54Z"/><circle class="cls-2" cx="116.29" cy="468.98" r="40.97"/><circle class="cls-3" cx="134.39" cy="476.61" r="13.56"/><circle class="cls-4" cx="214.03" cy="449.21" r="20.86"/><circle class="cls-3" cx="223.25" cy="453.1" r="6.9"/><circle class="cls-4" cx="212.74" cy="496.12" r="20.86"/><circle class="cls-3" cx="221.95" cy="500.01" r="6.9"/><circle class="cls-4" cx="92.75" cy="568.66" r="20.86"/><circle class="cls-3" cx="101.97" cy="572.54" r="6.9"/><circle class="cls-4" cx="138.57" cy="564.93" r="20.86"/><circle class="cls-3" cx="147.79" cy="568.82" r="6.9"/><circle class="cls-4" cx="20.86" cy="495.1" r="20.86"/><circle class="cls-3" cx="30.08" cy="498.98" r="6.9"/><circle class="cls-4" cx="21.21" cy="446.6" r="20.86"/><circle class="cls-3" cx="30.42" cy="450.48" r="6.9"/><circle class="cls-5" cx="93.29" cy="371.38" r="20.86"/><path class="cls-1" d="M69.23,372.51a24.31,24.31,0,1,1,.06.82C69.26,373.06,69.25,372.78,69.23,372.51Zm41.68-1.94c0-.21,0-.41,0-.62a17.59,17.59,0,1,0,0,.62Z"/><circle class="cls-4" cx="140.63" cy="371.04" r="20.86"/><circle class="cls-3" cx="149.84" cy="374.93" r="6.9"/><path class="cls-1" d="M114.61,220.6A102.37,102.37,0,1,1,217,118.24,102.49,102.49,0,0,1,114.61,220.6Zm0-198.28a95.92,95.92,0,1,0,95.91,95.92A96,96,0,0,0,114.61,22.32Z"/><circle class="cls-4" cx="114.61" cy="118.24" r="40.97"/><circle class="cls-3" cx="123.68" cy="100.81" r="13.56"/><circle class="cls-4" cx="116.38" cy="20.86" r="20.86"/><circle class="cls-3" cx="121" cy="11.99" r="6.9"/><circle class="cls-4" cx="194.66" cy="57.83" r="20.86"/><circle class="cls-3" cx="199.28" cy="48.95" r="6.9"/><circle class="cls-4" cx="212.05" cy="135.22" r="20.86"/><circle class="cls-3" cx="216.67" cy="126.35" r="6.9"/><circle class="cls-4" cx="171.51" cy="196.52" r="20.86"/><circle class="cls-3" cx="176.13" cy="187.64" r="6.9"/><circle class="cls-4" cx="86.17" cy="210.38" r="20.86"/><circle class="cls-3" cx="90.78" cy="201.5" r="6.9"/><circle class="cls-4" cx="22.84" cy="149.77" r="20.86"/><circle class="cls-3" cx="27.45" cy="140.89" r="6.9"/><circle class="cls-4" cx="31.53" cy="62.91" r="20.86"/><circle class="cls-3" cx="36.15" cy="54.04" r="6.9"/><path class="cls-6" d="M61.81,319.6c-15.42-38.19,6.66-73.33,6.89-73.68l3.39,2.17c-.22.33-21.17,33.78-6.55,70Z"/><path class="cls-6" d="M70.39,331.78c-5.36-5-13.08-10.6-19.56-13.23L63,317.07l8.37-8.89C69.6,315,69.56,324.51,70.39,331.78Z"/></g></g></svg>