<svg xmlns="http://www.w3.org/2000/svg" viewBox="0 0 22.53 22.53"><defs><style>.cls-1{fill:#173f58;}</style></defs><title>апвапвап</title><g id="Слой_2" data-name="Слой 2"><g id="Слой_8" data-name="Слой 8"><path class="cls-1" d="M22.53,11.27A11.27,11.27,0,1,1,11.27,0,11.27,11.27,0,0,1,22.53,11.27Zm-2.4,0a8.87,8.87,0,1,0-8.86,8.86A8.87,8.87,0,0,0,20.13,11.27Z"/><path class="cls-1" d="M15.91,9a1,1,0,0,0-.68.29l-4,4-4-4a1,1,0,1,0-1.36,1.35l4.65,4.65a1,1,0,0,0,1.36,0l4.64-4.65a.94.94,0,0,0,0-1.35A1,1,0,0,0,15.91,9Z"/></g></g></svg>