<svg xmlns="http://www.w3.org/2000/svg" viewBox="0 0 22.53 22.53"><defs><style>.cls-1{fill:#328aa5;}</style></defs><title>апваррппа</title><g id="Слой_2" data-name="Слой 2"><g id="Слой_8" data-name="Слой 8"><path class="cls-1" d="M11.27,22.53A11.27,11.27,0,1,1,22.53,11.27,11.27,11.27,0,0,1,11.27,22.53Zm0-20.13a8.87,8.87,0,1,0,8.86,8.87A8.88,8.88,0,0,0,11.27,2.4Z"/><path class="cls-1" d="M15.91,13.58a1,1,0,0,1-.68-.28l-4-4-4,4a1,1,0,1,1-1.36-1.36l4.65-4.65a1,1,0,0,1,1.36,0l4.64,4.65a1,1,0,0,1-.68,1.64Z"/></g></g></svg>