<svg xmlns="http://www.w3.org/2000/svg" viewBox="0 0 55.96 55.96"><defs><style>.cls-1{fill:none;stroke:#fff;stroke-miterlimit:10;stroke-width:2px;}.cls-2{fill:#fff;}</style></defs><title>Ресуfdsgdsvрс 4</title><g id="Слой_2" data-name="Слой 2"><g id="Слой_8" data-name="Слой 8"><circle class="cls-1" cx="27.98" cy="27.98" r="26.98"/><path class="cls-2" d="M24.12,29a7.93,7.93,0,0,0-2.75-2.91c-.93-.63-1-.73-.4-1.61q2-3,4.19-6c.63-.85,1.62-.63,2.48-.47a10.79,10.79,0,0,1,4.73,2.33l.59.47c.88-1.56,1.33-3.09,0-4.74-.91-.13-1-.24-.88-1.07-1.3-.31-1.42-.44-1.18-1.24-.3-.13-.62-.25-.91-.41-.68-.38-.68-.9,0-1.3a3,3,0,0,1,.73-.26c.21-.07.44-.1.75-.17a3.23,3.23,0,0,1-.8-.63c-.2-.32-.45-.79-.35-1.08s.58-.58.94-.77a4.19,4.19,0,0,1,1-.27l0-.24,1,.63.28-.84L35,10.24c.14,0,.4,0,.49.16.23.32.37.69.57,1,.32.53.1,1.32.81,1.68.09.05.09.34.08.52-.08,1.31.06,2.66-.68,3.86a1.25,1.25,0,0,0-.1.27l.2.09c.49-1,1-2,1.48-3,.16-.32.24-.69.4-1,.26-.5.56-1,1.26-.69.09-1.64.49-2.13,1.22-1.89A16,16,0,0,1,42,9.72c.08-.08.52.23.87.39.06,0,.22-.24.4-.25.46,0,1.06-.13,1.35.1a1.85,1.85,0,0,1,.45,1.3c0,.37-.23.69,0,1.13.11.19-.22.74-.48,1a3.13,3.13,0,0,1-1,.44c.54.52.43,1.17-.35,1.46a12.38,12.38,0,0,1-1.75.4c.35.65-.21.74-.57.9-1,.4-1.94.75-2.9,1.16a2.49,2.49,0,0,0-.89.74.88.88,0,0,0,.29-.06c1.15-.73,2.47-.47,3.72-.62.27,0,.79-.16.77.47,0,0,.29.06.43.12.64.27,1.53.38,1.87.86.45.65,1.13,1,1.57,1.58.32.42.11.59-.39.63l.55.87c-.14.28-.34.5-.35.73,0,.62-.16,1.17-.8,1.38s-1.12-.23-1.47-.77c-.08-.13-.18-.25-.32-.45a5.52,5.52,0,0,1-.27,1.22,1.48,1.48,0,0,1-.77.75c-.18.05-.52-.4-.73-.66A2.64,2.64,0,0,1,41,23.9c-.85.2-1,0-1.27-1.3-.86.24-1,.13-1.08-.87-1.65-1.23-3.22-.81-4.8.09a11.46,11.46,0,0,1,2.89,5.79,2,2,0,0,1-1,2.34c-.64.35-1.22.79-1.86,1.22C33,30.3,32.36,29.08,31,28.9c.33.79.69,1.55,1,2.34a1.3,1.3,0,0,1-.47,1.67c-1.4,1-2.81,1.89-4.24,2.79-.67.42-1.21.19-1.67-.44-.9-1.23-1-1.31-1.94-1.62.35.76.69,1.51,1,2.25a.92.92,0,0,1-.47,1.4c-3.19,1.66-6.36,3.37-9.56,5a6.07,6.07,0,0,1-1.87.53c-.81.12-1.05-.14-.83-.93A15.88,15.88,0,0,1,13.06,39c1.83-3.52,3.73-7,5.6-10.5a1.26,1.26,0,0,1,1.66-.76C21.62,28.15,22.91,28.61,24.12,29Z"/></g></g></svg>