<svg xmlns="http://www.w3.org/2000/svg" viewBox="0 0 119.98 119.98"><defs><style>.cls-1{fill:#43a2dd;}</style></defs><title>bomb</title><g id="Слой_2" data-name="Слой 2"><g id="Слой_8" data-name="Слой 8"><path class="cls-1" d="M60,120a60,60,0,1,1,60-60A60.06,60.06,0,0,1,60,120ZM60,3a57,57,0,1,0,57,57A57,57,0,0,0,60,3Z"/><path class="cls-1" d="M41.15,96.68c-1.25-.49-2.53-.91-3.74-1.49A24.38,24.38,0,0,1,23.64,78.41a25,25,0,0,1,19.8-30.6c1.74-.33,1.74-.33,2.1-2.06.16-.79.31-1.59.5-2.38a1.51,1.51,0,0,1,2-1.3c1.35.26,2.69.56,4,.83a4.13,4.13,0,0,0,.44,0c.22-1,.41-2,.64-3a9.4,9.4,0,0,1,18.5,3.29,5,5,0,0,0,1.39,5A4.69,4.69,0,0,0,80.69,46c.68-2.5,2.15-3.88,4.35-4a4.25,4.25,0,0,1,1.51.16,1.48,1.48,0,0,1,1,1.74A1.54,1.54,0,0,1,86,45.09h-.36a1.5,1.5,0,0,0-1.83,1.28,8.07,8.07,0,0,1-3,4.58,7.84,7.84,0,0,1-12.41-7.63,6.32,6.32,0,0,0-3.63-7.26,6.25,6.25,0,0,0-8.5,4.13c-.28,1.11-.48,2.24-.73,3.45l4,.83c1.66.35,2,.87,1.67,2.51-.21,1-.38,2-.64,3-.16.59,0,.84.52,1.16,7.76,5.06,12,12.25,11.84,21.51C72.85,83.16,67.7,90.73,58.28,95.3a23.49,23.49,0,0,1-13.17,2.08,2.9,2.9,0,0,0-.51,0Zm7.64-51.25c-.25,1.21-.48,2.35-.72,3.5s-.66,1.58-1.94,1.68a22,22,0,1,0,12.38,2.62c-1.33-.73-1.5-1.09-1.19-2.6.23-1.09.46-2.18.69-3.29Z"/><path class="cls-1" d="M94.94,47c-1-.2-1.92-.39-2.87-.6a1.59,1.59,0,1,1,.63-3.1c1.91.38,3.83.77,5.74,1.19a1.57,1.57,0,0,1,1.38,1.9,1.59,1.59,0,0,1-2.08,1.19C96.8,47.41,95.87,47.2,94.94,47Z"/><path class="cls-1" d="M91.17,41.67c-.84-.2-1.26-.57-1.41-1.2a1.48,1.48,0,0,1,.64-1.66c1.28-.86,2.57-1.7,3.85-2.54.47-.31.93-.64,1.42-.92a1.55,1.55,0,0,1,1.74,2.57c-1.76,1.2-3.54,2.36-5.33,3.5A2.85,2.85,0,0,1,91.17,41.67Z"/><path class="cls-1" d="M90,47.31a3.49,3.49,0,0,1,.81.71q1.7,2.49,3.31,5a1.59,1.59,0,0,1-.34,2.27,1.55,1.55,0,0,1-2.27-.55c-1.12-1.68-2.23-3.38-3.33-5.08a1.48,1.48,0,0,1,0-1.78A1.59,1.59,0,0,1,90,47.31Z"/><path class="cls-1" d="M82.06,39.77a2.78,2.78,0,0,1-.76-.63c-1.17-1.71-2.31-3.45-3.43-5.2a1.56,1.56,0,1,1,2.59-1.72c1.17,1.72,2.3,3.46,3.42,5.21a1.46,1.46,0,0,1,0,1.78A1.6,1.6,0,0,1,82.06,39.77Z"/><path class="cls-1" d="M89.46,34.69c-.19,1-.38,1.91-.59,2.87A1.61,1.61,0,0,1,87,38.93a1.57,1.57,0,0,1-1.15-2q.59-3,1.22-5.88a1.54,1.54,0,0,1,1.85-1.34,1.58,1.58,0,0,1,1.19,2C89.88,32.73,89.67,33.71,89.46,34.69Z"/><path class="cls-1" d="M48.79,45.43,58,47.34c-.23,1.11-.46,2.2-.69,3.29-.31,1.51-.14,1.87,1.19,2.6a22,22,0,1,1-12.38-2.62c1.28-.1,1.68-.45,1.94-1.68S48.54,46.64,48.79,45.43ZM41.32,55a4.59,4.59,0,0,0-1.08.3c-6.7,3.22-10.36,8.58-11,16a17.33,17.33,0,0,0,1.43,8.45,1.56,1.56,0,0,0,2,1,1.58,1.58,0,0,0,.89-2.12c0-.14-.1-.27-.15-.41a15.57,15.57,0,0,1,4.86-18,29.08,29.08,0,0,1,3.56-2.16,1.6,1.6,0,0,0,.93-1.68C42.63,55.69,42.2,55.26,41.32,55Z"/></g></g></svg>