<svg xmlns="http://www.w3.org/2000/svg" viewBox="0 0 51.03 45.09"><defs><style>.cls-1{fill:#22627c;}</style></defs><title>Ресурс 18</title><g id="Слой_2" data-name="Слой 2"><g id="Слой_8" data-name="Слой 8"><path class="cls-1" d="M0,1.56A7.73,7.73,0,0,1,.78.36,1.18,1.18,0,0,1,2.25.17C5.5,1.77,8.76,3.35,12,5A19.26,19.26,0,0,1,14.5,6.72a2.2,2.2,0,0,1,.85,1.6c.37,3,.78,6.06,1.16,9.09s.75,6,1.12,9.05c.14,1.12.29,2.24.41,3.36,0,.33.16.44.51.44q11.49,0,23,0c.34,0,.46-.11.54-.43.32-1.15.67-2.29,1-3.43a3,3,0,0,0,.07-.33H21.71A1.89,1.89,0,0,1,20,24.68a2,2,0,0,1,.68-2.22,2,2,0,0,1,1.14-.34c7.36,0,14.72,0,22.09,0a.55.55,0,0,0,.64-.48c.35-1.24.73-2.47,1.1-3.71a2.78,2.78,0,0,0,0-.3H45c-7.44,0-14.89,0-22.33,0a2.21,2.21,0,0,1-2-1.68,2.09,2.09,0,0,1,1.22-2.44,1.67,1.67,0,0,1,.55-.09h25.8a5.09,5.09,0,0,1,1.4.2A2.14,2.14,0,0,1,51,15.34v1c-.49,1.51-1,3-1.46,4.53L45.42,33.17a2.7,2.7,0,0,1-2.79,2c-8.58,0-17.17,0-25.75,0a2.84,2.84,0,0,1-3-2.77c-.26-2.06-.56-4.12-.83-6.18q-.52-3.91-1-7.83c-.35-2.58-.71-5.16-1-7.74A3.23,3.23,0,0,0,9,8.14C6.8,7.08,4.58,6.08,2.39,5.05A4.2,4.2,0,0,1,0,2.37Z"/><path class="cls-1" d="M18.67,45.09c-.3-.08-.61-.15-.9-.25a4.2,4.2,0,0,1-1.14-7.42A4.21,4.21,0,1,1,19.71,45a1,1,0,0,0-.23.08Z"/><path class="cls-1" d="M37.17,45.09l-1.05-.3a4.2,4.2,0,1,1,2.05.22.71.71,0,0,0-.18.08Z"/></g></g></svg>