<svg xmlns="http://www.w3.org/2000/svg" viewBox="0 0 539.81 467.49"><defs><style>.cls-1{fill:#62a7db;}.cls-2{fill:#93c2e8;}.cls-3{fill:#4786bc;}.cls-4{fill:#b4d7f2;}.cls-5{fill:#fff;}</style></defs><title>dfgfdfgfg</title><g id="Слой_2" data-name="Слой 2"><g id="Слой_8" data-name="Слой 8"><polygon class="cls-1" points="269.91 233.75 539.81 233.75 404.87 0.01 269.91 233.75"/><polygon class="cls-2" points="269.9 233.75 404.86 0.01 134.95 0.01 269.9 233.75"/><circle class="cls-2" cx="337.19" cy="116.88" r="35.38"/><polygon class="cls-2" points="0 233.75 269.9 233.75 134.96 467.49 0 233.75"/><polygon class="cls-3" points="404.84 467.48 269.9 233.72 539.8 233.74 404.84 467.48"/><polygon class="cls-4" points="269.9 233.75 134.96 0 0 233.74 269.9 233.75"/><circle class="cls-4" cx="202.34" cy="117.04" r="35.38"/><polygon class="cls-1" points="269.9 233.75 134.95 467.49 404.86 467.49 269.9 233.75"/><circle class="cls-1" cx="202.62" cy="350.62" r="35.38"/><circle class="cls-3" cx="337.56" cy="350.6" r="35.38"/><circle class="cls-1" cx="404.76" cy="233.58" r="35.38"/><circle class="cls-2" cx="134.86" cy="233.92" r="35.38"/><path class="cls-5" d="M305.09,172.8H234.72l-35.19,60.93h0l35.19,60.94h70.37l35.18-60.93h0L305.09,172.8l-35.18,60.94"/></g></g></svg>