<svg xmlns="http://www.w3.org/2000/svg" viewBox="0 0 312.61 74.31"><defs><style>.cls-1{isolation:isolate;}.cls-2{fill:#6697d3;}.cls-3{fill:#eba7fc;opacity:0.65;mix-blend-mode:color;}.cls-4{fill:#f4f4f4;}.cls-5{fill:#fff;opacity:0.5;}.cls-6{fill:none;stroke:#328aa5;stroke-linecap:round;stroke-miterlimit:10;stroke-width:3px;}</style></defs><title>44</title><g class="cls-1"><g id="Слой_2" data-name="Слой 2"><g id="Слой_8" data-name="Слой 8"><path class="cls-2" d="M27.67,8.33C12,8.56.34,9.33,0,33.33S16.34,56,25.34,56.67,50,54.89,51,32.44,37.62,8.19,27.67,8.33Z"/><path class="cls-2" d="M112.8,35.28C112.51,15.29,111.52.43,80.92,0S52,20.83,51.17,32.31,53.44,63.76,82.06,65,113,48,112.8,35.28Z"/><path class="cls-2" d="M166.9,34.94C166.65,17.46,165.79,4.47,139,4.1s-25.27,18.2-26,28.24,2,27.5,27,28.61S167.06,46,166.9,34.94Z"/><path class="cls-3" d="M167,35c-.25-17.48-1.12-30.47-27.87-30.84s-25.27,18.21-26,28.24,2,27.5,27,28.61S167.11,46,167,35Z"/><path class="cls-2" d="M193.94,8.9c-15.31.22-26.7,1-27,24.42s16,22.14,24.74,22.79,24.1-1.73,25.07-23.66S203.66,8.76,193.94,8.9Z"/><path class="cls-2" d="M216.11,30.44c.23,15.52,1,27.05,24.75,27.38S263.3,41.66,264,32.75,262.2,8.33,240,7.34,216,20.59,216.11,30.44Z"/><path class="cls-2" d="M264.06,30.44c.22,15.52,1,27.05,24.74,27.38s22.44-16.16,23.1-25.07-1.76-24.42-24-25.41S263.92,20.59,264.06,30.44Z"/><circle class="cls-4" cx="26.09" cy="33.75" r="6.92"/><circle class="cls-5" cx="138.26" cy="32.92" r="8.92"/><circle class="cls-4" cx="191.35" cy="32.33" r="8.33"/><circle class="cls-4" cx="239.68" cy="30.33" r="6.33"/><circle class="cls-4" cx="286.08" cy="31.69" r="7.69"/><circle class="cls-5" cx="82.67" cy="33" r="11.33"/><path class="cls-6" d="M7.11,66.68s22.57,2,31.07-1.13,10.9-7.44,14.53-4.19S57.86,72.3,84.86,72.8s28-14.75,28-14.75.93-1.62,2.55.75,8.48,10.38,24.56,10.13,21.19-4.12,23.44-6.5,6.13-2.11,9.5-.56,8.5,3.4,21.13,3.29,18.25-5.48,20.5-6.36,4.5,1,9.37,3.63,9.5,3.87,17.38,3.62,16.87-5,20.5-5.75,8.5,1.15,12.5,3.2,15.87,2.93,21.12,2.43,15.75-3.5,15.75-3.5"/></g></g></g></svg>