<svg xmlns="http://www.w3.org/2000/svg" viewBox="0 0 65.54 55.11"><defs><style>.cls-1{fill:#22627c;}</style></defs><title>вавроло</title><g id="Слой_2" data-name="Слой 2"><g id="Слой_8" data-name="Слой 8"><path class="cls-1" d="M43.12,0a22.88,22.88,0,0,0-4.78.53A21.53,21.53,0,0,0,23.86,11.88,24.22,24.22,0,0,0,22,17.17c-.16.66-.18.8-.62.8L21,18c-.89-.06-1.77-.14-2.66-.14a11.39,11.39,0,0,0-1.64.11A22,22,0,0,0,12.22,19,18,18,0,0,0,5.1,24,18.23,18.23,0,0,0,.6,34.46a17,17,0,0,0,1.13,7.92,2.64,2.64,0,0,1,.19,1.78c-.34,1.22-.53,2.48-.78,3.73s-.54,2.66-.79,4A21.65,21.65,0,0,0,0,54.14a.81.81,0,0,0,.86,1H1a9.85,9.85,0,0,0,1.52-.35c1.27-.38,2.53-.78,3.79-1.17,1-.29,1.91-.61,2.88-.85a6.66,6.66,0,0,1,1.44-.28,1.12,1.12,0,0,1,.45.08,27.07,27.07,0,0,0,4.13,1.29,16.8,16.8,0,0,0,3.57.38,18.8,18.8,0,0,0,6.2-1.1,17,17,0,0,0,4.86-2.67,17.38,17.38,0,0,0,5.88-7.91c.18-.52.32-.73.64-.73a1.91,1.91,0,0,1,.53.11,20.17,20.17,0,0,0,5.34.89h.86a20.77,20.77,0,0,0,9.12-2,2.21,2.21,0,0,1,1-.23,2.11,2.11,0,0,1,.6.08l5.34,1.53c1.58.45,3.15.92,4.73,1.33a2.78,2.78,0,0,0,.69.09c.65,0,1.15-.33,1-1.38-.15-.77-.33-1.52-.49-2.29-.21-1-.4-2-.61-2.95s-.45-2-.67-3c-.17-.8-.28-1.62-.51-2.41a4.28,4.28,0,0,1,0-2.89,17.47,17.47,0,0,0,1.19-7.4,17.12,17.12,0,0,0-.86-6.09A20.82,20.82,0,0,0,60,8.31a21.6,21.6,0,0,0-7.26-6,22.47,22.47,0,0,0-5-1.77A19.78,19.78,0,0,0,43.12,0ZM33.31,24.24a1.29,1.29,0,0,1-1.05-.46,18.08,18.08,0,0,0-7.17-4.86l-.21-.07c-.95-.3-1-.48-.81-1.44a20.57,20.57,0,0,1,2.48-6.13A19.85,19.85,0,0,1,31.34,6a20.56,20.56,0,0,1,6.32-3.23,21.49,21.49,0,0,1,2.9-.54A15.55,15.55,0,0,1,42.23,2H43a19.52,19.52,0,0,1,6,1,19.27,19.27,0,0,1,10.68,8.43,19,19,0,0,1,2.22,5.39,20.94,20.94,0,0,1,.42,7A18.06,18.06,0,0,1,61,28.89a2.7,2.7,0,0,0-.13,1.46c.4,2,.89,3.91,1.32,5.87.34,1.51.64,3,1,4.54a1.18,1.18,0,0,1-.05.27c-.45-.09-.9-.15-1.33-.28-1.77-.5-3.53-1-5.3-1.54-1.07-.31-2.13-.65-3.23-.88l-.22,0a2.17,2.17,0,0,0-1,.28,18.46,18.46,0,0,1-4.37,1.65,15.7,15.7,0,0,1-4.24.53c-.82,0-1.63-.05-2.44-.12A28.2,28.2,0,0,1,37,39.82c-.38-.08-.4-.38-.33-.66a17.23,17.23,0,0,0,.12-5.64,14.25,14.25,0,0,0-1.35-4.76c-.3-.62-.61-1.23-.92-1.84-.21-.43-.14-.6.34-.61,1,0,2,0,3-.06l17.43-.16c.47,0,.93,0,1.22-.49A.94.94,0,0,0,56,24.17a6.51,6.51,0,0,0-1.4-.12h-.15l-12.76.11-8.32.08Zm-31,28.37c.24-1.11.45-2,.64-2.92s.31-1.72.47-2.58.29-1.84.53-2.73A3.8,3.8,0,0,0,3.8,42a21.07,21.07,0,0,1-.88-3.2,17.25,17.25,0,0,1-.26-3.29,15.43,15.43,0,0,1,2.89-8.76,15.22,15.22,0,0,1,8-6c1.13-.36,2.32-.52,3.48-.79a8,8,0,0,1,1.81-.2,16.28,16.28,0,0,1,3.47.47,15.31,15.31,0,0,1,6.35,3,16.12,16.12,0,0,1,6.18,14.24,16.08,16.08,0,0,1-11.45,14,16,16,0,0,1-4.64.7c-.42,0-.84,0-1.27-.05a14.61,14.61,0,0,1-5.72-1.6,2.21,2.21,0,0,0-1.06-.28,3.3,3.3,0,0,0-1,.18c-2.11.65-4.24,1.27-6.36,1.9l-1,.29Z"/><path class="cls-1" d="M55.17,10.83h0L31.77,11a2.25,2.25,0,0,0-.77.11,1,1,0,0,0-.64,1.3.88.88,0,0,0,1,.68h0l12-.11h0l9.89-.09c.78,0,1.57,0,2.36,0a1,1,0,0,0,.74-1.48,1.25,1.25,0,0,0-1.21-.58Z"/><path class="cls-1" d="M55.05,17.45h0l-20.78.16-2.7,0c-.74,0-1.13.36-1.15,1s.25,1,1.07,1h.68l11.29-.09,6.29-.06,5.9-.06a.92.92,0,0,0,.93-.81.82.82,0,0,0-.56-1,2.6,2.6,0,0,0-1-.19Z"/><path class="cls-1" d="M44.43,30.77l-2,0h0c-.86,0-1.72,0-2.58,0a1,1,0,0,0-1.07.92,1,1,0,0,0,1,1.09h2c1.14,0,2.28,0,3.41,0a1,1,0,0,0,1-1,1,1,0,0,0-1-1Z"/><path class="cls-1" d="M29.07,35.24h0l-15.95.13c-1.15,0-2.29,0-3.43.05-.74,0-1.13.42-1.11,1s.35,1,1.12,1h.56l9.15-.08,9.27-.09a6,6,0,0,0,.95-.07.82.82,0,0,0,.73-.8c.08-.76-.39-1.2-1.27-1.2Z"/><path class="cls-1" d="M29.1,28.67h0l-4.33,0-15.11.13c-.78,0-1.19.42-1.17,1.12s.37.92,1.16.92h0l9.72-.08h0l9.83-.09c.74,0,1.14-.42,1.07-1.1a1.07,1.07,0,0,0-1.2-.93Z"/><path class="cls-1" d="M18.19,42H18.1c-2.14,0-4.27,0-6.41.06H10.56c-.34,0-.67,0-1,0-.72.06-1,.46-1,1.19,0,.55.34.81,1.05.81h0L14,44h0c1.52,0,3,0,4.55,0a.93.93,0,0,0,.85-1.35c-.21-.6-.7-.64-1.2-.64Z"/></g></g></svg>