<svg xmlns="http://www.w3.org/2000/svg" viewBox="0 0 78.37 73.98"><defs><style>.cls-1{fill:#fff;}</style></defs><title>кеннгне</title><g id="Слой_2" data-name="Слой 2"><g id="Слой_8" data-name="Слой 8"><path class="cls-1" d="M16.65,74l.89-.51c3.82-2.3,7.63-4.61,11.46-6.88a2.31,2.31,0,0,1,1.45-.27,44.43,44.43,0,0,0,22.93-1.46,37.47,37.47,0,0,0,19.5-14.2,28.73,28.73,0,0,0,5-22.15c-1.61-9-6.71-15.82-14.06-21A41.67,41.67,0,0,0,43.33.2,44,44,0,0,0,22,3.42,37.19,37.19,0,0,0,5.37,16.64,29.12,29.12,0,0,0,0,32,29.73,29.73,0,0,0,7.25,53a35.39,35.39,0,0,0,8.81,7.64,1.21,1.21,0,0,1,.67,1.26c-.07.84-.07,1.69-.08,2.54Z"/><path class="cls-1" d="M39.26,25.18H58a6.25,6.25,0,0,1,1.56.14,2.73,2.73,0,0,1,2,2.9,2.81,2.81,0,0,1-2.49,2.53,7.7,7.7,0,0,1-1,0H20.24A6.16,6.16,0,0,1,19,30.72a2.79,2.79,0,0,1,.56-5.52c3.44,0,6.88,0,10.32,0Z"/><path class="cls-1" d="M39.16,42c4.64,0,9.27,0,13.9,0a2.81,2.81,0,1,1-.15,5.6c-5.16,0-10.32,0-15.47,0-4,0-8.1,0-12.15,0a2.74,2.74,0,0,1-2.77-2,2.56,2.56,0,0,1,1-3,4.06,4.06,0,0,1,2-.59C30.07,42,34.62,42,39.16,42Z"/></g></g></svg>