<svg xmlns="http://www.w3.org/2000/svg" viewBox="0 0 89.68 89.54"><defs><style>.cls-1{fill:#fff;}</style></defs><title>Ресурс 10</title><g id="Слой_2" data-name="Слой 2"><g id="Слой_8" data-name="Слой 8"><path class="cls-1" d="M47.83,0c1.82.23,3.65.39,5.45.71,13.34,2.42,24.2,8.74,31.36,20.53a34.89,34.89,0,0,1-2.77,40c-6.5,8.19-15,13.22-25.07,15.7a49.53,49.53,0,0,1-19.44.85,2.47,2.47,0,0,0-1.53.3c-6.07,3.64-12.12,7.32-18.17,11-.21.13-.44.25-.8.44v-1c0-5.86,0-11.72,0-17.58a2.09,2.09,0,0,0-1-1.91A38.31,38.31,0,0,1,3,53.1C-1.76,41.72-.86,30.69,5.68,20.28,11.59,10.84,20.34,5.08,30.91,2A47.1,47.1,0,0,1,41.12.15,7,7,0,0,0,41.89,0ZM22.34,79.58c.34-.19.62-.34.89-.51,3.81-2.29,7.62-4.61,11.46-6.87a2.21,2.21,0,0,1,1.44-.28,44.36,44.36,0,0,0,22.94-1.46,37.44,37.44,0,0,0,19.49-14.2,28.68,28.68,0,0,0,5-22.15c-1.61-9-6.7-15.81-14.06-21A41.62,41.62,0,0,0,49,5.8,44,44,0,0,0,27.73,9,37.23,37.23,0,0,0,11.06,22.25,29.07,29.07,0,0,0,5.72,37.64a29.74,29.74,0,0,0,7.21,21,35.36,35.36,0,0,0,8.81,7.64,1.2,1.2,0,0,1,.67,1.27c-.07.84-.07,1.68-.07,2.53C22.33,73.19,22.34,76.34,22.34,79.58Z"/><path class="cls-1" d="M45,30.79H63.67a5.71,5.71,0,0,1,1.55.15,2.71,2.71,0,0,1,2,2.89,2.84,2.84,0,0,1-2.49,2.54c-.32,0-.64,0-1,0H25.92a6.2,6.2,0,0,1-1.22-.07,2.81,2.81,0,0,1-2.23-3,2.77,2.77,0,0,1,2.8-2.5c3.44,0,6.88,0,10.32,0Z"/><path class="cls-1" d="M44.85,47.58c4.63,0,9.26,0,13.89,0a2.79,2.79,0,0,1,2.67,3.93,2.84,2.84,0,0,1-2.82,1.68H43.12c-4,0-8.1,0-12.14,0a2.77,2.77,0,0,1-2.78-2,2.57,2.57,0,0,1,1-3,4.17,4.17,0,0,1,2-.59C35.76,47.56,40.3,47.58,44.85,47.58Z"/></g></g></svg>