<svg xmlns="http://www.w3.org/2000/svg" viewBox="0 0 119.98 119.98"><defs><style>.cls-1{fill:#43a2dd;}</style></defs><title>concentration</title><g id="Слой_2" data-name="Слой 2"><g id="Слой_8" data-name="Слой 8"><path class="cls-1" d="M60,120a60,60,0,1,1,60-60A60.06,60.06,0,0,1,60,120ZM60,3a57,57,0,1,0,57,57A57,57,0,0,0,60,3Z"/><path class="cls-1" d="M93,107.35c-16.09,12.83-38.67,12.5-54.92,6.17,1-.94,10.25-13,11.15-14a8.78,8.78,0,0,0,2-9c-.25-.81-.63-.95-1.43-.81-2.84.5-5.69.95-8.55,1.37a7.65,7.65,0,0,1-5.7-1.35c-1.42-1-2.28-2.32-1.7-4a5.85,5.85,0,0,0-1.2-6.34,4.39,4.39,0,0,1-.73-4.78A2.73,2.73,0,0,0,32,74c.61-2.32.5-2.53-1.83-3.21-3.84-1.12-4.39-2.4-2.41-5.86,1.76-3.07,3.59-6.1,5.34-9.17a1.46,1.46,0,0,0,.16-1.23c-2-3-2-6.17-1.34-9.54a44.62,44.62,0,0,1,5-13.71A17.81,17.81,0,0,1,47.18,23a42.69,42.69,0,0,1,9-1.86A42,42,0,0,1,70.53,22a25.35,25.35,0,0,1,12.69,7.79,28.26,28.26,0,0,1,7.7,15.33,29,29,0,0,1-1.08,11.77c-1.36,5-4,9.47-6.8,13.8-1.43,2.19-2.86,4.39-4.07,6.7s-.74,4.75-.16,7.12a29.05,29.05,0,0,0,6.47,11.71C87,98.31,91.09,105.34,93,107.35ZM67.77,27.87c.34,2.6-1.26,2.81-3.12,3.06s-2,.44-3-1.25a6.84,6.84,0,0,0-.47-.61l-3.62,2.29,1.36,2.31A20.45,20.45,0,0,0,57,36.41c-.49,1-1,1.21-2,.79A1.57,1.57,0,0,0,54.2,37c-.28,0-.7.21-.75.4-.32,1.21-.55,2.45-.81,3.71a7.36,7.36,0,0,0,1.25.3,1.43,1.43,0,0,1,1.54,1.78,1.25,1.25,0,0,0,0,.58c.68,1.84.56,3.35-1.78,3.94.74,1.22,1.34,2.29,2,3.3a.93.93,0,0,0,.91.12C57.88,50,59,50.12,60,51.46a.83.83,0,0,0,.37.26,2,2,0,0,1,1.36,3.1,2,2,0,0,0,0,.72l4,.93a2.3,2.3,0,0,0,.25-.61c0-1.73,1.07-2,2.62-2.33,2-.48,3.22-.28,3.8,1.91l3.81-2.39a14.41,14.41,0,0,0-.88-1.46,1.09,1.09,0,0,1,.09-1.68,8.86,8.86,0,0,0,1.52-2.16,1.07,1.07,0,0,1,1.5-.6,3.37,3.37,0,0,0,1.12.25c.24,0,.65-.17.7-.35.32-1.24.58-2.51.86-3.81l-2.54-.64c-.25-1.38-.54-2.69-.7-4a1.38,1.38,0,0,1,.51-1A13.21,13.21,0,0,1,80,36.55L77.74,32.9c-.24.11-.39.15-.52.23-1.8,1.09-1.67.86-3.46-.13s-2.57-2.08-1.51-4.06ZM62.63,60.34c1,.56,1.67,1,1.15,2.23-.35.82-.06,2-1.52,2-.11,0-.32.4-.32.61a11.06,11.06,0,0,0,.18,1.13c.09.79.39,1.22,1.28.91a1,1,0,0,1,.83.11,7.24,7.24,0,0,1,1.37,2.1c.13.4-.37,1-.63,1.64l2.29,1.51c.49-1.47,1.45-1.58,2.63-1.06.17.07.42,0,.56.07s.71.41.74.67c.14,1.06.75,1.09,1.56.86.47-.13.94-.24,1.51-.38a1.86,1.86,0,0,1,.86-2.5c1.08-.73,1.77-.79,2.68.13l1.54-2.29c-.48-.45-1.19-.8-1.24-1.23a5.87,5.87,0,0,1,.38-2.47c.09-.28.75-.36,1.15-.55.17-.08.47-.22.45-.29a14.11,14.11,0,0,0-.5-2.34c0-.12-.68,0-1-.09a2.48,2.48,0,0,1-1-.47c-.31-.28-.43-.75-.72-1A1.08,1.08,0,0,1,76.72,58a1,1,0,0,0,0-1,19.47,19.47,0,0,0-2-1.29c-.36,1.49-1.24,1.22-2.33,1.18-1.41,0-1.65-.87-1.86-1.93l-2.67.56c.3,1.11.29,1.87-.89,2.5-1,.53-1.73,1-2.69-.12Z"/><path class="cls-1" d="M74.7,42.29a7.84,7.84,0,1,1-7.62-7.92A7.83,7.83,0,0,1,74.7,42.29Z"/><path class="cls-1" d="M66,64.2a5,5,0,1,1,10-.06,5,5,0,1,1-10,.06Z"/></g></g></svg>