<svg xmlns="http://www.w3.org/2000/svg" viewBox="0 0 368.85 83.44"><defs><style>.cls-1{fill:#6697d3;}.cls-2{fill:#fff;}</style></defs><title>3</title><g id="Слой_2" data-name="Слой 2"><g id="Слой_8" data-name="Слой 8"><path class="cls-1" d="M368.85,21.28c-6.17-1.23-11.16-2.93-16.19-3.05-6.07-.14-12.2.9-18.24,1.81-1,.15-2.43,2.16-2.51,3.39a82.52,82.52,0,0,0,.48,9.93l12-2.3c-1.26,5.33-8.45,10.11-15.41,10.13a25.25,25.25,0,0,1-16.21-6c-3-2.43-5.16-2.22-8.27-.27a108.55,108.55,0,0,1-14.79,7.78c-14.47,6.17-27.44,1.61-39.85-6.13-.73-.46-1.42-1-2.15-1.42-10.1-6.27-10-6.18-18.26,2.53-12.29,12.95-27.18,19.77-45.32,18.49-1.14-.08-2.28-.25-3.41-.43a1.29,1.29,0,0,1-.59-.23c.71-1.25,2-2.48,2-3.58-.86-10-2-19.94-3.08-30.59-14.91,6.9-26.66,17.73-37.73,29.47l-1-.72c2.91-4.23,5.46-8.76,8.79-12.63,13.77-16,31.32-25.64,52.1-29.23,11.85-2.05,22.9-.07,32.23,8,3.12,2.7,5.33,2.76,8.22-.34a43.19,43.19,0,0,1,8-6.39C265.1-.6,281.77.86,295.31,13.5c3.55,3.32,6.92,6.85,10.28,10.36,2.12,2.22,4,2.32,6.65.56,9.95-6.55,20.61-11.24,32.83-11.29C353.52,13.1,361.06,15.71,368.85,21.28ZM196.18,15.85,198.47,50l1.13.88c2.25-1.78,6.43-3.58,6.41-5.33-.15-9.93-1.29-19.84-2.12-30Zm-4.48,1.42c-7.7.54-7.91.79-7.29,7.71.25,2.7.44,5.4.66,8.1.56,6.77,1.11,13.55,1.7,20.82L194,52.14C193.22,40.23,192.46,28.75,191.7,17.27Zm19.93,26.45c4-1.42,6-4,5.19-8.68-.67-3.92-.51-8-.73-12-.31-6.06-1.25-6.83-7.13-6.19C209.85,25.78,210.74,34.68,211.63,43.72Zm76.52-8.19c-.18-3.91-.33-7.44-.51-11-.36-7.17-.44-7.25-8.21-8.41.34,6.82.68,13.56,1.05,20.76Zm-23.65,0c-.39-7.53-.7-13.73-1.07-21.06-3.25,1.52-7.64,2.31-8,4A23.64,23.64,0,0,0,256.18,31C256.9,33,261,33.8,264.5,35.57ZM275.87,37c-.38-7.67-.75-14.86-1.13-22.25L268,14.61c.38,7.52.75,14.57,1.12,21.8ZM232.65,25.47l-12.18-6c.32,6,.6,11.12.87,16.21l1.15.36C225.68,32.7,228.86,29.39,232.65,25.47ZM292,20.41c.3,5.31.53,9.29.79,13.93l11.91-5.41Zm35.22,2.45c-6.31,2-7.44,3.17-5.78,7.6.57,1.52,3.55,2.12,6.29,3.61C327.51,29.39,327.37,26.32,327.21,22.86Zm-76.37,5.68c-.23-3.29-.39-5.65-.59-8.67L244.12,24Z"/><path class="cls-1" d="M145.63,55,141,63.55c-.69,1.27,2.51,2.19,2.51,2.19s3.82-7.8,5.28-8.83S145.63,55,145.63,55Z"/><path class="cls-1" d="M172.17,40.9,162,44.45c-1.5.53.41,3.66.41,3.66s8.94-3.49,10.9-3.25S172.17,40.9,172.17,40.9Z"/><path class="cls-1" d="M177.57,62.24l-14.38-6.92c-2.14-1-3.41,4.28-3.41,4.28s13.06,5.72,14.87,8S177.57,62.24,177.57,62.24Z"/><path class="cls-1" d="M147.28,75.15s-2.38,5.73-5.85,6.49,12.69.69,17-1.76,5.11-4,5.11-4S154,75.86,147.28,75.15Z"/><circle class="cls-1" cx="13.2" cy="70.14" r="5.59"/><circle class="cls-2" cx="11.22" cy="68.36" r="1.34"/><path class="cls-1" d="M26.5,67.74a2.21,2.21,0,0,0-2.22-2.22,2.12,2.12,0,0,0-.44,0,11.57,11.57,0,1,0,.95,4.58c0-.07,0-.15,0-.23A2.22,2.22,0,0,0,26.5,67.74Zm-13.3,13A10.56,10.56,0,1,1,22.91,66a2.2,2.2,0,0,0-.86,1.75,2.24,2.24,0,0,0,1.7,2.17c0,.08,0,.15,0,.23A10.58,10.58,0,0,1,13.2,80.7ZM24.3,69.28a1.52,1.52,0,1,1,1.52-1.52A1.52,1.52,0,0,1,24.3,69.28Z"/><circle class="cls-1" cx="24.28" cy="72.22" r="2.23"/><circle class="cls-2" cx="23.77" cy="71.46" r="0.7"/><circle class="cls-1" cx="10.87" cy="59.11" r="2.23"/><circle class="cls-1" cx="15.27" cy="59.11" r="2.23"/><circle class="cls-2" cx="10.43" cy="58.36" r="0.7"/><circle class="cls-2" cx="14.76" cy="58.36" r="0.7"/><circle class="cls-1" cx="2.23" cy="67.74" r="2.23"/><circle class="cls-2" cx="1.78" cy="66.99" r="0.7"/><circle class="cls-1" cx="2.23" cy="72.22" r="2.23"/><circle class="cls-2" cx="1.72" cy="71.46" r="0.7"/><circle class="cls-1" cx="10.87" cy="80.9" r="2.23"/><circle class="cls-1" cx="15.27" cy="80.9" r="2.23"/><circle class="cls-2" cx="10.43" cy="80.15" r="0.7"/><circle class="cls-2" cx="14.76" cy="80.15" r="0.7"/><circle class="cls-1" cx="49.56" cy="28.86" r="11.13"/><circle class="cls-2" cx="45.6" cy="25.31" r="2.66"/><path class="cls-1" d="M76.05,24.09a4.44,4.44,0,0,0-4.44-4.44,4.14,4.14,0,0,0-.87.09,23.06,23.06,0,1,0,1.89,9.12c0-.15,0-.3,0-.46A4.43,4.43,0,0,0,76.05,24.09ZM49.56,49.89a21,21,0,1,1,19.32-29.3,4.47,4.47,0,0,0-1.7,3.5,4.42,4.42,0,0,0,3.39,4.3c0,.16,0,.32,0,.47A21,21,0,0,1,49.56,49.89Zm22.1-22.75a3,3,0,1,1,3-3A3,3,0,0,1,71.66,27.14Z"/><circle class="cls-1" cx="71.61" cy="32.99" r="4.44"/><circle class="cls-2" cx="70.6" cy="31.49" r="1.4"/><circle class="cls-1" cx="44.92" cy="6.89" r="4.44"/><circle class="cls-1" cx="53.67" cy="6.89" r="4.44"/><circle class="cls-2" cx="44.03" cy="5.38" r="1.4"/><circle class="cls-2" cx="52.65" cy="5.38" r="1.4"/><circle class="cls-1" cx="27.69" cy="24.09" r="4.44"/><circle class="cls-2" cx="26.8" cy="22.58" r="1.4"/><circle class="cls-1" cx="27.69" cy="32.99" r="4.44"/><circle class="cls-2" cx="26.67" cy="31.49" r="1.4"/><circle class="cls-1" cx="44.92" cy="50.3" r="4.44"/><circle class="cls-1" cx="53.67" cy="50.3" r="4.44"/><circle class="cls-2" cx="44.03" cy="48.8" r="1.4"/><circle class="cls-2" cx="52.65" cy="48.8" r="1.4"/><circle class="cls-1" cx="103.19" cy="12.51" r="5.27"/><circle class="cls-2" cx="101.32" cy="10.83" r="1.26"/><path class="cls-1" d="M115.74,10.25a2.1,2.1,0,0,0-2.1-2.1,1.84,1.84,0,0,0-.41,0,10.93,10.93,0,1,0,.89,4.32v-.22A2.08,2.08,0,0,0,115.74,10.25ZM103.19,22.47a10,10,0,1,1,9.16-13.88,2.12,2.12,0,0,0-.81,1.66,2.09,2.09,0,0,0,1.61,2v.22A10,10,0,0,1,103.19,22.47Zm10.47-10.78a1.43,1.43,0,1,1,1.44-1.43A1.43,1.43,0,0,1,113.66,11.69Z"/><circle class="cls-1" cx="113.64" cy="14.47" r="2.1"/><circle class="cls-2" cx="113.16" cy="13.76" r="0.66"/><circle class="cls-1" cx="101" cy="2.1" r="2.1"/><circle class="cls-1" cx="105.14" cy="2.1" r="2.1"/><circle class="cls-2" cx="100.58" cy="1.39" r="0.66"/><circle class="cls-2" cx="104.66" cy="1.39" r="0.66"/><circle class="cls-1" cx="92.84" cy="10.25" r="2.1"/><circle class="cls-2" cx="92.42" cy="9.54" r="0.66"/><circle class="cls-1" cx="92.84" cy="14.47" r="2.1"/><circle class="cls-2" cx="92.36" cy="13.76" r="0.66"/><circle class="cls-1" cx="101" cy="22.66" r="2.1"/><circle class="cls-1" cx="105.14" cy="22.66" r="2.1"/><circle class="cls-2" cx="100.58" cy="21.95" r="0.66"/><circle class="cls-2" cx="104.66" cy="21.95" r="0.66"/><circle class="cls-1" cx="93.02" cy="66.42" r="7.32"/><circle class="cls-2" cx="90.41" cy="64.09" r="1.75"/><path class="cls-1" d="M110.44,63.28a2.92,2.92,0,0,0-2.92-2.92,2.76,2.76,0,0,0-.57.06,15.17,15.17,0,1,0,1.24,6c0-.1,0-.2,0-.3A2.92,2.92,0,0,0,110.44,63.28ZM93,80.25A13.83,13.83,0,1,1,105.73,61a2.91,2.91,0,0,0,1.11,5.13v.31A13.84,13.84,0,0,1,93,80.25Zm14.53-15a2,2,0,1,1,2-2A2,2,0,0,1,107.55,65.29Z"/><circle class="cls-1" cx="107.52" cy="69.14" r="2.92"/><circle class="cls-2" cx="106.86" cy="68.15" r="0.92"/><circle class="cls-1" cx="89.96" cy="51.97" r="2.92"/><circle class="cls-1" cx="95.72" cy="51.97" r="2.92"/><circle class="cls-2" cx="89.38" cy="50.98" r="0.92"/><circle class="cls-2" cx="95.05" cy="50.98" r="0.92"/><circle class="cls-1" cx="78.63" cy="63.28" r="2.92"/><circle class="cls-2" cx="78.05" cy="62.29" r="0.92"/><circle class="cls-1" cx="78.63" cy="69.14" r="2.92"/><circle class="cls-2" cx="77.97" cy="68.15" r="0.92"/><circle class="cls-1" cx="89.96" cy="80.52" r="2.92"/><circle class="cls-1" cx="95.72" cy="80.52" r="2.92"/><circle class="cls-2" cx="89.38" cy="79.53" r="0.92"/><circle class="cls-2" cx="95.05" cy="79.53" r="0.92"/></g></g></svg>