<svg xmlns="http://www.w3.org/2000/svg" viewBox="0 0 297.63 65.72"><defs><style>.cls-1{fill:#6697d3;}</style></defs><title>Рefghесурс 2</title><g id="Слой_2" data-name="Слой 2"><g id="Слой_8" data-name="Слой 8"><path class="cls-1" d="M281,22.65c-7.58-1.51-13.72-3.59-19.9-3.74-7.46-.18-15,1.1-22.42,2.22-1.26.19-3,2.65-3.08,4.16-.25,3.79.31,7.64.59,12.21l14.75-2.83C249.35,41.23,240.52,47.1,232,47.13A31,31,0,0,1,212,39.74c-3.68-3-6.34-2.73-10.16-.34A133,133,0,0,1,183.69,49c-17.78,7.59-33.73,2-49-7.54-.9-.56-1.75-1.19-2.65-1.74-12.41-7.71-12.29-7.6-22.44,3.11C94.51,58.72,76.21,67.11,53.91,65.53c-1.4-.1-2.8-.31-4.18-.53-.48-.08-.92-.36-.73-.29.87-1.53,2.5-3,2.39-4.4C50.33,48.05,49,35.81,47.6,22.72,29.27,31.19,14.83,44.51,1.23,58.94L0,58.05c3.57-5.19,6.71-10.76,10.8-15.52C27.73,22.81,49.3,11,74.84,6.6c14.57-2.52,28.16-.09,39.63,9.86,3.83,3.32,6.55,3.39,10.09-.42a53.19,53.19,0,0,1,9.9-7.85c19-12.44,39.47-10.64,56.12,4.9,4.36,4.08,8.5,8.41,12.64,12.74,2.61,2.72,4.89,2.84,8.17.68,12.23-8,25.34-13.82,40.36-13.88C262.13,12.6,271.4,15.81,281,22.65ZM68.72,16c1,14.5,1.9,28.23,2.82,42L72.93,59c2.76-2.19,7.91-4.41,7.87-6.55-.17-12.21-1.58-24.39-2.6-36.89Zm-5.51,1.75c-9.46.66-9.72,1-9,9.47.3,3.31.54,6.64.81,10l2.09,25.59,8.9-2.17C65.09,45.94,64.15,31.84,63.21,17.73Zm24.51,32.5c5-1.74,7.36-4.87,6.37-10.66-.82-4.82-.63-9.81-.89-14.72-.39-7.44-1.54-8.39-8.76-7.61C85.53,28.19,86.62,39.12,87.72,50.23Zm94.06-10.06c-.22-4.81-.41-9.15-.63-13.49-.45-8.81-.55-8.9-10.1-10.33.43,8.39.85,16.66,1.29,25.52Zm-29.08,0c-.47-9.26-.85-16.88-1.31-25.89-4,1.87-9.39,2.84-9.83,4.89a29.16,29.16,0,0,0,.91,15.42C143.36,37.1,148.44,38.05,152.7,40.22Zm14,1.74c-.48-9.42-.93-18.26-1.39-27.34L157,14.45c.48,9.25.92,17.91,1.38,26.8ZM113.55,27.8l-15-7.41c.4,7.4.73,13.67,1.07,19.93l1.42.44Zm72.94-6.21c.37,6.52.65,11.42,1,17.12l14.63-6.66Zm43.31,3c-7.77,2.44-9.16,3.89-7.12,9.34.7,1.86,4.37,2.61,7.74,4.44C230.16,32.63,230,28.85,229.8,24.6Zm-93.89,7c-.27-4-.47-6.95-.72-10.66l-7.54,5Z"/><path class="cls-1" d="M262.25,21.68,256.61,32.2c-.84,1.56,3.08,2.69,3.08,2.69s4.7-9.58,6.5-10.85S262.25,21.68,262.25,21.68Z"/><path class="cls-1" d="M284.63,3.63,272.18,8c-1.86.64.5,4.49.5,4.49s11-4.29,13.4-4S284.63,3.63,284.63,3.63Z"/><path class="cls-1" d="M297.63,31.31l-11.89-5.72c-1.77-.85-2.82,3.54-2.82,3.54s10.8,4.73,12.3,6.65S297.63,31.31,297.63,31.31Z"/><path class="cls-1" d="M259.52,39s-2.07,5-5.08,5.63,11,.6,14.72-1.53,4.43-3.51,4.43-3.51S265.33,39.61,259.52,39Z"/></g></g></svg>