<svg xmlns="http://www.w3.org/2000/svg" viewBox="0 0 564.62 194.19"><defs><style>.cls-1{fill:#22627c;}</style></defs><title>Ресурс 5</title><g id="Слой_2" data-name="Слой 2"><g id="Слой_8" data-name="Слой 8"><path class="cls-1" d="M479.11,189.38c-.35,2.23-1.4,2.51-3,2-1.83-.59-3.73-1-5.7-1.46,1.18-13.57,7.3-25.58,9.9-38.77-3,0-2.37-2.3-2.18-4.42.81-8.9,1.64-17.8,2.35-26.71.17-2.16,1.06-2.8,3.11-2.57,3.14.35,6.32.43,9.46.82,1.6.2,2.37-.13,2.14-2l-4.36-1c.4-4.83.88-9.65,1.16-14.49a32,32,0,0,0-.27-7c-1.79-11-2.52-21.88-.18-32.92,1-4.86,1.48-9.82,4.89-13.77a59.52,59.52,0,0,1,4.88-5c2.3-2.1,4.93-3.88,7.06-6.13,2.47-2.61,3-6.17,4-9.53a20.67,20.67,0,0,1,3.22-6.66c1.26-1.66,3.32-3.77,5-3.78a17,17,0,0,1,8.81,2.46c2.56,1.64,4.47,4.45,6.31,7,2,2.69,1.12,4.21-1.44,6.38A9,9,0,0,0,530.86,38c-.07,1.47-.11,2.47-2.07,2.9-1.11.24-2.35,1.94-2.69,3.21-.67,2.49-2,2.67-4,1.93-1.17-.43-2.36-.79-3.67-1.22,0,.53-.15.81-.06,1,2.35,4.12,4.79,8.2,7.05,12.37.38.7,0,1.8,0,2.72a6.62,6.62,0,0,0,0,1.6c1.05,4.17,2.14,8.32,3.28,12.73,3.95-.91,7.19-3.12,10.21-5.87a17.72,17.72,0,0,1,4.59-3,4,4,0,0,1,3,.23c.75.38,1.15,1.47,1.84,2.43l6.51-3.36.42.75a8.45,8.45,0,0,0-1.84,1.27,17.51,17.51,0,0,0-1.69,2.54c-.36.58-.61,1.22-1,1.79-.25.39-.92.74-.88,1,.45,3.13-2.39,3.34-4,4.69a10.05,10.05,0,0,0-2.65,3.14,4.33,4.33,0,0,1-3.06,2.75c-2.74.7-5.39,1.77-8.1,2.61-1.49.46-1.91,1.32-1.86,2.88.28,8,.34,16.08.68,24.11.1,2.5-.64,3.8-3.13,4.12-1,.13-2,.48-3.85.93,1.14,1.3,2,2.23,2.82,3.24.42.53,1.09,1.3,1,1.77-1.13,3.9,1.26,6.91,2.47,10.19,2.36,6.37,5,12.64,7.23,19.07,1.78,5.24,4.88,9.46,8.58,13.42,3.14,3.36,6.07,6.91,9.19,10.48l-3.82,3.34.06.69c3.2-.3,6.4-.63,9.6-.87a32.62,32.62,0,0,1,3.56.09c-.68,1-1.15,2.31-2.07,3-4.91,3.66-10.2,6.39-16.62,5.68-.32,0-.65,0-1.06,0-.91,4.07-4.8,2.9-7.4,4.57-.82-1.69-1.94-3.07-2.13-4.58-.67-5.44-3.17-9.89-6.4-14.21-3.87-5.19-6-11.28-7.71-17.5a2.71,2.71,0,0,0-2.89-2.28c-4.38-.28-8.75-.69-13.11-1.14a2.44,2.44,0,0,0-2.8,1.62,44.48,44.48,0,0,1-3.94,6.14c-4.52,6-6.15,13-6.73,20.28-.42,5.31-.36,5.3,4.87,7.11a25.15,25.15,0,0,1,4,1.69c.6.33.93,1.16,1.39,1.77a5.67,5.67,0,0,1-1.74,1c-6.17.87-12.27,1.09-18-2C481.4,190.26,480.41,189.93,479.11,189.38Z" transform="translate(0)"/><path class="cls-1" d="M323.67,142.41c-1.58,2.68-3.36,4.87-4.25,7.37-1.4,4-4.37,5.86-7.91,7.31a9.32,9.32,0,0,0-2.18,1c-5.74,4.39-11.43,8.86-17.18,13.23-1.8,1.38-1.88,2.81-1.83,5.11.11,5.39,3.58,7.22,7.5,9,.59.27,1.19.51,1.75.76.24,3.66-2.91,6-6.39,4.84a13.27,13.27,0,0,0-3.5-.57c-2.38-.11-4.11-.85-5.06-3.34a14.07,14.07,0,0,0-7-8.11,9.42,9.42,0,0,1-3-2.06c-1.71-1.94-.86-4.56,1.72-6.37a62,62,0,0,0,16.88-17.81c2.56-4.05,5.61-7.57,10.72-8.54.57-.11,1.28-1.23,1.36-1.94.56-5.31.91-10.64,1.47-15.95a19,19,0,0,0-3.67-13.85c-3.94-5.51-2.74-11.77.4-17.55a3.49,3.49,0,0,0,.18-3.84c-3.19-5.38-3.64-11.08-2.21-17.11a48.4,48.4,0,0,0,.83-7.44c.25-3.06.4-6.13.63-9.79l-4.61,5.23c-1.52-4,1.36-6.71,3-9.73a24.56,24.56,0,0,0,2.39-4.75l-1.22,1.1a3.87,3.87,0,0,1,.12-1.11c1.41-3.19,2.79-6.39,4.31-9.52.67-1.38.73-2.17-.79-3.09-7.85-4.76-15.53-9.79-23.45-14.42a16.57,16.57,0,0,0-7.6-2.13c-8.4-.22-13.83-4.5-17.45-11.68-1.09-2.15-2.24-4.27-3.53-6.72,7,1.21,13.49,2.52,18.89,6.76,2.13,1.68,3.71,4.07,5.83,5.77A123.78,123.78,0,0,0,289.26,20c6.2,4,12.52,7.81,19,11.86l4.52-11.06-2.62,2.85c.37-2.45,3.36-5.48,6.52-6.53,1.15-.39,2.6-.34,3.47-1,3.65-2.94,7.39-2,11.43-1.06,4.37,1,4.44.66,5.05,5,2.75,1.52,1.55,4.89,3.19,6.89,1.48,1.79,1.56,1.76.25,3,.18,1.84.42,3.28.43,4.72a6,6,0,0,1-4.74,5.89,44.43,44.43,0,0,0-5.21,2.17c0,.36-.09.72-.14,1.07,1.88,1.77,3.7,3.62,5.67,5.28a36,36,0,0,0,4.25,2.82c1.59,1,3.13,1.56,4.91.15,2.14-1.7,4.2.1,5.76,1,2.09,1.2,3.61,3.41,5.35,5.21a1.06,1.06,0,0,1,.2.92c-.93,2.5,1,3.21,2.54,4.18,7.3,4.55,14.59,9.12,22.05,13.78-.66,1.1-1.22,2-1.95,3.29L354,64.85a31.48,31.48,0,0,0-4.45,3,9.18,9.18,0,0,0-2.54,3.74c-2.17,7.41-6.43,13.59-11.11,19.54-.22.28-.7.65-.94.58-2.61-.76-2.16,1-2.34,2.55a20.71,20.71,0,0,1-1.36,5.62c-1.86,4.52-2.12,8.61.47,13.2,4.44,7.85,8.09,16.08,9.06,25.27.39,3.67,1.8,7.24,2,10.91.18,2.81-.95,5.68-1.17,8.55-.51,6.89-.74,13.79-1.24,20.68-.17,2.32.64,3.34,2.84,4,2.95.84,5.74,2.24,8.67,3.12,2.05.61,4.26.7,6.36,1.15a17.17,17.17,0,0,1,2.75,1.07c-.48.89-.72,2.16-1.46,2.6-2.8,1.66-5.43,2.84-9.2,2.66-5.38-.27-10.87-2.61-16.45.29-3.37,1.76-6.57-1.33-5.18-4.81,2.4-6,1.17-11.89-1-17.24a36.49,36.49,0,0,1-2.09-20A11.07,11.07,0,0,0,323.67,142.41Zm15.86-77.95c1.56-1.06,2.89-1.82,1.28-3.78a3.77,3.77,0,0,1-.6-2.47c.17-2-.95-2.83-2.88-3.38Z" transform="translate(0)"/><path class="cls-1" d="M424.07,96c-1,3.42-1.88,6.61-2.71,9.82a2,2,0,0,0,.36,1.5c6.64,7.5,10.87,16.52,16.14,24.89,2.69,4.29,3.47,8.59,4.09,13.37.72,5.69,2.41,11.26,3.74,16.86,1.17,5,2.43,9.93,3.63,14.9a3.84,3.84,0,0,0,3.88,3.32c1.85.12,3.69.89,5.52.84,3.35-.09,6.68-.57,10.27-.91a2.66,2.66,0,0,1-1.23,4.15,43.38,43.38,0,0,1-9.48,3.55c-3.47.78-6.67,1.71-9.54,3.94-3.2,2.48-5.46,1.71-6.32-2.29a50.62,50.62,0,0,0-11.55-23c-3.45-4-3.38-9-3.25-13.9,0-1.46.47-3,.22-4.36-.32-1.83-.68-4-1.85-5.26-4-4.35-8.35-8.36-12.58-12.51-3.79,4.95-7.27,9.41-10.64,13.94-.6.82-.69,2-1.2,2.91a44.81,44.81,0,0,1-3.09,4.86c-1.45,1.91-3.21,3.58-4.61,5.52-4.68,6.43-9.18,13-13.91,19.39-1.45,2-1.48,3.34.24,5.06,3.65,3.65,7.3,7.22,12.81,7.8a4.84,4.84,0,0,1,1.16.51,4.84,4.84,0,0,1-4.54,3.18c-4.59.41-9,.17-13.08-2.52a29.9,29.9,0,0,0-8.09-3.14c-3.63-1.06-4.52-2.54-2.61-5.76A127.64,127.64,0,0,0,377.23,156c1.82-5.68,4.68-10.67,10.1-13.85a6.48,6.48,0,0,0,2.49-3.43c1.43-4.45,2.6-9,4-14-3,1.75-5.48,2.88-8.32,2l-.29-.87,4.5-1.91-6.47-1.42a15.38,15.38,0,0,1,.58-3.57,2.59,2.59,0,0,1,1.94-1c2.39-.13,3.59-1.24,3.52-3.67a2.51,2.51,0,0,1,.09-1.2c2.89-5.52.67-11.13.39-16.71-.11-2.17,0-4.36,0-6.54,0-2,0-4,.14-6,.14-1.83.52-3.63.73-5.46.38-3.37.57-6.77,1.08-10.12.86-5.6,1.77-11.2,2.92-16.74.79-3.79,2.06-7.44,6.36-8.78.22-.07.5-.25.55-.44,1.3-4.28,4.33-8,3.82-12.88a27.87,27.87,0,0,1,.24-7.74c1.4-7.65,11.08-11.88,17.93-8a58.77,58.77,0,0,0,5.34,2.91c2.33,1,2.08,2.75,1.6,4.64-.61,2.36-1.38,4.7-1.77,7.09A4.27,4.27,0,0,0,429.79,31c.84,1.18.55,1.75-.42,2.82a8.89,8.89,0,0,0-2.27,4.66c-.3,2.71-1.21,3.79-3.94,3.24a24.18,24.18,0,0,0-2.8-.75,2.06,2.06,0,0,0-1.53.84c-.18.26.15,1,.44,1.42,1.29,1.75,3,3.27,3.89,5.19,2.07,4.73,3.8,9.63,5.53,14.5a3.32,3.32,0,0,1-.24,2.79c-1.69,1.76-1,3.76-1.08,5.72-.13,3.16-.42,6.32-.43,9.48A4.17,4.17,0,0,0,428,83.67c6,5.71,12.16,11.24,18.1,17A29.32,29.32,0,0,1,450.7,107c1.42,2.43.12,6.36-2.42,7.54a10.53,10.53,0,0,1-4.6,1.17c-2.24-.1-3.21-2.22-2.64-4.43a3.55,3.55,0,0,0-.6-2.34c-1.39-2.29-4.22-3.59-4.46-6.76,0-.6-1.43-1.19-2.29-1.61C430.64,99,427.54,97.61,424.07,96Z" transform="translate(0)"/><path class="cls-1" d="M239.65,58.17c1.44,5.37,2.8,10.33,4.07,15.32a5.25,5.25,0,0,1-1.18,5.22c-.42.45-.41,1.31-.59,2-.88,3.25-1.88,6.47-2.58,9.76a7.93,7.93,0,0,0,.1,4.51c1.95,4.53,4.22,8.92,6.39,13.35.89,1.82,2,3.55,2.75,5.42,1,2.52,1.88,5.14,2.79,7.72a24.92,24.92,0,0,1,1,3,38.26,38.26,0,0,1,1.19,6.81c.08,2.66-6.22,6-8.51,4.7-.62-.37-.94-1.24-1.66-1.67,1.22,2.44,1.41,5.42,5.18,6.17,2.55.5,4.79,2.51,7.17,3.84.43.23.88.61,1.32.61,4,0,4.58,3.18,5.77,5.92s-.22,5.45-2.78,7.94c-1.21,1.17-4,.76-6.15.87-.38,0-.83-.88-1.21-1.38-1-1.25-1.88-2.53-2.82-3.79l-.72.2c-.27,7.15-.64,14.31-.73,21.46,0,2,.09,5,1.33,5.9a18.84,18.84,0,0,0,8.77,3.62,18.59,18.59,0,0,1,8,2.85c-1.49,3.32-2.58,3.64-5.87,3.76a135.79,135.79,0,0,0-16.12,1.46c-4.35.69-5.9-.23-5.24-4.7a26.31,26.31,0,0,0-.74-11.06,86.76,86.76,0,0,1-2.75-12.26,22.63,22.63,0,0,1,.67-8.34,6.26,6.26,0,0,0-1.71-6.6c-3.09-3.13-6.08-6.35-9.39-9.81-1.14,3.16-2.32,6.7-3.71,10.15-.64,1.6-1.32,3.61-2.61,4.43-3.94,2.47-6.32,6.24-9.08,9.71-2.43,3.05-4.91,6.06-7.26,9.17-1.28,1.69-2.12,3.48,0,5.36.67.6.86,1.71,1.28,2.59.8,1.71,1.67,3.07,3.86,3.62,1.58.4,2.94,2,4.16,3.23.26.27-.39,2.14-.8,2.21a35.18,35.18,0,0,1-5.63.3c-.38,0-.79-.45-1.12-.38-3.26.64-5-1.72-6.62-3.69a8.22,8.22,0,0,0-5.13-2.8,11.28,11.28,0,0,1-2.54-.77c-2.62-1.21-3.26-3-1.83-5.49,2-3.44,4.2-6.75,6.14-10.21a20,20,0,0,0,2.26-5.55c1.16-5.63,3.35-10.26,9.27-12.36,2.46-.87,4-4.42,3.63-7.32-.77-5.58-1.26-11.1.05-16.71.36-1.54-.18-3.37-.58-5a69,69,0,0,0-2.14-6.72,8.88,8.88,0,0,1,.71-8.2c1.69-2.55.8-4.53-.84-6.31a6.2,6.2,0,0,1-1.51-5.33c.38-4,.5-7.94.59-11.92a24.26,24.26,0,0,1,2.51-10.56,22.14,22.14,0,0,0,1.45-5.61c1.33-6.66,4-12.27,10.7-15.24,1.77-.78,4.17-2,2.8-5-.11-.23.06-.64.2-.92a87.48,87.48,0,0,1,4.11-7.79c2.39-3.7,6.22-4.54,10.27-4a50.53,50.53,0,0,1,7.46,1.94c.24.06.35.52.54.77a18.47,18.47,0,0,0,2.15,2.7c1.29,1.13,2.86,2,2.28,4.13a1,1,0,0,0,.18.91c3.17,2.22,1.33,5.54,1.86,8.33,0,.22,0,.62-.11.68-2.84,1.55-4.09,5.71-8.36,5A23.58,23.58,0,0,0,239.65,58.17Z" transform="translate(0)"/><path class="cls-1" d="M151.19,85.54c4.33,18.91,2.26,18.83-3.21,31.63,3.63,3.18,7.29,6.46,11,9.65a31.57,31.57,0,0,1,9.37,14.54,3.62,3.62,0,0,1-.88,3.12c-2.18,2-4.83,2.21-7.66,1.4-1.34-.38-1.53-1-1.34-2.3a6.15,6.15,0,0,0-.55-3,61.94,61.94,0,0,0-2.61-5.95,3.39,3.39,0,0,0-1.78-1.4c-1.8-.67-3.67-1.17-5.87-1.84,4.25,5.92,8.05,11.84,12.5,17.2,3.39,4.08,4,8.4,3.07,13.19-.57,2.94-1.63,5.77-2.29,8.7-.54,2.42-.69,4.92-1.24,7.34-.5,2.2-1.29,4.33-1.9,6.3,5.45,2.09,11.45,3,16.2,6.74l-.11.94c-1.89.43-3.79,1.26-5.68,1.23-6.58-.1-13.17-.46-19.75-.81-2.36-.12-2.83-1.56-2.46-3.73.73-4.4,1.19-8.8.25-13.28a13.67,13.67,0,0,1,2.25-10.67,6.44,6.44,0,0,0-1.19-8c-1.85-1.56-3.85-2.94-5.61-4.26-1,3.85-2,7.71-2.88,11.59a4.78,4.78,0,0,0,.11,1.91c.69,3.67-.52,6.74-4,8.26a107,107,0,0,1-10.33,3.47c-2.58.83-5.14,1.73-7.76,2.37A17.19,17.19,0,0,1,113,180a17.39,17.39,0,0,1,0,3.18c-.34,1.72.65,2.4,2,2.81,3.15,1,4.74,3.13,4.67,6.57a41.48,41.48,0,0,1-6.61,1c-1.36,0-2.72-1-4.15-1.52,0-.05,0,.48-.07,1-3.73.87-7-.66-8.28-4a6.21,6.21,0,0,1,0-2.14,59.78,59.78,0,0,0,0-7.92c-.6-4.78-.11-6.18,4.29-8,5.54-2.23,10.44-6,16.61-6.71a7.65,7.65,0,0,0,2.16-1.09c-2.57-7.61-3.1-15.79-7.59-22.73a12.69,12.69,0,0,1-1.44-9.9,22.6,22.6,0,0,0,.21-9.12C113,111,115.88,101.35,120,91.92c3.8-8.65,10.17-14.8,17.93-20,3.37-2.25,5.84-5.85,8.72-8.84a9.53,9.53,0,0,1,1.81-1.88C154,58,160,59.12,164.22,64c.74.85,1.65,1.54,2.47,2.32.47.44,1.33,1,1.28,1.34-.24,1.82,1.5,2.88,1.65,4.19.33,2.83,2.22,5.38,1.35,8.4-.45,1.54-5.61,4.7-7.84,4.55-1.06-.07-2.11-.21-3.15-.38C155.65,83.65,155.65,83.64,151.19,85.54Z" transform="translate(0)"/><path class="cls-1" d="M55.3,190.06l1.33,2.71c-2.56.89-4.87,1.15-7.35,0a15.34,15.34,0,0,0-4.9-1.22c-2.44-.27-3-.88-3.08-3.32a49.12,49.12,0,0,0-1-5.18,18.9,18.9,0,0,1,.08-2.37c-.16-4.95-.24-9.9-.54-14.85-.18-3-.33-3-3.77-3.9-.28,2-.4,4-.86,5.91a55.9,55.9,0,0,1-2.56,8.59,5.88,5.88,0,0,1-3.25,3c-4.49,1.42-9.11,2.49-13.69,3.63a15.35,15.35,0,0,0-2.84.58c.88.42,1.77.82,2.65,1.25,1.7.83,3.41,1.63,5.06,2.54a1.36,1.36,0,0,1,.22,1.23,4.5,4.5,0,0,1-2,1.14c-1.08.2-2.24-.31-3,1.06-.21.37-1.61.23-2.4,0-1.59-.39-3.12-1-4.69-1.48-.69-.21-1.61-.13-2.07-.56a69.18,69.18,0,0,1-6.1-6.13c-1.09-1.3-.43-2.62,1.1-3.34,6.22-2.94,12.43-5.88,18.67-8.77A13.32,13.32,0,0,1,23,170c-.61-2.81-1.2-5.69-1.88-8.55-.25-1-.91-2-1.07-3-.53-3.49-2.61-6-5-8.39-2.49-2.56-3.2-7.34-1.1-10.08,4.13-5.4,8.59-10.56,12.88-15.84a18.44,18.44,0,0,0,2.2-3.16c5-9.79,13.09-16.06,23.27-19.52a32,32,0,0,0,7.92-4.41,17.79,17.79,0,0,1,16.4-2.15c.65.22,1.85.27,1.22,1.74-.16.39.72,1.52,1.36,1.88,2.55,1.45,3.85,3.26,3.07,6.4-.15.64,1.49,1.57,1.9,2.54.77,1.83,1.24,3.79,1.9,5.9l-2.07.51c-1.74,3.81-3.71,4.58-8.52,3.56a10,10,0,0,0-3,.32c-.12,6-2.63,10.76-6.53,15.08-2.34,2.59-1.44,11.21.83,13.9,4.68,5.53,9.39,11,13.83,16.77a46.33,46.33,0,0,1,4.25,7.62c1.75,3.46-.79,10.86-2.87,13-.7.73-2.7.84-3.78.4a4.86,4.86,0,0,1-2.77-3c-.19-1.08,1.06-2.41,1.68-3.64l.57.26V175l-8.76-6.11c-.21.57-.4.81-.35,1,1.34,5,.45,10-.83,14.87-.44,1.71-.09,2.77,1.59,3.5.64.28,1,1.1,1.57,1.67-.57.5-1.1,1-1.71,1.48a4.69,4.69,0,0,1-1.3.66c-3.35,1.16-5.81-.55-5.85-4.06,0-.63.06-1.26.1-1.9a2,2,0,0,0-.54.07c-.86.37-1.7.76-2.56,1.14a12.39,12.39,0,0,1,.14-3.18c.4-1.29,1.41-2.38,1.77-3.67a8,8,0,0,0-.41-6.48,111.2,111.2,0,0,1-6.85-16.54c-1.55-4.75-2.21-9.78-3.29-14.68a9.74,9.74,0,0,0-.52-1.4l-6.35,2.88C46,148,47.92,152,50.81,155.07c3.11,3.32,2.72,6.36,1.28,10a9.78,9.78,0,0,0-.47,3.82c.17,4.58.94,9.14-1.28,13.55-.89,1.77,1.78,4.43,4.18,4,3.22-.6,4.37,1.92,6.15,3.5.26.24,0,1,0,1.52a9.3,9.3,0,0,1-2.94-.06c-.76-.25-1.31-1.12-2-1.71Z" transform="translate(0)"/></g></g></svg>