<svg xmlns="http://www.w3.org/2000/svg" viewBox="0 0 280.24 51.2"><defs><style>.cls-1{fill:#173f58;}.cls-2{fill:#00adee;}</style></defs><title>кпроно</title><g id="Слой_2" data-name="Слой 2"><g id="Слой_8" data-name="Слой 8"><polygon class="cls-1" points="272.69 13.42 272.69 26.06 255.51 26.06 255.51 13.42 247.97 13.42 247.97 46.44 255.51 46.44 255.51 32.86 272.69 32.86 272.69 46.44 280.24 46.44 280.24 13.42 272.69 13.42"/><path class="cls-1" d="M82.08,13.42c-3.43,0-10.67,0-11.85.09-6.68.41-10.82,3.81-12.66,10.38L51.21,46.42h8L61,40.25H77.74v6.19h7.73v-33H82.08ZM77.74,33.48H62.89l2.58-9.22c.75-2.61,2.66-3.93,5.71-3.93h6.56Z"/><path class="cls-1" d="M158.7,30a12,12,0,0,0-2.23-1.05,8.7,8.7,0,0,0,1.16-.7,6.51,6.51,0,0,0,2.89-5.51A8.17,8.17,0,0,0,157.4,16c-2.31-1.8-5-2.57-8.87-2.57H130.38v33h19.25a15.43,15.43,0,0,0,9.71-2.89,8.62,8.62,0,0,0,3.42-6.83A7.55,7.55,0,0,0,158.7,30ZM138,20h10.5c2.69,0,4.06,1.06,4.06,3.16,0,1.26-.42,2.93-4.06,2.93H138Zm11.64,19.59H138V32.89h11.64c1.93,0,5.17.46,5.17,3.6C154.84,39.07,152,39.61,149.67,39.61Z"/><path class="cls-1" d="M114.62,26.66l10.06-12.73.43-.55H116l-10,12.69h-5.7V13.38H92.56V46.45h7.67V32.74h9.84a4.77,4.77,0,0,1,4.4,3.65l2.76,10.06h7.92L122.3,36C121,31.22,118.45,28.15,114.62,26.66Z"/><polygon class="cls-1" points="175.8 35.68 175.8 13.52 168.32 13.52 168.29 46.68 176.38 46.68 193.17 24.53 193.17 46.68 200.66 46.68 200.66 13.52 192.59 13.52 175.8 35.68"/><path class="cls-1" d="M224.33,12.25a18.18,18.18,0,0,0-13,5A17.78,17.78,0,0,0,206.32,30a17.94,17.94,0,0,0,5.05,12.79,19.28,19.28,0,0,0,25.92,0A17.84,17.84,0,0,0,242.36,30a17.72,17.72,0,0,0-5.07-12.75A18.13,18.13,0,0,0,224.33,12.25Zm0,28.64c-6.29,0-10.52-4.37-10.52-10.87S218,19.18,224.33,19.18,234.86,23.53,234.86,30,230.63,40.89,224.33,40.89Z"/><path class="cls-2" d="M42.56,0s-21,6.49-30.93,12A20.68,20.68,0,0,0,0,30.45C0,41.91,9.54,51.2,21.28,51.2A21.18,21.18,0,0,0,42.07,34.89s0-.08,0-.13c2.37-11,.45-34.76.45-34.76M31,40a14,14,0,0,1-9.88,3.75A14,14,0,0,1,11.19,40a13.09,13.09,0,0,1-3.84-9.41h4.21a9.5,9.5,0,0,0,9.62,9.22,9.51,9.51,0,0,0,9.62-9.22h4A13.14,13.14,0,0,1,31,40"/></g></g></svg>