<svg xmlns="http://www.w3.org/2000/svg" viewBox="0 0 119.98 119.98"><defs><style>.cls-1{fill:#43a2dd;}</style></defs><title>hardwork</title><g id="Слой_2" data-name="Слой 2"><g id="Слой_8" data-name="Слой 8"><path class="cls-1" d="M60,120a60,60,0,1,1,60-60A60.06,60.06,0,0,1,60,120ZM60,3a57,57,0,1,0,57,57A57,57,0,0,0,60,3Z"/><path class="cls-1" d="M56.22,44c-5.93,2.71-9.77,2.18-12.28-1.53A8.06,8.06,0,0,1,55.34,31.4C58.85,34,59.42,38,57.15,43.06l2.37-3c2.55-3.23,6.13-3.84,9.46-1.38A45.62,45.62,0,0,1,83.55,57c2.16,4.78-.87,9.24-6.16,9.33-4.37.07-8.75.08-13.12,0a2.53,2.53,0,0,0-2.83,2.09c-2.06,6.37-4.23,12.7-6.37,19-.54,1.6-1.47,3.08-3.26,3A5.27,5.27,0,0,1,48.23,89a4.46,4.46,0,0,1-.58-3.65c2.49-7.9,5.19-15.73,7.81-23.59A4.36,4.36,0,0,1,60,58.61c2.46,0,4.91,0,7.36,0,.63,0,1.26-.09,2.19-.16a31.08,31.08,0,0,0-8.19-9.17,1.9,1.9,0,0,0-1.81.41c-1.85,2.54-4.39,2.83-7.24,2.71-3.44-.14-6.9,0-10.34,0-2.25,0-3.64-1.12-3.69-2.79s1.38-2.93,3.71-2.94c3.38,0,6.76,0,10.14,0C54.57,46.59,54.57,46.58,56.22,44Z"/><path class="cls-1" d="M93.58,49.3c0,7.08,0,14.17,0,21.26,0,3.87-1.13,5-5,5-1.32,0-2.65,0-4,0a3.77,3.77,0,0,0-3.53,4.83,2,2,0,0,0,1.21,1.07,12.21,12.21,0,0,1,8.09,7.08A19.25,19.25,0,0,0,92,90.83a3,3,0,0,1-.15,4,2.84,2.84,0,0,1-4,.44,2.76,2.76,0,0,1-.93-3.86A2.88,2.88,0,0,0,86.55,88a8.51,8.51,0,0,0-13.8-.29c-.85,1.14-1.39,2.24-.55,3.79a2.92,2.92,0,0,1-1.74,4.19,2.89,2.89,0,0,1-3.85-2.09c-.13-.5-.26-1.22,0-1.54,2.27-2.87,3.1-6.8,6.48-8.81a9,9,0,0,1,2.85-1.38c2.24-.39,2.34-1.89,2-3.51s-1.12-2.91-3.21-2.78c-2.31.14-4.64.06-7,0-2.11,0-2.56-.89-1.53-2.77A6.29,6.29,0,0,1,71,69.57c4.11-.57,8.26-.93,12.41-1.19,3-.18,3,0,3-3,0-8.55-.09-17.1.07-25.64a54.39,54.39,0,0,1,1.2-9.22A6.2,6.2,0,0,1,91,25.82c1.86-.88,2.59-.43,2.6,1.62C93.6,34.72,93.58,42,93.58,49.3Z"/><path class="cls-1" d="M28.6,92.19c1.7,0,3.2,0,4.69,0,1.28,0,2.51.36,2.43,2s-1.2,1.73-2.43,1.73h-7c-1.7,0-2.52-.78-2.51-2.56,0-11.78,0-23.57,0-35.36,0-3.41.22-3.62,3.58-3.62q13.32,0,26.62,0a5.06,5.06,0,0,1,2,.11c.57.26,1.33.93,1.33,1.41a2.33,2.33,0,0,1-1.1,1.78,6.65,6.65,0,0,1-2.73.35c-5.69,0-11.39,0-17.08,0-1.62,0-2.28.5-2.56,2.2-1.6,10-3.35,20-5,29.94C28.74,90.69,28.7,91.27,28.6,92.19Z"/></g></g></svg>