<svg xmlns="http://www.w3.org/2000/svg" viewBox="0 0 15.26 15.29"><defs><style>.cls-1{fill:#85a6d6;}</style></defs><title>Ресурс 1</title><g id="Слой_2" data-name="Слой 2"><g id="Слой_8" data-name="Слой 8"><path class="cls-1" d="M0,7.64a7.63,7.63,0,1,1,7.61,7.65A7.63,7.63,0,0,1,0,7.64Zm7.64,5.91A5.91,5.91,0,1,0,1.73,7.88,5.89,5.89,0,0,0,7.64,13.55Z"/><path class="cls-1" d="M8.41,12H6.85V5.42H8.41Z"/><path class="cls-1" d="M7.63,3.32a.79.79,0,0,1,.79.79.81.81,0,0,1-.8.78.79.79,0,0,1-.78-.79A.77.77,0,0,1,7.63,3.32Z"/></g></g></svg>