<svg xmlns="http://www.w3.org/2000/svg" viewBox="0 0 135.33 135.33"><defs><style>.cls-1{fill:none;stroke:#fff;stroke-miterlimit:10;stroke-width:3px;}.cls-1,.cls-3{opacity:0.7;}.cls-2,.cls-3{fill:#fff;}</style></defs><title>libra</title><g id="Слой_2" data-name="Слой 2"><g id="Слой_8" data-name="Слой 8"><circle class="cls-1" cx="67.67" cy="67.67" r="66.17"/><path class="cls-2" d="M103.64,75.83c-3.52-10.11-7-20.24-10.59-30.33a16.52,16.52,0,0,0-2.54-4.64A17.84,17.84,0,0,0,87,38a11.24,11.24,0,0,0-10.39-1.8c-1.45.42-2.9.81-4.54,1.27.14-3.1-.3-5.84-3.89-6.31-2.59-.34-3.84.64-5.05,3.74v5a4.16,4.16,0,0,1,.09,1q0,27,0,54.06v1.81H56c-5.86,0-7.43,1.57-7.43,7.42H86.76c0-5.85-1.57-7.42-7.43-7.42H72.06v-1.8c0-17.54,0-35.09,0-52.63,0-1.38.41-1.91,1.71-2.12a26.78,26.78,0,0,0,3.7-1,8,8,0,0,1,7.31,1.06,41.73,41.73,0,0,1,4,3.35A1.65,1.65,0,0,1,89.1,45C85.56,55.31,82,65.62,78.35,75.88a4.75,4.75,0,0,0,.71,4.75,15,15,0,0,0,18.68,4.51,15.83,15.83,0,0,0,6.43-6.39v-2A6.6,6.6,0,0,1,103.64,75.83ZM69.06,96.66H66.21v-60c0-1.1-.16-2.32,1.37-2.53,1-.14,1.48.74,1.48,2.57ZM81.53,76.22l9.32-26.78.31-.06c3.09,8.89,6.2,17.79,9.35,26.84Z"/><path class="cls-3" d="M63,35.3c-.9-.65-1.78-1.29-2.67-1.91A11.28,11.28,0,0,0,53,31.07a21.92,21.92,0,0,0-9.51,3.15,2.68,2.68,0,0,0-.92,1.35c-.83,2.28-1.58,4.57-2.38,6.85-2.87,8.29-5.67,16.6-8.66,24.84a4.42,4.42,0,0,0,.63,4.38,14.11,14.11,0,0,0,10.7,6.21c5.67.66,11.82-2.49,14.12-7.41A3.62,3.62,0,0,0,57.18,68c-2.28-6.74-4.64-13.44-7-20.16L46.12,36.11c1.72-.57,3.32-1.14,4.93-1.64a7.72,7.72,0,0,1,7,1.18c1.28.9,2.5,1.9,3.85,2.68a2.25,2.25,0,0,1,1.23,1.56v-5C63.09,35,63,35.15,63,35.3ZM53.77,67.54h-19c3.14-9,6.23-17.92,9.33-26.83l.36,0Z"/></g></g></svg>