<svg xmlns="http://www.w3.org/2000/svg" viewBox="0 0 55.96 55.96"><defs><style>.cls-1{fill:none;stroke:#fff;stroke-miterlimit:10;stroke-width:2px;}.cls-2{fill:#fff;}</style></defs><title>Ресурс 15</title><g id="Слой_2" data-name="Слой 2"><g id="Слой_8" data-name="Слой 8"><circle class="cls-1" cx="27.98" cy="27.98" r="26.98"/><path class="cls-2" d="M19.5,17.5c.07,1.06.84,1.48,1.64,1.85-.54,1.06-.63,1.12-4.85,3.15A8,8,0,0,0,17.54,24,7.44,7.44,0,0,0,24,25.1c.55-.13,1.08-.33,1.69-.52.21.54.39,1.05.61,1.56a5.56,5.56,0,0,0,3.48,3.19A1.12,1.12,0,0,0,31.15,29a5.72,5.72,0,0,0,1.23-3.35c.06-.5.08-1,.13-1.52,3.11,1.69,6.84.91,7.28-2.48l-3.57-1.37a13.81,13.81,0,0,0,1.55-.84,10.78,10.78,0,0,0,1.1-1.13A8.4,8.4,0,0,1,45,25.11a16.63,16.63,0,0,1-2.16,12.23c-2.73,4.3-6.94,6.7-12.25,7.31C23,45.51,17.13,42.92,13,37.07a12.81,12.81,0,0,1-2.29-8.5,14.73,14.73,0,0,1,1.4-5.85C13.55,19.84,16.09,18.24,19.5,17.5Z"/><path class="cls-2" d="M19.09,20.88a5.78,5.78,0,0,0,3.11-2.42,4.38,4.38,0,0,1,4.18-1.83v-.19L23.79,16c-2.4-.41-3.42-1.48-3.65-4,.69,1.36,1.92,1.35,3.14,1.38a4.48,4.48,0,0,1,4,2.08C28,14.22,28.7,13,29.44,11.79a7.87,7.87,0,0,1,.72-.92c.57-.67.91-.71,1.73-.22C30,13.37,29.67,14,29.47,15.75c.05,0,.11,0,.14,0a5.64,5.64,0,0,1,5.1-1.23,15,15,0,0,0,2.76,0c-.81,2.06-2.44,3-4.88,2.55a8.32,8.32,0,0,1,3.22,2.19,17.29,17.29,0,0,0,2,1.39c-3.93,1.83-6.21-.72-8.58-3.18A10.29,10.29,0,0,1,30,25.7c-3-1.87-3.25-4.59-2.68-7.67a6.26,6.26,0,0,1-3.43,3.26A7,7,0,0,1,19.09,20.88Z"/></g></g></svg>