<svg xmlns="http://www.w3.org/2000/svg" viewBox="0 0 37.31 47.95"><defs><style>.cls-1{fill:#85a6d6;}</style></defs><title>Ресуhfhghрс 8</title><g id="Слой_2" data-name="Слой 2"><g id="Слой_8" data-name="Слой 8"><path class="cls-1" d="M18.5,48c-.83-.86-1.6-1.63-2.35-2.42-2.86-3-5.67-6.06-8.35-9.24a37.73,37.73,0,0,1-6-9.66A21.12,21.12,0,0,1,0,19.08,17.88,17.88,0,0,1,2.42,9.52,18,18,0,0,1,15.19.36a18.07,18.07,0,0,1,15.66,4.2,17.26,17.26,0,0,1,4,4.81,18.22,18.22,0,0,1,2.27,11.76,19.75,19.75,0,0,1-2.7,7.71,49.19,49.19,0,0,1-3.57,4.82c-2.07,2.55-4.21,5.05-6.35,7.54-1.43,1.66-2.91,3.27-4.37,4.9-.47.53-1,1-1.44,1.58A3.12,3.12,0,0,0,18.5,48Zm.15-41.88A12.6,12.6,0,1,0,31.26,18.65,12.54,12.54,0,0,0,18.65,6.07Z"/></g></g></svg>