<svg xmlns="http://www.w3.org/2000/svg" viewBox="0 0 43.3 51.2"><defs><style>.cls-1{fill:#00adee;}</style></defs><title>парпрпр</title><g id="Слой_2" data-name="Слой 2"><g id="Слой_8" data-name="Слой 8"><path class="cls-1" d="M42.56,0s-21,6.49-30.93,12A20.68,20.68,0,0,0,0,30.45C0,41.91,9.54,51.2,21.28,51.2A21.18,21.18,0,0,0,42.07,34.89s0-.08,0-.13c2.37-11,.45-34.76.45-34.76M31,40a14,14,0,0,1-9.88,3.75A14,14,0,0,1,11.19,40a13.09,13.09,0,0,1-3.84-9.41h4.21a9.5,9.5,0,0,0,9.62,9.22,9.51,9.51,0,0,0,9.62-9.22h4A13.14,13.14,0,0,1,31,40"/></g></g></svg>