<svg xmlns="http://www.w3.org/2000/svg" viewBox="0 0 135.33 135.33"><defs><style>.cls-1{fill:none;stroke:#fff;stroke-miterlimit:10;stroke-width:3px;}.cls-1,.cls-3{opacity:0.7;}.cls-2{fill:#fff;}</style></defs><title>lowbatary</title><g id="Слой_2" data-name="Слой 2"><g id="Слой_8" data-name="Слой 8"><circle class="cls-1" cx="67.67" cy="67.67" r="66.17"/><path class="cls-2" d="M96.52,42.21H41.15a8.66,8.66,0,0,0-8.64,8.65v.88A8.67,8.67,0,0,0,26.29,60V74a8.68,8.68,0,0,0,6.22,8.3v.88a8.66,8.66,0,0,0,8.64,8.65H96.52a8.66,8.66,0,0,0,8.65-8.65V50.86A8.66,8.66,0,0,0,96.52,42.21Zm3.1,40.92a3.1,3.1,0,0,1-3.1,3.11H41.15a3.1,3.1,0,0,1-3.1-3.11v-3a3.11,3.11,0,0,0-3.11-3.11,3.1,3.1,0,0,1-3.1-3.1V60a3.1,3.1,0,0,1,3.1-3.11,3.1,3.1,0,0,0,3.11-3.1v-3a3.1,3.1,0,0,1,3.1-3.11H96.52a3.1,3.1,0,0,1,3.1,3.11Z"/><rect class="cls-2" x="79.95" y="52.32" width="14.76" height="29.35" rx="3.34" ry="3.34"/><g class="cls-3"><rect class="cls-2" x="61.25" y="52.32" width="14.76" height="29.35" rx="3.34" ry="3.34"/></g></g></g></svg>