<svg xmlns="http://www.w3.org/2000/svg" viewBox="0 0 306.72 104.97"><defs><style>.cls-1{fill:#6697d3;}.cls-2{fill:#f4f4f4;}</style></defs><title>Рrfrhесурс 3</title><g id="Слой_2" data-name="Слой 2"><g id="Слой_8" data-name="Слой 8"><path class="cls-1" d="M42.3,1.22c-5.75,1.07-15.27,3-20.21,8S.53,29.52.08,52.87s.9,31,5.84,36.39,37.73,16.55,63.33,4.45,33.24-16.13,35.49-32.3,2.69-27.11-1.8-41S85.87,3,73.3,1.22,50.05-.22,42.3,1.22Z"/><path class="cls-2" d="M49.34,53.25c-4.26-4.31-17.07-1.43-18.87,5.38S29,75.29,34.07,77.26s16.69-1.33,19.13-6.42S56.53,60.51,49.34,53.25Z"/><path class="cls-2" d="M26.7,55.49a1.37,1.37,0,0,1-.28,0,1.5,1.5,0,0,1-1.2-1.75c1.39-7.6,9.2-9.63,9.53-9.72a1.5,1.5,0,1,1,.73,2.91c-.25.07-6.27,1.68-7.31,7.35A1.49,1.49,0,0,1,26.7,55.49Z"/><path class="cls-2" d="M25.57,77.73a1.47,1.47,0,0,1-1.09-.48c-5.59-6-2.17-17-2-17.43a1.5,1.5,0,0,1,2.86.92c0,.09-3,9.78,1.35,14.46a1.51,1.51,0,0,1-1.1,2.53Z"/><path class="cls-2" d="M45.19,84.28a24.9,24.9,0,0,1-4.65-.41,1.5,1.5,0,0,1-1.17-1.77,1.51,1.51,0,0,1,1.77-1.17c.08,0,8.2,1.6,12.88-2.17A1.5,1.5,0,0,1,55.9,81.1C52.68,83.69,48.41,84.28,45.19,84.28Z"/><path class="cls-2" d="M58.9,64.59h-.12A1.49,1.49,0,0,1,57.4,63a9.1,9.1,0,0,0-3.31-7.77,1.5,1.5,0,1,1,1.75-2.44A12.08,12.08,0,0,1,60.39,63.2,1.5,1.5,0,0,1,58.9,64.59Z"/><path class="cls-2" d="M59.49,50.89a1.49,1.49,0,0,1-1.21-.61,17.91,17.91,0,0,0-17.15-7.06,1.5,1.5,0,0,1-.58-2.94,20.91,20.91,0,0,1,20.14,8.21,1.51,1.51,0,0,1-1.2,2.4Z"/><path class="cls-2" d="M17.45,58.22A1.5,1.5,0,0,1,16,56.76c0-.52-.18-12.58,11.51-18.46a1.49,1.49,0,0,1,2,.66,1.51,1.51,0,0,1-.67,2C18.8,46,19,56.57,19,56.68a1.5,1.5,0,0,1-1.46,1.54Z"/><path class="cls-2" d="M48.23,92.59A21.52,21.52,0,0,1,43.29,92,1.5,1.5,0,1,1,44,89.09c10.9,2.55,17.56-5.65,17.63-5.74A1.5,1.5,0,0,1,64,85.22,21.22,21.22,0,0,1,48.23,92.59Z"/><path class="cls-2" d="M61.64,77.08a1.48,1.48,0,0,1-1.09-.46,1.5,1.5,0,0,1,.05-2.12c1.94-1.85,1.78-7.33,1.57-9.1a1.5,1.5,0,1,1,3-.36c.1.86.89,8.43-2.48,11.63A1.47,1.47,0,0,1,61.64,77.08Z"/><path class="cls-2" d="M34.13,87.83H34c-11.11-1-14.52-6.92-14.66-7.17A1.5,1.5,0,0,1,22,79.2c.13.22,2.92,4.83,12.3,5.64a1.5,1.5,0,0,1-.13,3Z"/><ellipse class="cls-2" cx="28.52" cy="26.65" rx="7.8" ry="6.68"/><ellipse class="cls-2" cx="53.79" cy="20.59" rx="9.94" ry="8.03"/><circle class="cls-2" cx="84.98" cy="32.84" r="2.42"/><circle class="cls-2" cx="84.98" cy="45.48" r="2.42"/><circle class="cls-2" cx="73.2" cy="40.03" r="2.42"/><circle class="cls-2" cx="89.73" cy="55.45" r="2.42"/><circle class="cls-2" cx="73.2" cy="53.13" r="2.42"/><circle class="cls-2" cx="83.31" cy="64.33" r="2.42"/><circle class="cls-2" cx="91.65" cy="42.79" r="2.42"/><circle class="cls-2" cx="97.5" cy="28.86" r="2.42"/><path class="cls-1" d="M276.48,8.48c-4.76-3.11-12.77-8.13-20-7.66s-30.35.86-48.62,18.52-14.81,24.27-15.58,31.8,4.65,38.73,31.47,46.94,35.16,10.32,49.13-.58,22.7-19,30.28-32.74,1.74-25.09-5.48-35.08S282.89,12.67,276.48,8.48Z"/><path class="cls-2" d="M237.66,58.73c-2.19-2.22-8.77-.74-9.7,2.77s-.77,8.56,1.85,9.57,8.58-.68,9.83-3.3S241.35,62.46,237.66,58.73Z"/><path class="cls-2" d="M218.48,55h-.19a1,1,0,0,1-.8-1.17,10.9,10.9,0,0,1,3.59-6.28A1,1,0,0,1,222.41,49a9,9,0,0,0-2.95,5.15A1,1,0,0,1,218.48,55Z"/><path class="cls-2" d="M217.35,77.23a1,1,0,0,1-.73-.32,12,12,0,0,1-3-7.24,1,1,0,0,1,.9-1.09,1,1,0,0,1,1.09.9,10.1,10.1,0,0,0,2.43,6.06A1,1,0,0,1,218,77,1,1,0,0,1,217.35,77.23Z"/><path class="cls-2" d="M237,83.78a24.92,24.92,0,0,1-4.54-.4,1,1,0,0,1,.4-2,24,24,0,0,0,6.74.21,1,1,0,0,1,1.12.87,1,1,0,0,1-.88,1.11A24,24,0,0,1,237,83.78Z"/><path class="cls-2" d="M250.67,64.09h-.07a1,1,0,0,1-.92-1.08,9.59,9.59,0,0,0-3.52-8.2,1,1,0,1,1,1.17-1.63,11.57,11.57,0,0,1,4.34,10A1,1,0,0,1,250.67,64.09Z"/><path class="cls-2" d="M251.26,50.39a1,1,0,0,1-.8-.41,18,18,0,0,0-5.68-5.08,1,1,0,0,1-.38-1.37,1,1,0,0,1,1.36-.38,20.15,20.15,0,0,1,6.31,5.64,1,1,0,0,1-.21,1.4A1,1,0,0,1,251.26,50.39Z"/><path class="cls-2" d="M210.61,56.93h-.09a1,1,0,0,1-.91-1.09,20.45,20.45,0,0,1,2-6.45,1,1,0,1,1,1.79.88A18.41,18.41,0,0,0,211.61,56,1,1,0,0,1,210.61,56.93Z"/><path class="cls-2" d="M240,92.09a20.8,20.8,0,0,1-4.78-.57,1,1,0,0,1,.45-2,17.8,17.8,0,0,0,11.45-1,1,1,0,1,1,.8,1.82A19.39,19.39,0,0,1,240,92.09Z"/><path class="cls-2" d="M253.41,76.58a1,1,0,0,1-.72-.31,1,1,0,0,1,0-1.41c2.09-2,2-7.55,1.71-9.52a1,1,0,0,1,2-.24c0,.33.92,8.13-2.33,11.21A1,1,0,0,1,253.41,76.58Z"/><path class="cls-2" d="M217.81,85.29a1,1,0,0,1-.43-.1c-4.26-2-5.76-4.66-5.82-4.77a1,1,0,0,1,1.75-1,11.4,11.4,0,0,0,4.93,3.94,1,1,0,0,1-.43,1.91Z"/><ellipse class="cls-2" cx="216" cy="33.33" rx="4.4" ry="3.76" transform="matrix(0.98, -0.18, 0.18, 0.98, -2.46, 39.97)"/><ellipse class="cls-2" cx="241.45" cy="12.27" rx="5.01" ry="4.05"/><circle class="cls-2" cx="266.88" cy="8.22" r="1.91"/><circle class="cls-2" cx="274.9" cy="44.02" r="1.91"/><circle class="cls-2" cx="254.13" cy="32.03" r="1.91"/><circle class="cls-2" cx="287.1" cy="52.88" r="1.91"/><circle class="cls-2" cx="265.15" cy="56.72" r="1.91"/><circle class="cls-2" cx="272.04" cy="71.36" r="1.91"/><circle class="cls-2" cx="287.1" cy="32.05" r="1.91"/><circle class="cls-2" cx="272.04" cy="24.74" r="1.91"/><polygon class="cls-1" points="148.16 17.05 148.16 85.55 167.62 51.3 148.16 17.05"/><rect class="cls-1" x="136.92" y="32.05" width="11.24" height="34.7"/></g></g></svg>