<svg xmlns="http://www.w3.org/2000/svg" viewBox="0 0 135.33 135.33"><defs><style>.cls-1{fill:none;stroke:#fff;stroke-miterlimit:10;stroke-width:3px;}.cls-1,.cls-3{opacity:0.7;}.cls-2,.cls-3{fill:#fff;}</style></defs><title>molecul</title><g id="Слой_2" data-name="Слой 2"><g id="Слой_8" data-name="Слой 8"><circle class="cls-1" cx="67.67" cy="67.67" r="66.17"/><path class="cls-2" d="M67.89,48.45A17.86,17.86,0,1,0,85.75,66.31,17.85,17.85,0,0,0,67.89,48.45ZM61.53,64.88a4.27,4.27,0,1,1,4.27-4.27A4.27,4.27,0,0,1,61.53,64.88Z"/><path class="cls-3" d="M67.47,32.12a3.54,3.54,0,0,1-.08.45h.15A2.24,2.24,0,0,1,67.47,32.12Zm0-2.17a5.49,5.49,0,0,0-.1,1.08,5.6,5.6,0,0,0,.1,1.09A6.5,6.5,0,0,0,67.56,31,6.38,6.38,0,0,0,67.47,30Zm-.14-.67a3.8,3.8,0,0,1,.14.67,3.14,3.14,0,0,1,.13-.68ZM32.78,65.76a6.73,6.73,0,0,1-1.91-.27c0,.2,0,.4,0,.6a6.92,6.92,0,0,1,3.3-.13,1.93,1.93,0,0,1,0-.34A6.84,6.84,0,0,1,32.78,65.76Zm34.74,34.3h-.11a5,5,0,0,0,0,.67,5.49,5.49,0,0,0,.1,1.08,6.38,6.38,0,0,0,.09-1.08A4.87,4.87,0,0,0,67.52,100.06Zm0,1.74a6.15,6.15,0,0,1-.42,1.54h.83A6.21,6.21,0,0,1,67.47,101.8Zm43-43.16a7.12,7.12,0,0,0-8.52-7A37.25,37.25,0,0,0,81.55,31.88,6.88,6.88,0,0,1,80.41,35,33.93,33.93,0,0,1,98.91,53a7.12,7.12,0,0,0,2.71,12.53c0,.16,0,.31,0,.47a6.53,6.53,0,0,1,1.67-.21,6.65,6.65,0,0,1,1.62.19c0-.15,0-.29,0-.44A7.11,7.11,0,0,0,110.42,58.64Zm-7,4.9a4.86,4.86,0,1,1,4.86-4.86A4.87,4.87,0,0,1,103.37,63.54ZM80.82,97.48a6.93,6.93,0,0,1,.79,3.24A37.26,37.26,0,0,0,102.31,80a7,7,0,0,1-3.07-1.19A33.85,33.85,0,0,1,80.82,97.48ZM36.6,78.94A7,7,0,0,1,33.49,80a37.21,37.21,0,0,0,19.85,20.35,6.92,6.92,0,0,1,.92-3.19A33.87,33.87,0,0,1,36.6,78.94ZM53.42,32.21A37.27,37.27,0,0,0,33.89,51.62a6.71,6.71,0,0,1,3,1.25A33.92,33.92,0,0,1,54.71,35.25,6.79,6.79,0,0,1,53.42,32.21Z"/><path class="cls-2" d="M104.92,66h0a6.65,6.65,0,0,0-1.62-.19,6.53,6.53,0,0,0-1.67.21,7.1,7.1,0,0,0-2.39,12.76A7,7,0,0,0,102.31,80a5.37,5.37,0,0,0,1,.08,7.11,7.11,0,0,0,1.62-14Zm-3.26,6.75a2.25,2.25,0,1,1,2.25-2.24A2.24,2.24,0,0,1,101.66,72.77Z"/><path class="cls-2" d="M67.47,30a3.8,3.8,0,0,0-.14-.67,7.11,7.11,0,0,0-14,1.75,6.56,6.56,0,0,0,.1,1.18,6.79,6.79,0,0,0,1.29,3,7.12,7.12,0,0,0,12.68-2.68,3.54,3.54,0,0,0,.08-.45,5.6,5.6,0,0,1-.1-1.09A5.49,5.49,0,0,1,67.47,30ZM59,30.86a2.25,2.25,0,1,1,2.25-2.25A2.25,2.25,0,0,1,59,30.86Z"/><path class="cls-2" d="M74.49,23.9a7.1,7.1,0,0,0-6.89,5.37,3.14,3.14,0,0,0-.13.68A6.38,6.38,0,0,1,67.56,31a6.5,6.5,0,0,1-.09,1.09,2.24,2.24,0,0,0,.07.44A7.11,7.11,0,0,0,80.41,35a6.88,6.88,0,0,0,1.14-3.09,6,6,0,0,0,.06-.85A7.12,7.12,0,0,0,74.49,23.9Zm-1.63,7a2.25,2.25,0,1,1,2.24-2.25A2.25,2.25,0,0,1,72.86,30.86Z"/><path class="cls-2" d="M34.15,66a6.92,6.92,0,0,0-3.3.13,7.12,7.12,0,0,0,1.93,14,5.53,5.53,0,0,0,.71,0,7,7,0,0,0,3.11-1.08,7.1,7.1,0,0,0-2.45-13Zm-3,6.81a2.25,2.25,0,1,1,2.25-2.24A2.24,2.24,0,0,1,31.15,72.77Z"/><path class="cls-2" d="M67.52,100.06a2,2,0,0,0,0-.42,7.12,7.12,0,0,0-13.21-2.46,6.92,6.92,0,0,0-.92,3.19,2.06,2.06,0,0,0,0,.35,7.11,7.11,0,0,0,13.73,2.62,6.15,6.15,0,0,0,.42-1.54,6.38,6.38,0,0,0,.09-1.08A4.87,4.87,0,0,0,67.52,100.06Zm-8.51.49a2.25,2.25,0,1,1,2.25-2.24A2.24,2.24,0,0,1,59,100.55Z"/><path class="cls-2" d="M80.82,97.48a7.1,7.1,0,0,0-13.35,2.16,1.45,1.45,0,0,0-.06.41,5,5,0,0,0,0,.67,5.49,5.49,0,0,0,.1,1.08,6.21,6.21,0,0,0,.41,1.55,7.12,7.12,0,0,0,13.73-2.63A6.93,6.93,0,0,0,80.82,97.48Zm-8,3.07a2.25,2.25,0,1,1,2.24-2.24A2.24,2.24,0,0,1,72.86,100.55Z"/><path class="cls-2" d="M36.94,52.87a6.71,6.71,0,0,0-3-1.25,5.8,5.8,0,0,0-1.11-.1,7.11,7.11,0,0,0-1.91,14,6.73,6.73,0,0,0,1.91.27,6.84,6.84,0,0,0,1.37-.14,7.1,7.1,0,0,0,2.79-12.75Zm-5.58,5.6a2.25,2.25,0,1,1,2.24-2.24A2.24,2.24,0,0,1,31.36,58.47Z"/></g></g></svg>