<svg xmlns="http://www.w3.org/2000/svg" viewBox="0 0 332.67 332.67"><defs><style>.cls-1{fill:#e9415b;}.cls-2{fill:#e5eaeb;}</style></defs><title>nonono</title><g id="Слой_2" data-name="Слой 2"><g id="Слой_8" data-name="Слой 8"><path class="cls-1" d="M110,203.65a22.16,22.16,0,0,1,7-15.34c6.54-6.51,12.94-13.19,19.64-19.53,2.74-2.6,2.59-4.22-.05-6.73-6.33-6-12.42-12.26-18.55-18.46-9.81-9.93-10.68-21.31-2.34-29.88s20.28-7.88,30.45,2.14c5.67,5.58,11.5,11,16.79,16.94,3.45,3.85,5.68,4.53,9.44.23,5.57-6.36,11.81-12.12,17.86-18,9.35-9.16,21.12-9.71,29.36-1.49s7.81,19.77-1.43,29.37c-6.05,6.28-12.09,12.6-18.56,18.44-3.7,3.34-3.19,5.3.17,8.41,6.58,6.1,12.88,12.52,19.07,19,8.66,9.09,8.81,20.71.63,28.83s-19.56,7.71-28.75-1.19c-6.46-6.24-12.88-12.53-19-19.09-2.89-3.1-4.74-3.44-7.82-.13-6.64,7.12-13.54,14-20.69,20.66-6.15,5.69-13.49,7.3-21.35,3.71S110.48,211.63,110,203.65Z"/><path class="cls-2" d="M166.33,0A166.34,166.34,0,1,0,332.67,166.33,166.33,166.33,0,0,0,166.33,0Zm0,298A131.67,131.67,0,1,1,298,166.33,131.67,131.67,0,0,1,166.33,298Z"/></g></g></svg>