<svg xmlns="http://www.w3.org/2000/svg" viewBox="0 0 119.98 119.98"><defs><style>.cls-1{fill:#43a2dd;}</style></defs><title>pain</title><g id="Слой_2" data-name="Слой 2"><g id="Слой_8" data-name="Слой 8"><path class="cls-1" d="M60,120a60,60,0,1,1,60-60A60.06,60.06,0,0,1,60,120ZM60,3a57,57,0,1,0,57,57A57,57,0,0,0,60,3Z"/><path class="cls-1" d="M29.2,95c1.27-2.3,2.38-4.45,3.65-6.5a2.41,2.41,0,0,1,1.77-.71c4.92,0,9.85,0,14.77,0h2C50,86.21,48.64,85,47.49,83.56c-4.14-5-4.38-10.9-.67-16.22,3.14-4.51,7.58-7.25,12.66-9C64.84,56.41,70.3,55.1,76,56.54c1.25.32,2.46.84,3.67,1.26,1.38-1.31,2.73-2.8,4.28-4a10.64,10.64,0,0,1,6.73-2.45A5.7,5.7,0,0,1,96.59,58c-.66,6-6.28,11.53-12.26,12.06a6.42,6.42,0,0,1-5.82-2.71C79.6,78.14,84.09,87,91.2,95.11c-3.24,0-6.11.12-9-.09-.74,0-1.51-1-2.07-1.75a45.84,45.84,0,0,1-6.7-12.86c-1-2.77-1.94-5.57-2.9-8.33-4.67-.14-12,3.28-15.07,7L69,95Z"/><path class="cls-1" d="M33.13,27.84,52.89,44,50.83,22.46l.27-.14c4,7.68,8.06,15.37,12.22,23.32l5.09-12.92,2.2,5.85c2.14-4.85,4.14-9.41,6.15-14l.24.07c-.94,7.91-1.88,15.82-2.84,24,4-4,7.92-7.91,11.8-11.77l.51.34-7,17.35C71.59,52.2,64,53.09,56.66,56.22s-13.28,8-15.29,16.37L25.13,69.44l0-.28,15.58-4.53-16-10.44H37l-5.22-9.54,12.09,4.53L32.92,28.05Z"/></g></g></svg>