<svg xmlns="http://www.w3.org/2000/svg" viewBox="0 0 135.33 135.33"><defs><style>.cls-1{fill:none;stroke:#fff;stroke-miterlimit:10;stroke-width:3px;}.cls-1,.cls-3{opacity:0.7;}.cls-2{fill:#fff;}</style></defs><title>rest</title><g id="Слой_2" data-name="Слой 2"><g id="Слой_8" data-name="Слой 8"><circle class="cls-1" cx="67.67" cy="67.67" r="66.17"/><path class="cls-2" d="M60,54.36a22,22,0,0,0-8,11.85c-.23.78-.18,1.82-.67,2.3-.88.85-2.23,2-3.12,1.85s-2.31-2-2.16-2.85c1.46-7.8,5.08-14.32,12-18.61,1.33-.83,2.48-.57,3.69.57,4.22,3.94,9.3,4,13.49,0a2.93,2.93,0,0,1,4.12-.36C86,53.4,89.54,59.7,91.1,67.23a2.58,2.58,0,0,1-2.17,3.27c-2,.39-3-.78-3.43-2.6a22.87,22.87,0,0,0-5.81-11.33c-.61-.63-1.3-1.17-2.25-2-.1,1-.21,1.58-.22,2.18a63.44,63.44,0,0,1-.06,7.3A15.37,15.37,0,0,0,81.55,77.3c2.15,2.22,2.24,4.56,1,7.35C81,88.37,79.77,92.25,78.32,96c-1,2.67-2.86,3.66-5,2.82-2-.78-2.81-2.76-1.93-5.28q1.74-4.93,3.65-9.8a3,3,0,0,0-.45-3.55,26.28,26.28,0,0,1-2-2.75c-2.25-3.14-5.33-3-7.88-.16-2.85,3.13-3.22,6.11-1.25,9.78a41.84,41.84,0,0,1,2.45,6.61c.85,2.54,0,4.46-2.11,5.19s-3.92-.24-4.87-2.76c-1.63-4.33-3.36-8.63-4.7-13-.41-1.33-.22-3.53.64-4.44,4.73-5,6-10.84,5.24-17.44A66.9,66.9,0,0,1,60,54.36Z"/><g class="cls-3"><path class="cls-2" d="M52.84,84.43H27.45c0,3.45.08,6.59,0,9.72a3,3,0,0,1-3.05,3.13c-1.9,0-2.94-1.2-3.18-3a15.83,15.83,0,0,1,0-1.95q0-7.41,0-14.83,0-14.35,0-28.71c0-2.55,1.3-4.06,3.26-4s3,1.49,3,3.95c0,9,0,18-.1,27,0,1.9.43,2.54,2.41,2.51,6.89-.11,13.79,0,20.68,0h2.38Z"/></g><g class="cls-3"><path class="cls-2" d="M109.73,84.51H84.29V78.28h25.43c0-2.54,0-4.85,0-7.16a28,28,0,0,1,.08-3.89,2.84,2.84,0,0,1,3-2.65,2.88,2.88,0,0,1,3.07,2.54A10.6,10.6,0,0,1,116,69.3q0,11.7,0,23.39a14.29,14.29,0,0,1,0,1.46c-.2,1.85-1.17,3.13-3.09,3.12S109.77,96,109.74,94C109.69,91,109.73,88,109.73,84.51Z"/></g><path class="cls-2" d="M68.32,51.28a8.43,8.43,0,1,1,.5-16.86,8.43,8.43,0,0,1-.5,16.86Z"/><g class="cls-3"><path class="cls-2" d="M78.6,70.22c2.7.18,5.45-.82,8.11,1a3.28,3.28,0,0,0,3,.13c2.16-1.48,4.48-1.13,6.79-1.15,2.67,0,5.35-.06,8,0,2.24.09,3.56,1.4,3.38,3.28-.19,2-1.5,2.94-3.47,2.94-6.89,0-13.78-.06-20.67,0-1.93,0-2.39-1.38-3.25-2.46S79,71.91,78.3,70.86Z"/></g><g class="cls-3"><path class="cls-2" d="M58.94,70.83c-1.17,1.63-2.26,3.32-3.56,4.83a3.07,3.07,0,0,1-2.13.73q-10.08.08-20.17,0c-2.58,0-3.77-1.07-3.69-3.12.09-2.25,1.18-3,4-3s5.67-.26,8.49-.12c1.78.1,3.51.81,5.3,1.07,1.07.16,2.47.41,3.24-.11,2.68-1.79,5.45-.62,8.15-1.06Z"/></g><g class="cls-3"><path class="cls-2" d="M68.68,84.49c-1.22,0-2.44.05-3.65,0-1.77-.1-2.78-1.78-1.76-3.2s1.36-3.22,3.63-3.11c2.61.12,5.36-.58,6.84,2.69,1,2.09.39,3.55-1.89,3.63C70.79,84.52,69.74,84.49,68.68,84.49Z"/></g></g></g></svg>