<svg xmlns="http://www.w3.org/2000/svg" viewBox="0 0 55.96 55.96"><defs><style>.cls-1{fill:none;stroke:#fff;stroke-miterlimit:10;stroke-width:2px;}.cls-2{fill:#fff;}</style></defs><title>Ресурс 3edef</title><g id="Слой_2" data-name="Слой 2"><g id="Слой_8" data-name="Слой 8"><circle class="cls-1" cx="27.98" cy="27.98" r="26.98"/><path class="cls-2" d="M19.42,43.48c-3.77,0-6.51-2.69-7-6.79a11.49,11.49,0,0,1,7.85-11.58c4.81-1.32,8.94,1.73,9.23,6.8a11.37,11.37,0,0,1-8.82,11.43C20.29,43.43,19.85,43.43,19.42,43.48Zm-.27-10.56-.42-.29a12.39,12.39,0,0,1,1.12-1.94,1.46,1.46,0,0,1,1.9-.27,1,1,0,0,0,.85-.34c.39-.65-.06-1-.62-1.26a2.89,2.89,0,0,0-3.26.74,3.57,3.57,0,0,0-1.24,3.66,1,1,0,0,0,.86.56C18.67,33.67,18.88,33.22,19.15,32.92Z"/><path class="cls-2" d="M46.91,33.47a26.87,26.87,0,0,1-1.19,4.22c-2,4.5-7.06,5.56-10.87,2.4a11,11,0,0,1-2.93-12.3c2.26-5.25,8.2-6.14,12-1.8a11,11,0,0,1,2.76,7.41ZM34.77,30.58a4.37,4.37,0,0,0,1.7,3.48,1.21,1.21,0,0,0,1.11,0c.43-.3.29-.76-.08-1.12a3.7,3.7,0,0,1-.48-.49,2.46,2.46,0,0,1,.31-3.65,1.1,1.1,0,0,0,.18-1,1.07,1.07,0,0,0-1-.23A3.13,3.13,0,0,0,34.77,30.58Z"/><path class="cls-2" d="M31.13,20.7l-3.51,2.48a1.14,1.14,0,0,1-.57.16c-5.15-.15-10.18-2-12.78-7.86-.54-1.22-.3-1.59,1-1.58A23.78,23.78,0,0,1,25,15.65,15.26,15.26,0,0,1,31.13,20.7Z"/><path class="cls-2" d="M32.69,20c-.91-1-1.78-1.91-2.64-2.85a1.5,1.5,0,0,1-.33-.5A23.47,23.47,0,0,1,28.15,8.8c0-1.06.43-1.35,1.42-1a9.27,9.27,0,0,1,5.74,10.61,1,1,0,0,1-.48.6C34.13,19.38,33.4,19.66,32.69,20Z"/><path class="cls-2" d="M28.91,26.08l-1-1a21.65,21.65,0,0,1,7-4.3c2.28-.81,4.65-1.39,7-2.07a1.34,1.34,0,0,1,.35,0c.54-.05,1.13-.1,1.21.63s-.45.77-1,.86a29,29,0,0,0-11,4.11C30.65,24.79,29.82,25.43,28.91,26.08Z"/></g></g></svg>