<svg xmlns="http://www.w3.org/2000/svg" viewBox="0 0 43.95 60.86"><defs><style>.cls-1{fill:#ffdc00;}.cls-2{fill:#f4f4f4;}</style></defs><title>Ресурс 2</title><g id="Слой_2" data-name="Слой 2"><g id="Слой_8" data-name="Слой 8"><path class="cls-1" d="M5.4,22.26c1.61-1.89,4.63.44,9.4-1,4.95-1.49,4.79-4.18,7.87-4.18s2.54,2.51,7.58,4.12c5.27,1.68,8.67-.44,9.74,1.06S40,32,36.41,40.58,25.5,53.88,22.75,53.72s-8.82-3-14-13C5.46,34.28,3.79,24.16,5.4,22.26Z"/><path class="cls-2" d="M2.84,17.93c-.49.08.26.28-.32.13C2.59,17.93,2.68,17.83,2.84,17.93Z"/><path class="cls-2" d="M2.12,20.21C3,21.8,2.26,24,2.94,25.7c.06.21-.47,0-.31.44.79,1.66.69,4.36.55,6.52L3,32.56c0,.41.49.82.5,1.25-.08,0-.14-.11-.24,0,.28.06.26.74.48.88-.07.18-.27.21-.34.44l.35.18c.84.5.3,1.61.92,2.41-.07,0-.15-.1-.2,0,.79,1.31,1.34,3.06,2.2,4.46-.13,0-.33,0-.39.15.32-.06.62.35.87.71-.19.33.6.54.69,1.07H7.79c.49.16.12.58.63.64l-.1.34c.48-.1.08.59.44.74l.08-.06c.24.19.14.44.36.63l0,0c.46.45.46.91.75.69-.11.35-.46-.44-.6.09,1.49,1.55,2.83,3.25,4.35,4.74.07.27.15.41.1.55.19.11.63.5.9.5-.06,0,0,.22.05.31.2.36.57,0,.79.39-.2,0-.31,0-.36.15a3.09,3.09,0,0,1,1.2.57c-.09,0-.19,0-.25.06.56.06.64.59,1.09.67l-.25.08c.39.59.42-.23.79.22-.15,0-.16.07-.22.12.65,0,1.29.59,1.81.76a.14.14,0,0,0-.07.06,7.07,7.07,0,0,0,1.62.84c.16.18-.31.41.28.62.17-.36,1,.27.76-.34a3.69,3.69,0,0,0,.46.29,1.58,1.58,0,0,0,.74-.41c-.12.25.43.33.07.58,0,0,.4.06.41.05,0,.18-.36.14-.16.28.25-.16.69-.62.9-.67.22-.43.28-1,.79-1.43-.16.31.4.28.27.46l.31-1.17c.16-.14.23.24.41,0-.07-.08,0-.21,0-.34s.66-.61,1-.34c.17.07-.24.27,0,.25.33-.24.25-.37.56-.62l0,0c.25-.12.51-.62.14-.62-.15.1.21.15-.08.22,0-.3.33-.63.62-.9-.06.14,0,.22,0,.34A5.93,5.93,0,0,1,29.41,52c-.13-.15.07.42-.06.4.73-.33.89-1.34,1.6-1.51-.05.1-.23-.15-.19-.12.27-.25.46,0,.55-.28.13.1.17-.25.3-.47s.11,0,0,.18a5.75,5.75,0,0,1,1.53-2c-.1-.06,0-.63.09-.76l.16.21c.22,0,.34-.49.53-.38,0-.5-.68,1.34-.55.78.25,0,.11-.83.32-.53.21-.3.18-.74.59-.88-.1.06.11.45.27.2.24-.46,0-.19.14-.59l.05-.28c-.2-.15.28-.36-.06-.35.21,0,.29-.69.62-.43l.24.23c.1-.2-.1-.49-.15-.71,0,0,.13,0,.17,0-.42-.28.28-.45.07-.86.38-.32.56-1,.91-1.09a1.59,1.59,0,0,1,.23-1.07c0,.09,0,.19.07.25.23-.17.14-.28.15-.52.06.09.45-.38.71-.6,0-.39-.32-.36-.46-.45.56-.15,0-1.07.56-1.32,0,.14.07.58.28.33.57-.16-.13-.74.26-1.18h-.43c.31-.15,0-.81.4-.64-.08-.21.3-.56-.1-.62.53-.76.31-2.1,1.13-2.46,0-.13.11-.42-.1-.41-.27.16.08.32-.09.36,0-.11-.08-.16-.13-.18.15-.24.23-.45.49-.12.38-.55-.49-.75-.21-1.48.16.07.23,0,.24-.2L39.32,32c.15-.48.41-.21.69-.17,0-.27.07-.59-.11-.75l.4-.26c-.29.19-.12-.24-.17-.38l0,.14c.12,0,.11-.35.1-.51-.18,0-.3.31-.38.47-.1-.15,0-.36-.14-.56.25.1.27-.4.33-.6s-.21-.31-.19-.38.08-.39.25-.17-.16.16-.06.32c.13-.14.37-.09.23-.45s-.54,0-.31-.46c.06.14.16.17.25.29l.19-.43-.24,0c.07-.05.09,0,.12,0-.24-.17,0-.69-.27-.83,0-.22.23-.44.29-.65l0,0a.78.78,0,0,0,0-.84l0,0a1,1,0,0,0-.1-.68c.21-.34.94,0,.67-.46,0-.37-.41-.61-.58-.48.23-.64-.11-1.42.3-2-.09-.1-.16-.05-.21-.24a3.68,3.68,0,0,0,0-.74,3.23,3.23,0,0,0,0-.34v-.14c0-.18,0-.31.26-.65.1.07.25-.15.39-.26-.22,0,.24-.36-.15-.1a1.6,1.6,0,0,0-.43.46A.24.24,0,0,1,40.5,20a.6.6,0,0,1-.19,0,.22.22,0,0,1-.2-.19c0,.11-.07.17-.14.23.19-.34,0-.41-.18-.3l0,.22,0-.12-.1-.12c-.13.06-.18.45-.49.21a.41.41,0,0,0-.08-.24c-.36.16-.87.38-1.23.15l-.26-.36c-.16,0-.45.17-.19.3-.61-.28-1-.36-1.18-.66a7.44,7.44,0,0,1-4,.1l.07-.16c-.32-.2-.22.26-.44.11.13-.13-.21-.37.09-.52-.45-.24-.67.19-1,.22-.09.21.28-.1.17.16-.06.09-.66-.28-.81,0-.11-.15,0-.36.14-.47l-.35.07c-.28-.46,1-.45.69-1l-.28,0c-.18-.4.79-.2.14-.48-.32.08-.68.48-.45.68-.65-.07-.47.68-1.17.48-.14-.23.57.1.51-.19-.26-.34-.7,0-1-.19.29.2-.08.46-.31.43-.3-.28.32-.21-.16-.43-.14.15-.65.11-.29.38-.33.33-.48-.3-.88-.1,0-.34.77-.45.29-.79,0,.3-.82.1-.71.6-.18-.16-.1-.37.12-.47-.22-.29-.94.11-.78-.44l-.23.21c-.05-.14-.15-.27-.22-.48-.25-.12-1-.11-.75-.48-.1,0-.64-.39-.6,0,.25.38.52.06.49.54-.07-.45-.52-.29-.79-.33l.06-.16c-.16,0-.41-.24-.6-.14a.14.14,0,0,0,.1-.24l-.27.11c-.55-.27.17-.45-.33-.75l.47.11c-.1,0-.1-.33-.36-.44-.3.07-.4.35-.51.51s.12-.26,0-.05a1,1,0,0,1,.18-.22c.06,0,.16-.39,0-.49s-.22.36-.21.55a.85.85,0,0,1,0-.4c-.08,0-.05.31-.1.46v-.14a1.06,1.06,0,0,0-.16-.53,4.37,4.37,0,0,1,.08-.59l-.1.08c.11-.51-.11-.21-.06-.69-.11,0-.22.27-.28.43.21.17.16.45.16.67a1.15,1.15,0,0,0,.14.65c0,.05-.05,0-.1-.07s-.22-.12-.31-.19-.41-.15-.51.4c.18,0,.08.55.4.16-.42.22,0,.61-.58.74.24-.39-.64-.19-.3-.74.06.16.34-.09.39-.18-.27-.05-.25-.42-.64-.17-.21.19-.54.41-.36.6s.36-.26.36.08c-.45.39-.75.07-.71.63a.4.4,0,0,1,.63.14L19.9,17l0-.21c-.67.25,0,.41-.64.69l-.46-.18c0-.36.94-.33.58-.73-.39.18-.4.48-.83.55.06-.08.17-.15.23-.23-.15.05-.59-.49-1,.15-.21.28,0,.2.08.38-.61.35-.74.59-1.15.8-.05-.39-.76.26-.43-.29.29.13,1.23-.28,1.31-.7-.42-.3.51-.19.44-.67-.5.24-.66-.17-.86-.39-.14,0-.22.2-.28.28.05.27.23.19.36.44a2.19,2.19,0,0,0-1.3.9.23.23,0,0,1-.06-.44,6.79,6.79,0,0,1-2.08.61c.54.31-.71.32-.33.59.38,0,.78.21.62.47-.23,0,0-.2-.16-.26-.23.33-.54-.25-.73.17.61-.27,0-.56,0-.92-.41.28,0-.24-.48-.16a6.26,6.26,0,0,1-1.42.7c-.69-.21-1.6.3-2.17.4-.32-.14-.18-.55-.51-.58s.34.39-.25.27l.05-.08c-.16.11-1-.16-1.16.43l.13-.45c-.11,0-.19.08-.28.13,0-.13-.15-.24,0-.35-.37-.26-.71.12-1.08.17l.26.23c-.62.28-1.08,0-1.69.16v-.25l-.36.17c.08-.25-.26-.38-.45-.17L4.79,18c.27.13-.27.32-.09.55a.58.58,0,0,0,.8-.13c-.22,0-.23,0-.39.13-.1-.34.24-.34.38-.58-.11,0-.28-.07-.3,0A1.44,1.44,0,0,1,6,17.72c-.24.16.15.2.06.31,0-.31.35-.44.81-.4.37.31.84-.32,1.37-.28a1.79,1.79,0,0,1-.73.76c.35.12.37-.05.73.07.13-.25.2-.61.61-.79l.06.22c.37-.16.32-.51.82-.54.86,0,1.73-.21,2.37-.3l.08.22c.26-.53,1.15-.4,1.54-.77a3.74,3.74,0,0,0,1.2-.32,1.22,1.22,0,0,1,.92-.22c1.29-.67,2.28-1.45,3.57-2.17l0,.41c.09-.34.25.06.44-.12-.4-.05.1-.5.13-.77.8-.24,1.63-1.36,2.34-2.36l0,.3a.35.35,0,0,1,.06-.09c.63.17,1.4,1.62,2.05,2.23,0,.13,0,.37.16.49a3.58,3.58,0,0,1,1.28.2,10.91,10.91,0,0,1,1.18.93,5.11,5.11,0,0,1,.59.13,5.41,5.41,0,0,1,.58.12,11.16,11.16,0,0,1,1.12.35,9.7,9.7,0,0,0,2.38.36l.08.28c1.75-.33,3.7.46,5.14.37l-.19.43c.43.2,1,0,1-.31.43.19,1.13-.06,1.37.34.46.12.54-.17,1-.2a16.42,16.42,0,0,0,3.62.37l-.34,0c-.25.07-.42.25-.1.31.49-.2.31.44.36.75s.09.52.36.08a12.78,12.78,0,0,0-.09,2.7v.5c0,.13,0,.27,0,.4a1.9,1.9,0,0,1-.2.75c.15-.08.17.16.26.27,0,.84-.43,1.69-.24,2.38-.08.13-.23-.23-.27.1s.19,0,.25.28c.16,1.39-.62,2.71-.7,3.94a32.64,32.64,0,0,1-1.1,6.53l-.1,0c.23.8-.81,1.5-.34,2.22-.15.14-.25.6-.41.42.11.63-.76,1.43-.66,2.33a.33.33,0,0,0,0-.22c-.51.71-.34,1.52-.94,2.27,0-.1,0-.27-.06-.33-.33.23.09.94-.47.9-.07.18.19.24.22.12-.45.88-1,1.76-1.37,2.71s-.92,1.86-1.51,2.7c-1.13,1-.76-.47-1.14.69-.14,0,.12.18,0,.12-.17.43-.89.15-.88.55.33.12,0,.27.15.41-.73.54-1.07.46-1.37,1.12l-.09-.15c-.2.93-1.06,1.4-1.2,2.26a47.21,47.21,0,0,1-3.94,3.45c-.67.53-1.37,1-2.08,1.54l-1.11.74c-.68.39-1.37.78-2.07,1.15a25.71,25.71,0,0,1-2.4-1c-.46-.21-.9-.45-1.34-.69a31.8,31.8,0,0,1-9.84-8.84,3.26,3.26,0,0,0-1.15-2c.08,0,.14,0,.15-.06-.33.17-.49-.64-.84-.53-.84-1.43-1.7-2.69-2.45-4.21.16.22.48.2.32-.07l-.36-.19.06-.09c-.14-.17-.42-.31-.42-.06a19.45,19.45,0,0,1-2-6.15c-.37-2.07-.55-4.11-.88-6.11a21,21,0,0,0-.45-3.34,47.58,47.58,0,0,0,.07-9A2.34,2.34,0,0,1,2.12,20.21Z"/><path class="cls-2" d="M3.43,17.88c.11.18.46.26.19.52C3.58,18.23,3.39,18.05,3.43,17.88Z"/><path class="cls-2" d="M13,18.56s.15.05.19.07c-.12,0-.19.21-.31.14C13,18.73,13,18.65,13,18.56Z"/><path class="cls-2" d="M15.49,18c0,.17-.48.45-.79.56Z"/><path class="cls-2" d="M18,17.72c.25,0,.23.12,0,.25C17.9,17.9,18,17.82,18,17.72Z"/><path class="cls-2" d="M18,17.31a.49.49,0,0,1,.44,0C18.34,17.17,18,17.59,18,17.31Z"/><path class="cls-2" d="M22.05,15.4s0-.2.05,0C22.06,15.27,22.12,15.65,22.05,15.4Z"/><path class="cls-2" d="M22.33,15.14s0,0,0,0a.35.35,0,0,1-.1.19Z"/><polygon class="cls-2" points="37.87 38.61 37.86 38.36 38.01 38.44 37.87 38.61"/><path class="cls-2" d="M28.4,52.76c-.11.24-.22,0-.27,0C28.28,52.61,28.2,53,28.4,52.76Z"/><polygon class="cls-2" points="21.27 57.39 21.33 57.42 21.16 57.7 21.27 57.39"/><path class="cls-2" d="M.18.05C-.09-.14,0,.29.08.66H.64Z"/><path class="cls-2" d="M1.05,1.53,1.93,2l-.54-.39c-.19-.71.46-.21.68,0C1.34.67,1.37,1.53,1.05,1.53Z"/><path class="cls-2" d="M2.32,2.73c.28.48.45.17.4-.07C2.59,2.7,2.27,2.48,2.32,2.73Z"/><polygon class="cls-2" points="17.53 33.13 17.63 33.21 17.57 33.12 17.53 33.13"/><path class="cls-2" d="M16.31,21.34c-.49-.47-.52-.85-.88-1.34l.2-.49c-.4-.52-.42-.09-.82-.42a6.38,6.38,0,0,0-1-1.88c.07-.27.33.09.48.13-.48-.61-.78-.4-1.24-1.21l.09-.07c-1.52-1.74-2.9-4.24-4.46-6.22.07.15,0,.16,0,.26C7.16,7.93,5.5,5.37,3.59,4.15c.89,1.11,1.63,3.48,3,4.32.06.6.84,1.08.63,1.47.9,1.86,1.91,2.23,2.93,3.93.09.29-.15.26-.26.42L8.92,13l.35.91c-.36-.27-.76-1.2-1.12-1.13,1.06,1,1.9,3,2.87,3.83a18,18,0,0,0-.91-1.7c0-.31-.2-.74,0-.81,1.44,1.37,1.92,2.93,3,4.56.27.41.56,1,.44,1.17-.21-.26-.23,0-.44-.16.47.55.64-.25,1,.68l-.62.18c.78.05.44,1.15,1.11,1.61-.12.35-.46,0-.72-.49.18.6.53.48.74.94L14,22.44c.7.24.33.9.31,1.23.13,0,.38-.45.65.16.06.28-.13.22-.17.3a.75.75,0,0,1,.67.47c-.12.16-.37-.14-.56-.08a1.32,1.32,0,0,1,.28.8c.4.45.22-.15.56.08.28.86-.53.35-.73.81-.54-.49-1-1.22-1.28-1.48l.7,1.08c-.23,0,.06.94-.43.43a15.67,15.67,0,0,0,1.86,3.59c0-.19-.05-.41.09-.43.37.53.1.57,0,.75.33.37.64.18,1,.33.11,1,.35,1.06.24,2l.32-.19c-.06.66.49.53.53,1.19-.06.07-.24-.12-.39-.27.31.48-.1.59.23,1L17.32,34c.18.4.53.94.12.86.67.55,1,1.84,1.58,2.64l-.32,0c.52.33.58,1.71,1.15,2l-.1.11.73.78a.34.34,0,0,1-.25.43A11.84,11.84,0,0,1,20.72,42l.16.53,0,.12,0,.06v.06h0l2.28.36h0l.18-.19c-.27-.4.27-1.37.6-2.15,2.09-3.64,2.36-7.94,3.2-11.49a12.73,12.73,0,0,0,.16-2.12c-.44.74-.28.91-.61,1.68-.34.54-.81.62-1.25,1.05l.43-.15c0,.91-.38.51-.25,1.26l-.54-.2c.21.31-.19.81-.4,1l.32.32c-.36.45-.55.77-.94.82l.37.05c-.28.13-.51,1.95-.95,1.19a.77.77,0,0,1,0,.65l-.37,0c0,.47-.12,1-.36,1a.72.72,0,0,0-.27-.52c-.64,1.85,1,.76.5,2.42l-.22-.1.09.5-.44.31c.51.9-1.06,2.06-1.25,3.08l0,.06,0,0v0h0c4.25.67,1.18.18,2.12.34h0l0-.18v-.44a2.63,2.63,0,0,0-.17-1.06l-.34.17c.15-.74-.46-3.16.13-4-.47-.5-.05.08-.32.17-.77-1-.3-1.29-.32-2-.45-.63.08.59-.33.32-.17-1.19-.77-.71-1.07-2.13.14-.21.27.29.45.38-.73-.79-1.17-2.64-1.87-4-.48-1.65-1.35-4-2-6l-.14,0c-.06-.9-.74-1.56-1-2.51Z"/><path class="cls-2" d="M7.58,12.65l-.19.29.64.67C8.07,13.16,7.78,13.11,7.58,12.65Z"/><polygon class="cls-2" points="8.51 12.33 8.14 12 8.55 12.64 8.51 12.33"/><path class="cls-2" d="M17.15,33.55c-.22-.12-.27-.4-.44-.55l.44.68Z"/><path class="cls-2" d="M18.65,41.14c.63.1.19.57.55,0C19,40.75,18.88,41.21,18.65,41.14Z"/><path class="cls-2" d="M20,42.55a1,1,0,0,0-.34-.5C19.57,42.48,19.85,42.4,20,42.55Z"/></g></g></svg>