<svg xmlns="http://www.w3.org/2000/svg" xmlns:xlink="http://www.w3.org/1999/xlink" viewBox="0 0 119.98 119.98"><defs><style>.cls-1{fill:none;}.cls-2{fill:#43a2dd;}.cls-3{clip-path:url(#clip-path);}</style><clipPath id="clip-path"><circle class="cls-1" cx="59.99" cy="59.99" r="58.49"/></clipPath></defs><title>slepee</title><g id="Слой_2" data-name="Слой 2"><g id="Слой_8" data-name="Слой 8"><path class="cls-2" d="M60,120a60,60,0,1,1,60-60A60.06,60.06,0,0,1,60,120ZM60,3a57,57,0,1,0,57,57A57,57,0,0,0,60,3Z"/><g class="cls-3"><path class="cls-2" d="M44,82.56C38.74,88,35.5,94.2,36.1,101.86c.18,2.23-.48,17.19-2.68,17a42.61,42.61,0,0,0-5.65,0c-2,.1-2.76-14.91-2.84-16.94-.38-9.79,3-18.15,9.44-25.37a26.72,26.72,0,0,1,4.84-4.73c2.25-1.5,4.77-3,7.37-3.51,3.51-.62,7.2-.34,10.81-.2.76,0,1.76,1,2.16,1.86,3.35,6.73,6.39,13.63,9.92,20.27,1.71,3.21,4.29,6,6.43,9a6.11,6.11,0,0,1,1.28,2.49c.37,2.73.08,17.15-2.69,17.15H46.92c-2.81,0-2.94-14.31-3-17.09C44,95.44,44,89.12,44,82.56Z"/><path class="cls-2" d="M82.4,86.24,73.94,68.76c2.86-1.31,5.81-.81,7.39,1.49,4.4,6.41,8.47,13,10,20.82.9,4.67-1.76,9-6,10-3.06.69-5.61-.41-7.85-2.45-4-3.62-6.64-8.19-8.92-12.93-3.35-7-6.47-14.08-9.51-21.2-1.69-4,.19-7.44,4.05-8.12,2.68-.47,5,1,6.27,4,2.17,5.05,4.27,10.13,6.6,15.1,1.76,3.77,3.82,7.39,5.75,11.08Z"/><path class="cls-2" d="M71.66,61.67c-.43-.9-.76-1.63-1.11-2.36a7.14,7.14,0,0,0-6.07-4.43,5.61,5.61,0,0,1-2.64-1c-2.27-1.66-4.71-1.25-5.55,1.44a12.36,12.36,0,0,0,0,5.21,38.74,38.74,0,0,0,1.32,5c-5.34.49-11.83-5.83-13.32-12.69-1.78-8.2,3-16.37,11.24-19.26A16.75,16.75,0,0,1,75.62,42C79,48.66,77.23,57.93,71.66,61.67Zm-8.6-13.48a3.85,3.85,0,0,0,5.82,0Zm-12.8,0a3.33,3.33,0,0,0,5.38,0Z"/><path class="cls-2" d="M75.24,33.16c.3-1.62,1-2.79,2.82-2.67,1.62.1,2.72,1,2.64,2.73A2.46,2.46,0,0,1,78,35.87,2.68,2.68,0,0,1,75.24,33.16Z"/><path class="cls-2" d="M82.52,23.65c-.13,1.76-1.2,2.93-2.73,2.6a4.85,4.85,0,0,1-2.92-2.49c-.5-1.1,1.51-2.83,2.91-2.76A2.68,2.68,0,0,1,82.52,23.65Z"/><path class="cls-2" d="M83.84,29.46c.21-1.8,1.16-2.71,2.86-2.64a2.36,2.36,0,0,1,2.53,2.58,2.56,2.56,0,0,1-2.68,2.76A2.73,2.73,0,0,1,83.84,29.46Z"/><path class="cls-2" d="M85.58,37.2c1.58.18,2.54,1,2.5,2.63a2.4,2.4,0,0,1-2.7,2.63,2.33,2.33,0,0,1-2.51-2.58C82.85,38.1,83.94,37.36,85.58,37.2Z"/></g></g></g></svg>