<svg xmlns="http://www.w3.org/2000/svg" viewBox="0 0 119.98 119.98"><defs><style>.cls-1{fill:#43a2dd;}</style></defs><title>snail</title><g id="Слой_2" data-name="Слой 2"><g id="Слой_8" data-name="Слой 8"><path class="cls-1" d="M60,120a60,60,0,1,1,60-60A60.06,60.06,0,0,1,60,120ZM60,3a57,57,0,1,0,57,57A57,57,0,0,0,60,3Z"/><path class="cls-1" d="M26.67,43.77a39.24,39.24,0,0,1,2.46-5.34c1.32-2,3.5-3,5.9-3.69V26.27h4.16v8.14l4.23.74V26.26h4.19V29c0,1.34.06,2.69,0,4-.16,2.71,0,5.12,2.08,7.38,1.3,1.45,1.67,3.72,2.48,5.67a23.39,23.39,0,0,1,9.44-7.46A22,22,0,0,1,74,37l-.47,3.68c-2.47.26-4.85.31-7.15.79A18.52,18.52,0,0,0,52.17,56.61a7.32,7.32,0,0,0,.57,3.62c.83,2,2,4,3,5.91l.49-.15c.12-.45.24-.9.35-1.35C58.36,57,66.5,51.9,73.61,53.88a10.39,10.39,0,0,1,7.47,11.69,7.11,7.11,0,0,1-3.62,5.2,12.13,12.13,0,0,1-6.53,1.48V68.34a33.3,33.3,0,0,0,3.44-.71A3.63,3.63,0,0,0,77,63.24c-.59-4.23-4.42-6.47-9-5.25a10.52,10.52,0,0,0,3,20.68A19,19,0,0,0,88.34,52.8c-.09-.24-.16-.47-.3-.89l3.54-1.67c3.77,6.53,3.72,20.42-7.81,28.68a32.58,32.58,0,0,1,8.9,14.42H31.15a8.68,8.68,0,0,1,.6-1.13c2.11-2.83,4.19-5.68,6.36-8.46a1.89,1.89,0,0,0,.2-2.24c-1.38-3.39-2.82-6.77-3.88-10.27-1.51-5-1.53-10.19-1.49-15.37,0-.48-.13-1.23-.44-1.4a11.43,11.43,0,0,1-5.83-8Zm10.46,7.86c0,1.74,0,3.38,0,5a45.12,45.12,0,0,0,6.23,25.54,1.94,1.94,0,0,1-.18,1.66C42,85.59,40.68,87.26,39.36,89h47a23.19,23.19,0,0,0-5.87-7.42,2.36,2.36,0,0,0-1.69-.23c-1.4.28-2.76.79-4.17,1.07-8,1.63-14.74-2.07-17.77-9.71a3.79,3.79,0,0,0-1.2-1.42c-4-3.24-6.82-7.31-7.46-12.47-.46-3.73-.36-7.53-.45-11.31-.11-4.08-2.13-7.31-5.79-8.28a15.58,15.58,0,0,0-6-.3,6,6,0,0,0-5,5.7A6.28,6.28,0,0,0,35.18,51C35.78,51.19,36.4,51.38,37.13,51.63Z"/><path class="cls-1" d="M86.4,42.72l3,3.36-3.32,2.49L83.6,45.79Z"/><path class="cls-1" d="M77.14,41.88,78.55,38l4.12,1.94-2.14,3.55Z"/><path class="cls-1" d="M37.13,51.63c-.73-.25-1.35-.44-2-.66a6.28,6.28,0,0,1-4.28-6.31,6,6,0,0,1,5-5.7,15.58,15.58,0,0,1,6,.3c3.66,1,5.68,4.2,5.79,8.28.09,3.78,0,7.58.45,11.31.64,5.16,3.42,9.23,7.46,12.47a3.79,3.79,0,0,1,1.2,1.42c3,7.64,9.73,11.34,17.77,9.71,1.41-.28,2.77-.79,4.17-1.07a2.36,2.36,0,0,1,1.69.23A23.19,23.19,0,0,1,86.32,89h-47c1.32-1.77,2.62-3.44,3.81-5.18a1.94,1.94,0,0,0,.18-1.66,45.12,45.12,0,0,1-6.23-25.54C37.18,55,37.13,53.37,37.13,51.63Zm-2-8.57V47h4V43.06Z"/></g></g></svg>