<svg xmlns="http://www.w3.org/2000/svg" viewBox="0 0 118.72 858.88"><defs><style>.cls-1{fill:#43a2dd;}.cls-2{fill:#22627c;}</style></defs><title>sprite2_1</title><g id="Слой_2" data-name="Слой 2"><g id="Слой_8" data-name="Слой 8"><path class="cls-1" d="M59.36,117.87a58.51,58.51,0,1,1,58.51-58.51A58.57,58.57,0,0,1,59.36,117.87Zm0-114.09A55.59,55.59,0,1,0,115,59.36,55.64,55.64,0,0,0,59.36,3.78Z"/><path class="cls-1" d="M59.36,118.72a59.36,59.36,0,1,1,59.36-59.36A59.43,59.43,0,0,1,59.36,118.72Zm0-117A57.66,57.66,0,1,0,117,59.36,57.73,57.73,0,0,0,59.36,1.7Zm0,114.1A56.44,56.44,0,1,1,115.8,59.36,56.5,56.5,0,0,1,59.36,115.8Zm0-111.17A54.74,54.74,0,1,0,114.1,59.36,54.79,54.79,0,0,0,59.36,4.63Z"/><path class="cls-1" d="M59.36,302.91a58.51,58.51,0,1,1,58.51-58.51A58.58,58.58,0,0,1,59.36,302.91Zm0-114.1A55.59,55.59,0,1,0,115,244.4,55.65,55.65,0,0,0,59.36,188.81Z"/><path class="cls-1" d="M59.36,303.76a59.36,59.36,0,1,1,59.36-59.36A59.43,59.43,0,0,1,59.36,303.76Zm0-117A57.66,57.66,0,1,0,117,244.4,57.73,57.73,0,0,0,59.36,186.74Zm0,114.1A56.44,56.44,0,1,1,115.8,244.4,56.5,56.5,0,0,1,59.36,300.84Zm0-111.18A54.74,54.74,0,1,0,114.1,244.4,54.8,54.8,0,0,0,59.36,189.66Z"/><path class="cls-1" d="M59.36,488a58.51,58.51,0,1,1,58.51-58.51A58.58,58.58,0,0,1,59.36,488Zm0-114.1A55.59,55.59,0,1,0,115,429.44,55.65,55.65,0,0,0,59.36,373.85Z"/><path class="cls-1" d="M59.36,488.8a59.36,59.36,0,1,1,59.36-59.36A59.43,59.43,0,0,1,59.36,488.8Zm0-117A57.66,57.66,0,1,0,117,429.44,57.72,57.72,0,0,0,59.36,371.78Zm0,114.09a56.44,56.44,0,1,1,56.44-56.43A56.49,56.49,0,0,1,59.36,485.87Zm0-111.17a54.74,54.74,0,1,0,54.74,54.74A54.8,54.8,0,0,0,59.36,374.7Z"/><path class="cls-1" d="M59.36,673a58.52,58.52,0,1,1,58.51-58.51A58.58,58.58,0,0,1,59.36,673Zm0-114.1A55.59,55.59,0,1,0,115,614.48,55.65,55.65,0,0,0,59.36,558.89Z"/><path class="cls-1" d="M59.36,673.84a59.37,59.37,0,1,1,59.36-59.36A59.43,59.43,0,0,1,59.36,673.84Zm0-117A57.67,57.67,0,1,0,117,614.48,57.73,57.73,0,0,0,59.36,556.81Zm0,114.1a56.44,56.44,0,1,1,56.44-56.43A56.49,56.49,0,0,1,59.36,670.91Zm0-111.17a54.74,54.74,0,1,0,54.74,54.74A54.8,54.8,0,0,0,59.36,559.74Z"/><path class="cls-1" d="M59.36,858a58.52,58.52,0,1,1,58.51-58.51A58.58,58.58,0,0,1,59.36,858Zm0-114.1A55.59,55.59,0,1,0,115,799.52,55.64,55.64,0,0,0,59.36,743.93Z"/><path class="cls-1" d="M59.36,858.88a59.37,59.37,0,1,1,59.36-59.37A59.43,59.43,0,0,1,59.36,858.88Zm0-117A57.67,57.67,0,1,0,117,799.51,57.73,57.73,0,0,0,59.36,741.85Zm0,114.1a56.44,56.44,0,1,1,56.44-56.44A56.5,56.5,0,0,1,59.36,856Zm0-111.17a54.74,54.74,0,1,0,54.74,54.73A54.79,54.79,0,0,0,59.36,744.78Z"/><path class="cls-2" d="M47.82,103.92a9.82,9.82,0,0,1-1.09-.33,3.54,3.54,0,0,1-2.39-3.29A12.8,12.8,0,0,1,45,96.22q3.61-12.94,7.26-25.86a3.83,3.83,0,0,0,.14-1q0-10.12,0-20.24V47.73c-1.66.46-3.22.9-4.78,1.32-1.78.48-3.55,1-5.34,1.4a3,3,0,0,1-3.59-3.77,41.59,41.59,0,0,1,1.86-4.54c1.56-3.42,3.18-6.81,4.76-10.22a3,3,0,0,1,3-1.85,3.09,3.09,0,0,1,2.87,2,2.76,2.76,0,0,1,.07,2.43c-1,2.33-2,4.67-3.06,7-.07.16-.13.32-.24.59L50,41.51,56,39.85a14.57,14.57,0,0,1,7.86.07L71,41.87c.17.05.34.08.6.13-.09-.23-.14-.41-.22-.58-1-2.31-1.94-4.65-3-6.93s1.15-4.61,3.18-4.44A2.81,2.81,0,0,1,74,31.54c2.23,4.81,4.41,9.64,6.59,14.48a3.18,3.18,0,0,1,.23,2.37,3,3,0,0,1-3.63,2.06C74.15,49.66,71.09,48.82,68,48l-.93-.24c0,.15,0,.27,0,.4Q67,59,67,69.86a2.7,2.7,0,0,0,.12.69q3.8,13.14,7.6,26.27c.2.68.35,1.37.52,2.06a3,3,0,0,1-.39,2.33,5.07,5.07,0,0,1-5.58,2.08A3.11,3.11,0,0,1,67,101.13c-.92-3.28-1.85-6.55-2.73-9.84-1.47-5.46-2.9-10.93-4.34-16.4,0-.13-.08-.25-.15-.5-.33,1.22-.63,2.32-.92,3.43L53,99.72c-.1.4-.24.78-.35,1.18a3.94,3.94,0,0,1-3.26,2.93l-.28.09ZM59.84,43H59.4c-.6,0-.65.08-.69.66-.06,1-.13,1.92-.19,2.87q-.39,5.81-.76,11.62a.55.55,0,0,0,.1.4c.51.59,1.06,1.15,1.59,1.72.21.24.41.22.63,0,.41-.44.82-.89,1.27-1.29a1.34,1.34,0,0,0,.44-1.25c-.14-1.75-.22-3.5-.33-5.26-.18-2.84-.36-5.68-.56-8.52C60.83,43,60.8,43,59.84,43Zm-1.62-2.63c.11.71.19,1.38.32,2a.47.47,0,0,0,.33.31c.72,0,1.43,0,2.18,0,.08-.64.15-1.22.22-1.81a.45.45,0,0,0-.5-.56Z"/><path class="cls-2" d="M52.7,31.71c-.37-3.66,3.5-7.12,7-7a7.07,7.07,0,0,1,7,7.13,7.17,7.17,0,0,1-7.18,7C55.75,38.81,52.41,35.27,52.7,31.71Z"/><path class="cls-2" d="M67.9,22.36l-1.25-.65s0-.06,0-.08c1-1.41,2-2.81,3-4.23a.44.44,0,0,1,.63-.17c.46.22.94.42,1.47.65L69,21.35l1.69.74L66,25.74l-.13-.12Z"/><path class="cls-2" d="M53.16,21.71l-1.37.61,2,3.21-.16.14L49,22.13l1.16-.57c.5-.23.51-.26.18-.68l-2-2.49-.35-.5c.59-.26,1.13-.51,1.68-.73.07,0,.23.09.3.18C51,18.78,52.08,20.22,53.16,21.71Z"/><path class="cls-2" d="M76.62,235.71q-9.9,24-19.81,47.94L29.6,272.36c.28-.72.54-1.38.81-2L49.09,225c.24-.59.28-.61.85-.37l26.18,10.82ZM55.39,248.85c-.07-.27-.12-.42-.15-.58-.25-1.3-.5-2.6-.73-3.9a.71.71,0,0,0-.51-.64c-1.26-.48-2.51-1-3.76-1.51-.12-.05-.24-.07-.42-.13,0,.24.07.41.11.58.59,2.47,1.16,5,1.78,7.42a.85.85,0,0,1-.41,1.09c-2.33,1.45-4.65,2.94-7,4.41l-.5.33a2,2,0,0,0,.29.18c1.29.54,2.57,1.09,3.87,1.62a.71.71,0,0,0,.51-.12q2-1.31,4-2.63a3,3,0,0,1,.44-.23c.05.21.09.35.12.49.3,1.54.6,3.07.89,4.6a.68.68,0,0,0,.46.58c1.16.45,2.31.93,3.47,1.4.23.1.46.18.76.29,0-.25-.07-.4-.1-.56-.64-2.79-1.28-5.59-1.94-8.38a.64.64,0,0,1,.32-.81c1.7-1,3.39-2.1,5.08-3.15l2.07-1.26-.47-.22-2.73-1.1c-1.57-.61-1-.64-2.4.24C57.48,247.49,56.47,248.15,55.39,248.85Z"/><path class="cls-2" d="M78,232l-26.69-11c.28-.14.43-.23.59-.3,2.52-1,5.05-2.1,7.57-3.17a1.2,1.2,0,0,1,1,0Q67.21,220.24,74,223a1.44,1.44,0,0,1,.84.85c1,2.53,2.09,5.05,3.14,7.58a2.83,2.83,0,0,1,.14.41Z"/><path class="cls-2" d="M75.49,209.14l-3.75,9.23-6.18-2.5c.19-.52.33-1,.51-1.4.73-1.82,1.48-3.63,2.21-5.45.1-.24.21-.38.48-.36l6.36.37A1.92,1.92,0,0,1,75.49,209.14Z"/><path class="cls-2" d="M75,216.36a1.22,1.22,0,0,1,1.15,1.24,1.18,1.18,0,0,1-1.14,1.19,1.31,1.31,0,0,1-1.23-1.23A1.34,1.34,0,0,1,75,216.36Z"/><path class="cls-2" d="M82.91,216.48a1.21,1.21,0,0,1,1.39,1.07,1.34,1.34,0,0,1-1.17,1.3,1.28,1.28,0,0,1-1.22-1.23A1.09,1.09,0,0,1,82.91,216.48Z"/><path class="cls-2" d="M79.41,217.25A1.22,1.22,0,0,1,78.24,216a1.13,1.13,0,0,1,1.16-1.13A1.32,1.32,0,0,1,80.58,216,1.23,1.23,0,0,1,79.41,217.25Z"/><path class="cls-2" d="M89.75,212.14a1.12,1.12,0,0,1-1.13,1.18,1.22,1.22,0,0,1-1.22-1.22A1.17,1.17,0,0,1,88.61,211,1.1,1.1,0,0,1,89.75,212.14Z"/><path class="cls-2" d="M88,219.1a1.13,1.13,0,0,1-1.12,1.2A1.37,1.37,0,0,1,85.62,219a1.18,1.18,0,0,1,1.2-1.09A1.24,1.24,0,0,1,88,219.1Z"/><path class="cls-2" d="M86.06,212A1.17,1.17,0,0,1,85,213.27a1.22,1.22,0,0,1-1.23-1.2,1,1,0,0,1,1-1.14C85.57,210.94,86.06,211.36,86.06,212Z"/><path class="cls-2" d="M80.42,223.94a1.25,1.25,0,0,1-1.15-1.2,1.24,1.24,0,0,1,1.23-1.17,1.59,1.59,0,0,1,1.17,1.19A1.35,1.35,0,0,1,80.42,223.94Z"/><path class="cls-2" d="M81.05,210.82A1.21,1.21,0,0,1,82.3,212a1.33,1.33,0,0,1-1.21,1.21A1.19,1.19,0,0,1,80,211.92,1.08,1.08,0,0,1,81.05,210.82Z"/><path class="cls-2" d="M83.12,224.17a1.24,1.24,0,0,1,1.22,1.26,1,1,0,0,1-1.07,1.07A1.19,1.19,0,0,1,82,225.44,1.24,1.24,0,0,1,83.12,224.17Z"/><path class="cls-2" d="M77.41,210.82a1.08,1.08,0,0,1,1.13,1.11,1.21,1.21,0,0,1-1.17,1.21A1.27,1.27,0,0,1,76.21,212,1.21,1.21,0,0,1,77.41,210.82Z"/><path class="cls-2" d="M76.64,220.2a1.26,1.26,0,0,1,1.1-1.2,1.19,1.19,0,0,1,.06,2.37A1.18,1.18,0,0,1,76.64,220.2Z"/><path class="cls-2" d="M55.51,468.37C53.2,468,51.62,466.52,50,465q-13.71-13.63-27.49-27.21a6.89,6.89,0,0,1,2.3-11.56l29.81-11.93.82-.35a6.22,6.22,0,0,1-.72-4,5.81,5.81,0,0,1,1.61-3.06c1-1.05,2.08-2.1,3.14-3.14a5.65,5.65,0,0,1,8.2,0c2.3,2.25,4.56,4.55,6.84,6.83L85.08,421a5.71,5.71,0,0,1,0,8.62l-2.79,2.78a5.69,5.69,0,0,1-7,1.13l-.37-.17c-.75,1.87-1.49,3.7-2.22,5.53q-4.9,12.29-9.79,24.58a7,7,0,0,1-5.51,4.76.58.58,0,0,0-.18.11Zm1.15-4.58a2.22,2.22,0,0,0,1.85-1.55c.8-2,1.59-4,2.39-6Q65,446,69.07,435.83a.86.86,0,0,0-.22-1.11A26.27,26.27,0,0,0,62.68,430c-3.85-2.1-8.07-2.81-12.34-3.33A54.61,54.61,0,0,1,40.85,425a1.62,1.62,0,0,0-.94.1l-13.2,5.28c-2.16.87-2.52,2.65-.86,4.3l15.47,15.3q6.54,6.46,13.08,12.94A2.76,2.76,0,0,0,56.66,463.79Zm16.56-38.37c.24.22.42.38.58.54l3.2,3.19c.82.82,1.35.81,2.18,0s1.87-1.85,2.79-2.78a1.21,1.21,0,0,0,0-2q-8.7-8.73-17.42-17.43a1.17,1.17,0,0,0-1.92,0c-.8.78-1.59,1.58-2.38,2.37-1.46,1.46-1.46,1.64,0,3.1l3.18,3.18-19.2,7.7a.54.54,0,0,0,.37.24c3.26.48,6.52.93,9.77,1.44a27.37,27.37,0,0,1,13.77,6c.69.59,1.35,1.2,2.08,1.84Z"/><path class="cls-2" d="M93.61,401.47c-.06.21-.13.41-.18.61a5.71,5.71,0,1,1,0-2.65c0,.21.12.41.18.61Zm-2.28-.72a3.46,3.46,0,1,0-3.44,3.46A3.45,3.45,0,0,0,91.33,400.75Z"/><path class="cls-2" d="M89,413.34a2.27,2.27,0,1,1-2.31-2.25A2.3,2.3,0,0,1,89,413.34Z"/><path class="cls-2" d="M91.33,400.75a3.46,3.46,0,1,1-3.46-3.45A3.43,3.43,0,0,1,91.33,400.75Z"/><path class="cls-2" d="M63.79,437.45a5.71,5.71,0,1,1-5.74-5.73A5.74,5.74,0,0,1,63.79,437.45Zm-2.25,0a3.46,3.46,0,1,0-3.51,3.4A3.44,3.44,0,0,0,61.54,437.48Z"/><path class="cls-2" d="M47.75,434a4.57,4.57,0,1,1-4.54-4.57A4.6,4.6,0,0,1,47.75,434Zm-4.57,2.3a2.31,2.31,0,1,0-2.3-2.33A2.29,2.29,0,0,0,43.18,436.3Z"/><path class="cls-2" d="M50.07,450a2.27,2.27,0,1,1,2.26-2.3A2.29,2.29,0,0,1,50.07,450Z"/><path class="cls-2" d="M65.8,604.43c.51-.56,1-1.06,1.41-1.55a.65.65,0,0,0,.09-1,10.33,10.33,0,1,1,10.14,4.57,9.9,9.9,0,0,1-6.27-1.08c-.41-.21-.63-.17-.9.19s-1,.89-1.09,1.4.48,1,.76,1.49a10.45,10.45,0,0,1-2.16,13.13.59.59,0,0,0-.14.9q3.12,5.47,6.2,11a.66.66,0,0,0,.86.36,10.33,10.33,0,1,1-7.94,10,10,10,0,0,1,3.3-7.55.62.62,0,0,0,.14-.91q-3.14-5.53-6.26-11.1c-.23-.41-.5-.41-.89-.33a10.44,10.44,0,0,1-11.63-5.67,9.85,9.85,0,0,1-1-5.7c.06-.53-.06-.75-.55-.94q-6.12-2.29-12.22-4.65a.75.75,0,0,0-1,.34A10.32,10.32,0,1,1,31,591.23a10.2,10.2,0,0,1,7.53,8.3,19.35,19.35,0,0,1,.08,3c0,.35.07.53.4.65,4.21,1.59,8.4,3.19,12.6,4.8.36.14.51,0,.71-.26a10.35,10.35,0,0,1,8.11-4.42,10.19,10.19,0,0,1,5,1ZM37.68,605.7c.31.14.59.28.88.39l13.65,5.2c.33.12.66.27,1,.36a.79.79,0,0,0,1.05-.46.81.81,0,0,0-.47-1.11,8,8,0,0,0-.81-.32l-12.08-4.61c-.86-.33-1.74-.65-2.63-1Zm33.79,29.48.68-.36c.8-.44.8-.44.34-1.27l-6.15-10.92c-.45-.8-.91-1.6-1.37-2.4-.27-.48-.65-.76-1.21-.49s-.59.72-.28,1.33c.05.1.12.19.17.29l5.56,9.86C70,632.52,70.69,633.83,71.47,635.18Zm-3.25-29.06,3.88-4.49a.86.86,0,0,0,0-1.31c-.39-.36-.86-.3-1.29.19q-1.55,1.77-3.07,3.56c-.28.33-.79.77-.71,1s.63.64,1,.94A.93.93,0,0,0,68.22,606.12Z"/><path class="cls-2" d="M84.3,766.24,34.71,833c-.35-.24-.66-.43-1-.65q-6.1-4.51-12.21-9.06a5.3,5.3,0,0,1-1.17-7.91l42.82-57.67c2.14-2.88,5.18-3.33,8.06-1.19l12.13,9Zm-43.76,54a8.08,8.08,0,1,0-11.33,1.6A8.08,8.08,0,0,0,40.54,820.29ZM40.36,807a8.08,8.08,0,1,0-1.65-11.33A8,8,0,0,0,40.36,807Zm33.35-31.35a8.08,8.08,0,1,0-11.33,1.6A8.11,8.11,0,0,0,73.71,775.62ZM61,779.22a8.06,8.06,0,1,0,1.66,11.24A8.09,8.09,0,0,0,61,779.22Z"/><path class="cls-2" d="M35.61,833.76,85.19,767c.31.2.58.34.81.52,4.1,3,8.21,6.07,12.29,9.13,2.9,2.17,3.33,5.16,1.19,8L56.66,842.35a5.26,5.26,0,0,1-7.83,1.21C44.45,840.34,40.09,837.08,35.61,833.76Zm21.44-11.34a8.09,8.09,0,1,0,1.61,11.35A8.12,8.12,0,0,0,57.05,822.42ZM80.5,790.67a8.09,8.09,0,1,0-1.58-11.35A8.13,8.13,0,0,0,80.5,790.67Zm-22,29.77a8.07,8.07,0,1,0-1.71-11.32A8.09,8.09,0,0,0,58.5,820.44ZM79.19,792.7A8.07,8.07,0,1,0,80.73,804,8.09,8.09,0,0,0,79.19,792.7Z"/><path class="cls-2" d="M39.89,819.86a7.28,7.28,0,0,1-10.23,1.4A7.36,7.36,0,0,1,28.27,811a7.31,7.31,0,0,1,11.62,8.86ZM34,809q.91,6.39,1.8,12.68a6.41,6.41,0,0,0,4.71-7.31C40,811.07,37,808.67,34,809Zm0,12.89-1.81-12.54c-2.76.47-4.9,3.66-4.55,6.82A6.37,6.37,0,0,0,34,821.88Z"/><path class="cls-2" d="M51.09,804.78a7.31,7.31,0,0,1-11.84-8.57,7.31,7.31,0,1,1,11.84,8.57Zm-6.2-10.73c.63,4.26,1.24,8.47,1.86,12.68,3-.47,5.24-3.61,4.91-7A6.4,6.4,0,0,0,44.89,794.05Zm-1.59.29a6.4,6.4,0,0,0-4.44,7.77c.72,2.92,3.79,5.24,6.28,4.75Z"/><path class="cls-2" d="M62.86,776.58a7.31,7.31,0,1,1,10.22-1.41A7.31,7.31,0,0,1,62.86,776.58Zm6,.44a6.39,6.39,0,0,0,4.82-7.55c-.66-3.24-3.93-5.69-6.67-5.07Zm-3.51-12.4a6.34,6.34,0,0,0-4.43,7.43c.63,3.08,3.64,5.5,6.27,5.11Z"/><path class="cls-2" d="M62.05,790a7.31,7.31,0,1,1-1.49-10.23A7.3,7.3,0,0,1,62.05,790Zm-4.28,1.89a6.38,6.38,0,0,0,4.79-7.64c-.77-3.62-4.48-5.55-6.65-5Zm-3.5-12.4a6.38,6.38,0,0,0-4.41,7.67c.72,3,3.73,5.33,6.26,4.85Z"/><path class="cls-2" d="M56.62,823.08a7.31,7.31,0,1,1-10.23,1.38A7.28,7.28,0,0,1,56.62,823.08Zm-4.69-.61q.91,6.33,1.85,12.65a6.35,6.35,0,0,0,4.85-7.29C58.08,824.52,54.9,822,51.93,822.47Zm-1.74.31c-2.88.64-4.92,3.86-4.43,7.08s3.42,5.71,6.25,5.45Q51.1,829.06,50.19,822.78Z"/><path class="cls-2" d="M81,790.06a7.31,7.31,0,1,1,10.22-1.48A7.27,7.27,0,0,1,81,790.06Zm4.19-12.31L87,790.45a6.45,6.45,0,0,0-1.83-12.7Zm-1.77.34c-3.09.64-5.18,4.2-4.41,7.57.68,3,3.89,5.49,6.2,4.92Z"/><path class="cls-2" d="M59,819.81a7.31,7.31,0,1,1,10.22-1.52A7.27,7.27,0,0,1,59,819.81Zm5.9.38a6.39,6.39,0,0,0,4.88-7.32c-.57-3.33-3.7-5.79-6.69-5.33Zm-1.69.22c-.62-4.24-1.23-8.42-1.83-12.59a6.34,6.34,0,0,0-4.51,6.91A6.4,6.4,0,0,0,63.16,820.41Z"/><path class="cls-2" d="M68.45,794.75A7.3,7.3,0,1,1,69.93,805,7.32,7.32,0,0,1,68.45,794.75Zm7.44,10.6a6.34,6.34,0,0,0,4.84-7.3c-.54-3.33-3.69-5.81-6.67-5.34ZM72.35,793a6.38,6.38,0,0,0-4.46,7.33c.6,3.15,3.58,5.58,6.32,5.19C73.59,801.35,73,797.19,72.35,793Z"/><path class="cls-2" d="M28.89,811.85c.8-.29,1.69-.87,2-.65.79.6.16,1.4-.33,1.9a6,6,0,0,1-1.65.88Z"/><path class="cls-2" d="M40.19,796.82c.62-.2,1.53-.76,1.8-.53.69.56.09,1.3-.33,1.86s-.95,1.3-1.63.83S40,797.72,40.19,796.82Z"/><path class="cls-2" d="M62.38,767.39c.77-.5,1.28-1.43,2.05-.83s.06,1.35-.37,1.89-1,1.35-1.7.74C62.07,769,62.35,768,62.38,767.39Z"/><path class="cls-2" d="M53,783.47c-.81.28-1.66.86-2,.64-.79-.53-.09-1.23.24-1.83,0,0,0-.07.06-.08l1.68-.85Z"/><path class="cls-2" d="M49,826.7c-.81.29-1.74.87-2,.65-.7-.6-.16-1.43.34-1.94a5.88,5.88,0,0,1,1.68-.84Z"/><path class="cls-2" d="M82.06,782.21c-.4.14-1.23.69-1.53.48-.77-.55-.15-1.28.24-1.84s1-1.39,1.69-.9S82.48,781.27,82.06,782.21Z"/><path class="cls-2" d="M60.13,811.74c-.81.29-1.69.87-2,.66-.78-.59-.17-1.41.3-1.91a5.8,5.8,0,0,1,1.68-.87Z"/><path class="cls-2" d="M71.15,796.9c-.81.29-1.69.88-2,.67-.79-.59-.15-1.42.3-1.92a5.45,5.45,0,0,1,1.68-.87Z"/></g></g></svg>