<svg xmlns="http://www.w3.org/2000/svg" viewBox="0 0 118.73 858.88"><defs><style>.cls-1{fill:#43a2dd;}.cls-2{fill:#22627c;}</style></defs><title>sprite1</title><g id="Слой_2" data-name="Слой 2"><g id="Слой_8" data-name="Слой 8"><path class="cls-1" d="M59.36,488a58.51,58.51,0,1,1,58.51-58.51A58.58,58.58,0,0,1,59.36,488Zm0-114.1A55.59,55.59,0,1,0,115,429.44,55.65,55.65,0,0,0,59.36,373.85Z"/><path class="cls-1" d="M59.36,488.8a59.36,59.36,0,1,1,59.37-59.36A59.43,59.43,0,0,1,59.36,488.8Zm0-117A57.66,57.66,0,1,0,117,429.44,57.72,57.72,0,0,0,59.36,371.78Zm0,114.09a56.44,56.44,0,1,1,56.44-56.43A56.49,56.49,0,0,1,59.36,485.87Zm0-111.17a54.74,54.74,0,1,0,54.74,54.74A54.8,54.8,0,0,0,59.36,374.7Z"/><path class="cls-2" d="M90.49,433.55l-3.7.19c-.35-1.55-.61-3-1-4.41a12.14,12.14,0,0,0-6.25-7.74,22.54,22.54,0,0,1-12.3-17c-.06-.41-.1-.83-.12-1.24a7,7,0,0,1,0-.88c.31,0,.58-.08.84-.08h2.6c.64,2.21,1.08,4.35,1.87,6.34a16.1,16.1,0,0,0,7.68,8.65,17.56,17.56,0,0,1,10.15,14.39,3.83,3.83,0,0,0,.2.63Z"/><path class="cls-2" d="M90.49,449.41h-3.8V437.73h3.8Z"/><path class="cls-2" d="M28,449.3V437.77H78.65V449.3Z"/><path class="cls-2" d="M47.43,402.49h3.48A54,54,0,0,0,54,408.66c3.42,5.1,8.35,8.48,13.72,11.2,3.09,1.56,6.31,2.86,9.52,4.15,4.47,1.8,6.69,4.58,7.31,9.59-.62,0-1.24.07-1.85.08s-1.2,0-1.85,0a3.21,3.21,0,0,1-.19-.54,7.24,7.24,0,0,0-5.13-5.66A63.93,63.93,0,0,1,58.83,419c-4.77-3.52-8.8-7.65-10.74-13.43A26.74,26.74,0,0,1,47.43,402.49Z"/><path class="cls-2" d="M84.55,449.35h-3.7V437.8h3.7Z"/><path class="cls-1" d="M59.36,117.87a58.51,58.51,0,1,1,58.51-58.51A58.57,58.57,0,0,1,59.36,117.87Zm0-114.09A55.59,55.59,0,1,0,115,59.36,55.64,55.64,0,0,0,59.36,3.78Z"/><path class="cls-1" d="M59.36,118.72a59.36,59.36,0,1,1,59.37-59.36A59.43,59.43,0,0,1,59.36,118.72Zm0-117A57.66,57.66,0,1,0,117,59.36,57.73,57.73,0,0,0,59.36,1.7Zm0,114.1A56.44,56.44,0,1,1,115.8,59.36,56.5,56.5,0,0,1,59.36,115.8Zm0-111.17A54.74,54.74,0,1,0,114.1,59.36,54.79,54.79,0,0,0,59.36,4.63Z"/><path class="cls-2" d="M40.56,96.2A8.25,8.25,0,0,1,39,95a2.72,2.72,0,0,1-.11-3q3.85-8.79,7.69-17.58,4.65-10.62,9.29-21.24c.1-.23.19-.45.28-.68a8.11,8.11,0,0,1-2-12.77,8,8,0,1,1,9.43,12.74c.09.24.18.49.29.73q8.43,19.27,16.89,38.56c.83,1.87.45,3.89-2,4.39h-.55a3.78,3.78,0,0,1-2.46-2.56c-.72-1.76-1.51-3.48-2.27-5.22l-2-4.55-.76.19c-7.82,2.11-15.63,4.27-23.48,6.28a3.61,3.61,0,0,0-3,2.63,4.31,4.31,0,0,1-2.59,3.23ZM47.32,86l19-5.13v-.14L51.9,75.51ZM63.39,65.43l-3.54-8.08L54.91,68.64Zm5,11.53-3.35-7.65-8.71,3.31Z"/><path class="cls-2" d="M30.46,45.79a26.9,26.9,0,0,1,6-17.27,2.65,2.65,0,0,1,4.53.13,2.69,2.69,0,0,1-.42,3.2,21.51,21.51,0,0,0-1.77,24.51c.54.94,1.24,1.78,1.86,2.67A2.62,2.62,0,0,1,40.88,62a2.51,2.51,0,0,1-2.54,1.34,2.76,2.76,0,0,1-2-1.18,26.23,26.23,0,0,1-5.7-13.71C30.54,47.4,30.51,46.38,30.46,45.79Z"/><path class="cls-2" d="M89.22,47.28c0,4.36-2,9.95-5.89,14.85a2.7,2.7,0,0,1-3.37.93,2.57,2.57,0,0,1-1.39-3,4.36,4.36,0,0,1,.77-1.42,21.5,21.5,0,0,0,.48-25.89,10.9,10.9,0,0,1-1.39-2.43,2.42,2.42,0,0,1,1.21-2.65,2.46,2.46,0,0,1,3,.25,31.29,31.29,0,0,1,3,4.07C88.05,36.11,89.23,40.6,89.22,47.28Z"/><path class="cls-2" d="M41.16,45.14a18.53,18.53,0,0,1,4.15-11.5,2.66,2.66,0,0,1,2.85-1.09,2.51,2.51,0,0,1,2,2.16A2.82,2.82,0,0,1,49.39,37a13.1,13.1,0,0,0-2.78,6.46,13.34,13.34,0,0,0,2.47,9.87,6.55,6.55,0,0,1,1,1.88A2.48,2.48,0,0,1,48.83,58a2.61,2.61,0,0,1-3-.31A14.15,14.15,0,0,1,43,53.37,18.72,18.72,0,0,1,41.16,45.14Z"/><path class="cls-2" d="M78.54,45.69a18.35,18.35,0,0,1-4.17,11.45,2.64,2.64,0,0,1-4.52-.22,2.67,2.67,0,0,1,.43-3.14,13.19,13.19,0,0,0,2.8-6.45,13.33,13.33,0,0,0-2.52-10,6.14,6.14,0,0,1-1-1.83,2.47,2.47,0,0,1,1.22-2.7,2.64,2.64,0,0,1,3,.26,13.85,13.85,0,0,1,3,4.35A18.89,18.89,0,0,1,78.54,45.69Z"/><path class="cls-1" d="M59.36,302.91a58.51,58.51,0,1,1,58.51-58.51A58.58,58.58,0,0,1,59.36,302.91Zm0-114.1A55.59,55.59,0,1,0,115,244.4,55.65,55.65,0,0,0,59.36,188.81Z"/><path class="cls-1" d="M59.36,303.76a59.36,59.36,0,1,1,59.37-59.36A59.43,59.43,0,0,1,59.36,303.76Zm0-117A57.66,57.66,0,1,0,117,244.4,57.73,57.73,0,0,0,59.36,186.74Zm0,114.1A56.44,56.44,0,1,1,115.8,244.4,56.5,56.5,0,0,1,59.36,300.84Zm0-111.18A54.74,54.74,0,1,0,114.1,244.4,54.8,54.8,0,0,0,59.36,189.66Z"/><path class="cls-2" d="M59.83,276.86H32a5.53,5.53,0,0,1-1.73-.05,7.79,7.79,0,0,1-1.63-1.1c.43-.57.75-1.45,1.32-1.67,5.42-2.09,5.88-2.69,5.88-8.5,0-7.38,0-14.77,0-22.15,0-2.14.77-3,2.89-3,7.75,0,15.49,0,23.24,0,2.91,0,3.17.4,3.21,3.32,0,4.27-.64,3.89,4,3.91s9,0,13.46,0c2.43,0,2.93.52,2.94,3,0,6.08,0,12.16,0,18.24,0,3.1.84,4.08,3.69,5.06.73.24,1.24,1.11,1.85,1.7-.73.41-1.45,1.19-2.18,1.19C79.23,276.89,69.53,276.86,59.83,276.86Zm-21.66-3.21a12.81,12.81,0,0,0,1.47.12c4.77,0,9.54,0,14.31,0,1.89,0,2.54-.64,2.52-2.52q-.11-12.57,0-25.15c0-2-.74-2.49-2.57-2.45-4.11.1-8.24.11-12.36,0-1.87-.05-2.53.53-2.5,2.46.1,6.14.13,12.29,0,18.43C39,267.49,38.5,270.38,38.17,273.65Zm38.67-11.24c0-3.17,0-6.35,0-9.52,0-1.46-.57-2.1-2.07-2.06-2.59.07-5.19,0-7.79,0-1.08,0-1.8.22-1.79,1.53,0,5.42-.07,10.83.08,16.24a5.17,5.17,0,0,0,5.19,5.06c1.43.1,2.88,0,4.32.11s2.08-.6,2.06-2.06C76.81,268.62,76.84,265.52,76.84,262.41Z"/><path class="cls-2" d="M60,207.14c1.16,0,2.32,0,3.47,0a8.74,8.74,0,0,1,1,17.45,3.41,3.41,0,0,0-3.07,2.24c-1.59,3.43-4.46,5-8.14,5.17-2.24.09-4.49.08-6.73,0-5.1-.18-8.79-3.56-9.19-8.35-.39-4.5,2.87-8.37,7.94-9.25a3.71,3.71,0,0,0,3.1-2.24,8.19,8.19,0,0,1,8.15-5C57.65,207.16,58.81,207.13,60,207.14Zm0,3.16v-.05H56.28a5.22,5.22,0,0,0-5.13,3.34,6,6,0,0,1-5.42,3.94,5.6,5.6,0,0,0-5.27,5.82,5.8,5.8,0,0,0,5.92,5.47q3.48.15,6.95,0a5.41,5.41,0,0,0,5.18-3.32,6,6,0,0,1,5.78-4.08,5.57,5.57,0,0,0-.2-11.1C62.72,210.21,61.34,210.3,60,210.3Z"/><path class="cls-2" d="M75.82,242.1c-1,0-2,.05-3,0a7.32,7.32,0,0,1-7.1-6.88,7.13,7.13,0,0,1,5.6-7.5A4.44,4.44,0,0,0,75,225c2-4.9,15.84-4.46,18.22-.13,2.53,4.62.49,10.19-4.86,11.34a4,4,0,0,0-3.12,2.21,6.75,6.75,0,0,1-6.18,3.74c-1.08,0-2.17,0-3.26,0Zm0-3.19v0h2.82a4.07,4.07,0,0,0,4-2.43,5.56,5.56,0,0,1,4.82-3.42,4.14,4.14,0,0,0,2.85-6.71c-2.07-2.59-10.82-2.64-12.47.19-1.44,2.47-3.11,3.91-6,4.28a3.75,3.75,0,0,0-3,4.19,4,4,0,0,0,3.72,3.84C73.68,239,74.77,238.91,75.85,238.91Z"/><path class="cls-1" d="M59.36,673a58.51,58.51,0,1,1,58.51-58.51A58.58,58.58,0,0,1,59.36,673Zm0-114.1A55.59,55.59,0,1,0,115,614.48,55.65,55.65,0,0,0,59.36,558.89Z"/><path class="cls-1" d="M59.36,673.84a59.37,59.37,0,1,1,59.37-59.36A59.43,59.43,0,0,1,59.36,673.84Zm0-117A57.66,57.66,0,1,0,117,614.48,57.72,57.72,0,0,0,59.36,556.82Zm0,114.09a56.44,56.44,0,1,1,56.44-56.43A56.49,56.49,0,0,1,59.36,670.91Zm0-111.17a54.74,54.74,0,1,0,54.74,54.74A54.8,54.8,0,0,0,59.36,559.74Z"/><path class="cls-2" d="M44.37,611.11c-.81,2.5-1.69,5-2.41,7.51-.65,2.3-2.13,3.49-4.11,3s-2.92-1.91-2.36-4.43a46.1,46.1,0,0,1,8.91-18.43,11.42,11.42,0,0,1,8.17-4.5,76.75,76.75,0,0,1,12.41,0,12.73,12.73,0,0,1,9.7,6c3.59,5.31,6.61,10.88,7.89,17.25.49,2.49-.4,4.19-2.49,4.67-1.93.44-3.38-.79-4-3.16-.56-2.14-1.29-4.24-2-6.34a8,8,0,0,0-1.27-2.3L74.71,619c-1.23.08-2.08.18-2.93.19q-11.11,0-22.23,0c-1.18,0-2.37-.35-3.53-.25-2.31.22-2.68-.85-2.18-2.77.41-1.57.75-3.15,1.12-4.72Z"/><path class="cls-2" d="M67.93,646.53,69.44,650H59.92c-.26-6.78-.53-13.63-.79-20.47h-.25L58.13,650H48.66l1.18-3c-1.81-5-3.86-10-5.41-15.1-.84-2.79-.87-5.83-1.18-8.77a1.89,1.89,0,0,1,2-2.37c.59,0,1.18-.12,1.77-.12,8.52,0,17.05,0,25.57,0,1.73,0,2.32.47,2.29,2.24-.1,7-2.13,13.57-5,19.88C69.14,644.09,68.44,645.48,67.93,646.53Z"/><path class="cls-2" d="M59.11,578.08a7.08,7.08,0,0,1,7,7.33,7.15,7.15,0,1,1-14.3-.43A7.11,7.11,0,0,1,59.11,578.08Z"/><path class="cls-1" d="M59.36,858a58.52,58.52,0,1,1,58.51-58.51A58.58,58.58,0,0,1,59.36,858Zm0-114.1A55.59,55.59,0,1,0,115,799.52,55.64,55.64,0,0,0,59.36,743.93Z"/><path class="cls-1" d="M59.36,858.88a59.37,59.37,0,1,1,59.37-59.37A59.43,59.43,0,0,1,59.36,858.88Zm0-117A57.67,57.67,0,1,0,117,799.51,57.73,57.73,0,0,0,59.36,741.85Zm0,114.1a56.44,56.44,0,1,1,56.44-56.44A56.5,56.5,0,0,1,59.36,856Zm0-111.17a54.74,54.74,0,1,0,54.74,54.73A54.79,54.79,0,0,0,59.36,744.78Z"/><path class="cls-2" d="M26.08,804.64s0,0,0,.06c-.05,2.17-.11,4.33-.13,6.5,0,.92.07,1.85.09,2.77s0,.82.85.82l41.59,0,8.19,0c6,0,12,0,18,0,.55,0,.75-.14.75-.72,0-2.47,0-4.94,0-7.41,0-.41-.11-.6-.55-.65-1.26-.14-2.52-.32-3.78-.49-.33,0-.49.06-.51.4-.06.74-.16,1.48-.2,2.23a3.39,3.39,0,0,1-3.1,3.4,6.2,6.2,0,0,1-4.08-.93,3.13,3.13,0,0,1-1.6-3.21c.1-.85.15-1.71.26-2.56.05-.41-.08-.55-.46-.58-2-.14-4-.31-6-.45s-4.29-.28-6.43-.42a3.24,3.24,0,0,0-2.23.47,6.47,6.47,0,0,1-3.78,1.06c-1.5,0-3-.13-4.48-.22a.74.74,0,0,0-.82.49c-.49,1.1-1,2.18-1.52,3.26a4.13,4.13,0,0,1-4.45,2.3,4,4,0,0,1-3.4-3.52,13.63,13.63,0,0,1,.08-2.28c-.1,0-.3-.09-.49-.13-1.54-.33-3.07-.67-4.61-1a9.78,9.78,0,0,0-2.38-.35c-2.12.13-4.24.42-6.36.59C31.67,804.32,28.91,805,26.08,804.64Zm28.08-11.9-.86-.36-4.54-1.78c-.42-.17-.77-.41-.56-.92s.62-.44,1-.28c1.93.76,3.87,1.51,5.8,2.28.68.27.79.56.49,1.21-.48,1.07-1,2.14-1.48,3.21l-4.29,9.32a2.69,2.69,0,0,0-.2,1.91A2.83,2.83,0,0,0,52,809.45a2.76,2.76,0,0,0,2.91-1.66c2.47-5.32,5-10.63,7.36-16a2.82,2.82,0,0,0-1.66-4.12l-6-2.21c-1.93-.72-3.85-1.45-5.79-2.14a2.77,2.77,0,0,0-3.55,1.41c-.15.28-.29.56-.43.85-.74,1.63-1.45,3.28-2.22,4.9-.88,1.85-1.82,3.68-2.71,5.53a.94.94,0,0,1-.81.59l-6.69.66c-.71.07-1-.28-.85-1s.39-1.68.62-2.51a.61.61,0,0,0-.29-.78,7,7,0,0,1-3-5c-.08-.6-.08-1.21-.12-1.9a2.35,2.35,0,0,0-.88,1.4c-1,4.14-2.07,8.27-3.07,12.41a2.8,2.8,0,0,0,3.05,3.48c3.78-.36,7.55-.75,11.33-1.11a9.56,9.56,0,0,1,2.56,0c2.26.38,4.51.88,6.76,1.38a.62.62,0,0,0,.84-.44c1.08-2.38,2.19-4.75,3.29-7.13C53.15,795,53.64,793.88,54.16,792.74Zm4.22,10.63,3.29.2a6.32,6.32,0,0,0,4.41-.93,3.79,3.79,0,0,1,2.85-.58l.67.06c4.7.33,9.41.45,14.08,1.11s9.34,1.18,14,1.78a3.05,3.05,0,1,0,.76-6c-1.58-.18-3.15-.39-4.73-.59-4.26-.55-8.51-1.18-12.79-1.61-3.55-.36-7.12-.49-10.68-.71-1-.06-1-.06-1.29-1a6.21,6.21,0,0,0-3.07-3.7A19.79,19.79,0,0,0,64,790.6a15.35,15.35,0,0,1-.56,1.85c-1.1,2.45-2.25,4.89-3.38,7.33Zm-40,16c.17,0,.37,0,.57,0,1.64,0,3.29,0,4.94,0,.52,0,.66-.16.66-.67,0-2.82,0-5.64,0-8.46q0-3.18,0-6.34a1.2,1.2,0,0,0-.15-.69,4.5,4.5,0,0,1-.68-4.3,17.26,17.26,0,0,0,.85-6.18,2.23,2.23,0,0,0-1.76-2.29,6.3,6.3,0,0,0-2.33-.09A2.28,2.28,0,0,0,18.38,793Zm50.53-27.3c.4.77.8,1.45,1.11,2.16a.84.84,0,0,0,.84.58c1.77.1,3.54.22,5.31.3a1.52,1.52,0,0,0,.69-.16l6.21-3c.81-.39,1.24-.1,1.18.78s-.13,1.64-.22,2.45c-.06.45.06.68.56.73,1.58.17,3.15.4,4.73.59.68.08.7,0,.76-.67l.84-9.27a3,3,0,0,0-1.72-3.07,3.33,3.33,0,0,0-3.11.22c-4.16,2-8.34,4.06-12.5,6.08Zm-38.79-5a6,6,0,1,0,12.06,0,6.06,6.06,0,0,0-6.09-6A6,6,0,0,0,30.12,787Zm56.3,23.23c1.49,0,2.33-.56,2.51-1.79.13-.92.17-1.86.27-2.79,0-.34-.11-.47-.43-.51l-5.11-.65c-.34,0-.48.08-.51.41-.08,1-.17,1.9-.25,2.85a1.64,1.64,0,0,0,.71,1.5A4.76,4.76,0,0,0,86.42,810.26Zm10.3-4.06v11.3c0,.49,0,1,0,1.46,0,.14.08.36.19.41a.75.75,0,0,0,1.17-.69q0-5.83,0-11.66v-.64Z"/><path class="cls-2" d="M26.08,804.64c2.83.31,5.59-.32,8.37-.54,2.12-.17,4.24-.46,6.36-.59a9.78,9.78,0,0,1,2.38.35c1.54.31,3.07.65,4.61,1,.19,0,.39.1.49.13a13.63,13.63,0,0,0-.08,2.28,4,4,0,0,0,3.4,3.52,4.13,4.13,0,0,0,4.45-2.3c.53-1.08,1-2.16,1.52-3.26a.74.74,0,0,1,.82-.49c1.49.09,3,.19,4.48.22a6.47,6.47,0,0,0,3.78-1.06,3.24,3.24,0,0,1,2.23-.47c2.14.14,4.29.27,6.43.42s4,.31,6,.45c.38,0,.51.17.46.58-.11.85-.16,1.71-.26,2.56a3.13,3.13,0,0,0,1.6,3.21,6.2,6.2,0,0,0,4.08.93,3.39,3.39,0,0,0,3.1-3.4c0-.75.14-1.49.2-2.23,0-.34.18-.45.51-.4,1.26.17,2.52.35,3.78.49.44.05.55.24.55.65,0,2.47,0,4.94,0,7.41,0,.58-.2.72-.75.72-6,0-12,0-18,0l-8.19,0-41.59,0c-.84,0-.83,0-.85-.82s-.1-1.85-.09-2.77c0-2.17.08-4.33.13-6.5C26,804.67,26.08,804.64,26.08,804.64Z"/><path class="cls-2" d="M54.16,792.74c-.52,1.14-1,2.23-1.51,3.31-1.1,2.38-2.21,4.75-3.29,7.13a.62.62,0,0,1-.84.44c-2.25-.5-4.5-1-6.76-1.38a9.56,9.56,0,0,0-2.56,0c-3.78.36-7.55.75-11.33,1.11a2.8,2.8,0,0,1-3.05-3.48c1-4.14,2-8.27,3.07-12.41a2.35,2.35,0,0,1,.88-1.4c0,.69,0,1.3.12,1.9a7,7,0,0,0,3,5,.61.61,0,0,1,.29.78c-.23.83-.43,1.67-.62,2.51s.14,1.05.85,1l6.69-.66a.94.94,0,0,0,.81-.59c.89-1.85,1.83-3.68,2.71-5.53.77-1.62,1.48-3.27,2.22-4.9.14-.29.28-.57.43-.85a2.77,2.77,0,0,1,3.55-1.41c1.94.69,3.86,1.42,5.79,2.14l6,2.21a2.82,2.82,0,0,1,1.66,4.12c-2.38,5.36-4.89,10.67-7.36,16A2.76,2.76,0,0,1,52,809.45a2.83,2.83,0,0,1-2.42-2.12,2.69,2.69,0,0,1,.2-1.91l4.29-9.32c.5-1.07,1-2.14,1.48-3.21.3-.65.19-.94-.49-1.21-1.93-.77-3.87-1.52-5.8-2.28-.42-.16-.83-.23-1,.28s.14.75.56.92l4.54,1.78Z"/><path class="cls-2" d="M58.38,803.37,60,799.78c1.13-2.44,2.28-4.88,3.38-7.33A15.35,15.35,0,0,0,64,790.6a19.79,19.79,0,0,1,1.92.78,6.21,6.21,0,0,1,3.07,3.7c.3.92.3.92,1.29,1,3.56.22,7.13.35,10.68.71,4.28.43,8.53,1.06,12.79,1.61,1.58.2,3.15.41,4.73.59a3.05,3.05,0,1,1-.76,6c-4.67-.6-9.35-1.13-14-1.78s-9.38-.78-14.08-1.11l-.67-.06a3.79,3.79,0,0,0-2.85.58,6.32,6.32,0,0,1-4.41.93Z"/><path class="cls-2" d="M18.38,819.37V793a2.28,2.28,0,0,1,2.08-2.54,6.3,6.3,0,0,1,2.33.09,2.23,2.23,0,0,1,1.76,2.29A17.26,17.26,0,0,1,23.7,799a4.5,4.5,0,0,0,.68,4.3,1.2,1.2,0,0,1,.15.69q0,3.16,0,6.34c0,2.82,0,5.64,0,8.46,0,.51-.14.68-.66.67-1.65,0-3.3,0-4.94,0C18.75,819.41,18.55,819.38,18.38,819.37Z"/><path class="cls-2" d="M68.91,792.07l4.68-2.28c4.16-2,8.34-4,12.5-6.08a3.33,3.33,0,0,1,3.11-.22,3,3,0,0,1,1.72,3.07l-.84,9.27c-.06.71-.08.75-.76.67-1.58-.19-3.15-.42-4.73-.59-.5,0-.62-.28-.56-.73.09-.81.16-1.63.22-2.45s-.37-1.17-1.18-.78l-6.21,3a1.52,1.52,0,0,1-.69.16c-1.77-.08-3.54-.2-5.31-.3a.84.84,0,0,1-.84-.58C69.71,793.52,69.31,792.84,68.91,792.07Z"/><path class="cls-2" d="M30.12,787a6,6,0,0,1,6-6,6,6,0,1,1,.1,12.06A6,6,0,0,1,30.12,787Z"/><path class="cls-2" d="M86.42,810.26a4.76,4.76,0,0,1-2.81-1,1.64,1.64,0,0,1-.71-1.5c.08-.95.17-1.9.25-2.85,0-.33.17-.46.51-.41l5.11.65c.32,0,.47.17.43.51-.1.93-.14,1.87-.27,2.79C88.75,809.7,87.91,810.27,86.42,810.26Z"/><path class="cls-2" d="M96.72,806.2l1.37.18V807q0,5.82,0,11.66a.75.75,0,0,1-1.17.69c-.11,0-.18-.27-.19-.41,0-.49,0-1,0-1.46V806.2Z"/></g></g></svg>