<svg xmlns="http://www.w3.org/2000/svg" viewBox="0 0 55.96 55.96"><defs><style>.cls-1{fill:none;stroke:#fff;stroke-miterlimit:10;stroke-width:2px;}.cls-2{fill:#fff;}</style></defs><title>Ресуfdgdgfрс 6</title><g id="Слой_2" data-name="Слой 2"><g id="Слой_8" data-name="Слой 8"><circle class="cls-1" cx="27.98" cy="27.98" r="26.98"/><path class="cls-2" d="M43.05,32.84c-.74,1-1.43,2-2.23,3a22.47,22.47,0,0,1-13.12,8,13,13,0,0,1-6.19,0,5.62,5.62,0,0,1-2.71-9.46,11,11,0,0,1,3.49-2.5,19.81,19.81,0,0,1,7.28-2,23.49,23.49,0,0,1,8.92,1.08c1.52.49,3,1.1,4.51,1.66Zm-24.2,6.58c.75-.11,1.36-.26,2-.29a11.5,11.5,0,0,0,5-1.36,9.62,9.62,0,0,1,4-1.06,10.52,10.52,0,0,0,4.46-1.2,10.45,10.45,0,0,1,4.34-1.21,11.19,11.19,0,0,0,1.9-.29c.21,0,.37-.28.55-.42a2.53,2.53,0,0,0-.65-.11c-.66.07-1.31.23-2,.27a10.12,10.12,0,0,0-4.18,1.15,11.08,11.08,0,0,1-4.67,1.27,9.79,9.79,0,0,0-4,1.11,11,11,0,0,1-4.72,1.3,12.07,12.07,0,0,0-1.95.34.43.43,0,0,0-.23.32C18.66,39.33,18.84,39.41,18.85,39.42Zm6.41,3.31c.38-.08.7-.17,1-.22a16.94,16.94,0,0,0,2.87-.38c1.61-.5,3.18-1.18,4.76-1.81.08,0,.12-.2.18-.3-.14-.07-.3-.21-.41-.18a11.38,11.38,0,0,0-1.74.67A11.15,11.15,0,0,1,27,41.87a8.66,8.66,0,0,0-1.73.33c-.09,0-.2.2-.21.32S25.21,42.68,25.26,42.73ZM22.88,33.9c.7-.29,1.41-.53,2.05-.87a10.71,10.71,0,0,1,4.4-1.2,13.21,13.21,0,0,0,2-.32c.13,0,.22-.23.33-.35-.16-.06-.32-.17-.47-.15a12.26,12.26,0,0,1-1.67.25C27,31.2,25,32.55,22.75,33.33a.38.38,0,0,0-.16.3C22.6,33.72,22.75,33.79,22.88,33.9Zm5.34,1c.67-.29,1.31-.52,1.91-.84a9,9,0,0,1,4-1.1,11.21,11.21,0,0,0,1.9-.3c.12,0,.21-.21.31-.33-.15-.06-.31-.2-.45-.18a9.06,9.06,0,0,1-1.51.23c-2.34-.12-4.23,1.18-6.29,1.93a.36.36,0,0,0-.2.29C27.94,34.69,28.09,34.76,28.22,34.88Zm1.3,4.26A23.44,23.44,0,0,0,26,39.6c-1.53.45-3,1.13-4.47,1.73-.09,0-.12.23-.17.35.13,0,.29.16.39.12a12.55,12.55,0,0,0,1.78-.73,9.51,9.51,0,0,1,4.17-1.15,12,12,0,0,0,1.78-.28c.12,0,.2-.22.29-.34ZM33.25,38l3.52-.4a1.67,1.67,0,0,0,.59-.16c.13-.07.2-.25.3-.39a1.56,1.56,0,0,0-.44-.13c-.82.09-1.64.19-2.46.31a14.11,14.11,0,0,0-1.44.29.41.41,0,0,0-.23.32C33.09,37.91,33.26,38,33.25,38Zm-13-1a2.37,2.37,0,0,0,.26-.05c1.22-.51,2.44-1,3.65-1.53a.43.43,0,0,0,.15-.32c0-.06-.16-.15-.26-.16a.65.65,0,0,0-.33,0l-3.54,1.5c-.09,0-.21.23-.19.3S20.16,37,20.22,37Z"/><path class="cls-2" d="M47.36,16c-.38,1-.69,1.92-1.09,2.81a23.58,23.58,0,0,1-8.91,10.57,1.72,1.72,0,0,1-1.49.28,14.82,14.82,0,0,0-1.61-.28,2,2,0,0,1,.36-.2,11,11,0,0,0,4.18-2.46c.43-.39,1-.68,1.41-1,.11-.09.14-.27.21-.4-.16,0-.36-.12-.48-.06a5.74,5.74,0,0,0-1.13.76,13.93,13.93,0,0,1-5,2.93c-1.23.45-2.42.13-3.61.35l-.09-.18c.51-.39,1-.78,1.51-1.19a3.55,3.55,0,0,0,.5-.59,1.75,1.75,0,0,0-.74.15A7.78,7.78,0,0,0,30,28.61a2.38,2.38,0,0,1-1.5.81c-.38,0-.73.3-1.11.39-.17,0-.39-.14-.57-.11a7.18,7.18,0,0,0-1.38.36c-.46.18-.71,0-1-.36a5.85,5.85,0,0,1,0-6.58A14.38,14.38,0,0,1,29,18.76,22.63,22.63,0,0,1,43.25,15.4c1.07.06,2.13.23,3.2.37A7.34,7.34,0,0,1,47.36,16ZM37.09,22.19a8.64,8.64,0,0,0-.91.15c-.27.08-.51.26-.78.31a8.42,8.42,0,0,0-3.82,2,13.07,13.07,0,0,1-3.31,2.15c-.15.06-.24.24-.35.36a4.4,4.4,0,0,0-2.62.91.32.32,0,0,0,0,.3.39.39,0,0,0,.34.07c.68-.28,1.35-.58,2-.9.11,0,.18-.21.26-.32s.51.1.68,0a15.1,15.1,0,0,0,2.61-1.55,12.23,12.23,0,0,1,4.95-2.81,3.51,3.51,0,0,0,1-.66c.15,0,.32.06.42,0a10.36,10.36,0,0,0,1.5-1,10.79,10.79,0,0,1,3.84-2.42c.82-.27,1.61-.63,2.4-1,.14-.06.2-.3.29-.46a1.86,1.86,0,0,0-.58,0c-.7.27-1.37.64-2.08.86A11.63,11.63,0,0,0,39.3,20.3c-.6.47-1.24.9-1.84,1.38A2,2,0,0,0,37.09,22.19ZM35.91,17.5l0-.2a1.3,1.3,0,0,0-.51,0c-.49.19-1,.44-1.45.65a16.65,16.65,0,0,0-2.45,1c-1.27.8-2.46,1.75-3.67,2.64-.09.06-.08.25-.11.38.15,0,.35.09.45,0a11.7,11.7,0,0,0,1.56-1.13,11.19,11.19,0,0,1,4.16-2.36,13.71,13.71,0,0,0,1.72-.74A1.64,1.64,0,0,0,35.91,17.5Zm-.11,8.57a2.12,2.12,0,0,0,.37-.19,14.29,14.29,0,0,0,1.4-1.06,9.28,9.28,0,0,1,3.55-2.07A13.78,13.78,0,0,0,42.94,22c.12-.05.15-.28.23-.43-.17,0-.36-.08-.5,0a12.93,12.93,0,0,1-1.46.61c-2.27.48-3.74,2.22-5.56,3.43a.32.32,0,0,0-.09.29C35.58,25.94,35.71,26,35.8,26.07Zm-2.19-4.55,0-.2a1.29,1.29,0,0,0-.51,0c-.6.22-1.18.52-1.79.71a9.63,9.63,0,0,0-3.18,1.68c-.65.51-1.31,1-1.95,1.55-.11.09-.14.3-.2.45.17,0,.38.07.49,0A13.4,13.4,0,0,0,28,24.52a9.2,9.2,0,0,1,3.57-2,17.18,17.18,0,0,0,1.67-.68A1.57,1.57,0,0,0,33.61,21.52Zm7.17-4.11,0-.18a1.57,1.57,0,0,0-.48,0,6.63,6.63,0,0,0-.6.29c-1,.39-2,.75-3,1.16-.14.06-.18.31-.27.47a1.47,1.47,0,0,0,.51,0c.55-.2,1.09-.44,1.63-.67l1.91-.83A1.89,1.89,0,0,0,40.78,17.41Z"/><path class="cls-2" d="M20.78,30.32l-3.13-.71c-1.48-.34-2.95-.69-4.43-1a.8.8,0,0,1-.68-.57c-.17-.48-.36-.94-.58-1.53l1.6.34c1.84.42,3.68.85,5.53,1.26a1.11,1.11,0,0,1,.88.68C20.18,29.26,20.45,29.71,20.78,30.32Z"/><path class="cls-2" d="M23,20.58c.41.61.76,1.1,1.08,1.61a.46.46,0,0,1,0,.41c-1,1.38-1.07,3.09-1.72,4.6-.39.89-.71,1.81-1.12,2.85-.39-.72-.71-1.31-1-1.91a.47.47,0,0,1,0-.37C21.16,25.42,22.06,23.08,23,20.58Z"/><path class="cls-2" d="M19.83,27.34c-.39-.73-.71-1.32-1-1.93a.56.56,0,0,1,0-.42c.77-2,1.56-4.07,2.34-6.1a2,2,0,0,1,.16-.23c.39.43.77.82,1.11,1.24a.52.52,0,0,1,.07.45C21.64,22.63,20.77,24.91,19.83,27.34Z"/><path class="cls-2" d="M11.3,23.94l2.31.52c1.33.3,2.65.62,4,.9a1.15,1.15,0,0,1,.94.7c.2.48.48.93.78,1.5-.42-.08-.73-.13-1-.2-1.92-.43-3.82-.9-5.75-1.29-.61-.13-.93-.39-1-1C11.5,24.73,11.4,24.39,11.3,23.94Z"/><path class="cls-2" d="M13.24,29.17l3.86.88c1.15.26,2.29.53,3.43.77.45.1.79.26.88.79-.72.48-1.36,1.08-2.45.72-1.36-.44-2.8-.65-4.19-1a1.18,1.18,0,0,1-.63-.42c-.37-.51-.67-1.07-1-1.62Z"/><path class="cls-2" d="M19.49,17.16l.13,0c1.26.82,1.28.84.76,2.22-.59,1.57-1.2,3.14-1.81,4.71-.05.12-.11.23-.22.44-.33-.61-.63-1.15-.91-1.7a.55.55,0,0,1,0-.38C18.13,20.7,18.81,18.94,19.49,17.16Z"/><path class="cls-2" d="M17.85,24.84c-.36-.07-.61-.11-.86-.17-1.77-.4-3.54-.82-5.32-1.21-.38-.08-.55-.24-.56-.63s-.07-.74-.12-1.2l1.18.26c1.4.32,2.8.65,4.21.95a1,1,0,0,1,.75.59C17.34,23.87,17.57,24.3,17.85,24.84Z"/><path class="cls-2" d="M10.93,19.5c1.57.37,3,.7,4.47,1.05a.46.46,0,0,1,.3.23c.26.45.5.92.78,1.46a2.36,2.36,0,0,1-.44,0c-1.46-.33-2.91-.69-4.37-1-.57-.12-.84-.34-.75-.94A4.8,4.8,0,0,0,10.93,19.5Z"/><path class="cls-2" d="M17,22.05c-.33-.62-.6-1.11-.85-1.6a.42.42,0,0,1,0-.33c.53-1.4,1.07-2.79,1.6-4.18A1.23,1.23,0,0,1,18,16c1.11.68,1.1.68.63,1.9S17.59,20.57,17,22.05Z"/><path class="cls-2" d="M16,14.94c.09,0,.12,0,.13,0,1.28.51,1.28.51.78,1.79-.36.93-.71,1.86-1.13,2.94-.33-.61-.6-1.09-.84-1.59a.59.59,0,0,1,0-.43C15.27,16.73,15.62,15.84,16,14.94Z"/><path class="cls-2" d="M11.21,17.47c1,.23,2,.44,3,.72.18,0,.3.36.42.56.2.35.37.7.6,1.16l-2.77-.61L12,19.2C10.88,18.94,10.76,18.7,11.21,17.47Z"/><path class="cls-2" d="M19.37,33c-.47.49-.83.93-1.25,1.31A.81.81,0,0,1,17,34.15c-.72-.63-1.37-1.34-2.05-2L15,32Z"/><path class="cls-2" d="M22,31.33a.92.92,0,0,1-.19-1.14c.38-.88.7-1.78,1-2.69a15.54,15.54,0,0,1,.91,2.2,1.27,1.27,0,0,1-.44,1A5.26,5.26,0,0,1,22,31.33Z"/><path class="cls-2" d="M14,17.55c-.95-.22-1.74-.37-2.51-.6-.13,0-.25-.37-.24-.56.06-1,.07-.93,1-.79C13.44,15.77,13.43,16.77,14,17.55Z"/><path class="cls-2" d="M14.52,17.17a2.26,2.26,0,0,1-.3-3.19l1.29.62Z"/><path class="cls-2" d="M12.37,13.08l1.29.62-.45,1.19-.93-1.7Z"/><path class="cls-2" d="M11.47,14.87l.21-1.41h.12l.9,1.69Z"/></g></g></svg>