<svg xmlns="http://www.w3.org/2000/svg" viewBox="0 0 55.96 55.96"><defs><style>.cls-1{fill:none;stroke:#fff;stroke-miterlimit:10;stroke-width:2px;}.cls-2{fill:#fff;}</style></defs><title>Ресурсfff5</title><g id="Слой_2" data-name="Слой 2"><g id="Слой_8" data-name="Слой 8"><circle class="cls-1" cx="27.98" cy="27.98" r="26.98"/><path class="cls-2" d="M27.31,26.06c-.65-.66-1.29-1.32-1.94-2l-5.5-5.5a2.32,2.32,0,0,1-.74-1.89A1.84,1.84,0,0,1,20,15.29,14.2,14.2,0,0,1,25,13.2a2,2,0,0,1,2.34,1.72,3.55,3.55,0,0,1,.06.64V25.78c0,.07,0,.15,0,.22Z"/><path class="cls-2" d="M30.05,28.75H40.66a2.39,2.39,0,0,1,1.55.49,1.81,1.81,0,0,1,.73,2,24.92,24.92,0,0,1-.88,2.65,20.89,20.89,0,0,1-1,2.07,2.1,2.1,0,0,1-3.44.39l-5.14-5.14-2.13-2.13Z"/><path class="cls-2" d="M26.28,28.76l-.39.41-5.26,5.26-2,2a2.08,2.08,0,0,1-3.26-.34,14.62,14.62,0,0,1-2-4.74A2,2,0,0,1,15,28.82a2.78,2.78,0,0,1,.57-.07h10.7Z"/><path class="cls-2" d="M26.2,27.19l-.27,0H15.58a2.24,2.24,0,0,1-1.45-.48,1.91,1.91,0,0,1-.69-2.14c.24-.82.51-1.65.83-2.44a21.65,21.65,0,0,1,1-2.05,2.11,2.11,0,0,1,3.49-.42c1.34,1.37,2.71,2.71,4.07,4.07,1,1,2.07,2.07,3.11,3.11.09.09.21.16.31.25Z"/><path class="cls-2" d="M27.37,30c0,1.24,0,2.48,0,3.71,0,.88,0,1.76,0,2.63,0,.61,0,1.22,0,1.83,0,.93,0,1.87-.06,2.8a2,2,0,0,1-2.57,1.79,14.86,14.86,0,0,1-4.62-1.91,2,2,0,0,1-.41-3.25c.72-.74,1.47-1.47,2.19-2.2q2.58-2.59,5.13-5.19a1.61,1.61,0,0,0,.21-.3Z"/><path class="cls-2" d="M29.05,29.91c.38.39.75.79,1.14,1.18l6.26,6.26a2.26,2.26,0,0,1,.73,2.14,1.79,1.79,0,0,1-.78,1.18,14.21,14.21,0,0,1-5,2.09,2,2,0,0,1-2.41-2c0-1.55,0-3.09,0-4.63s0-3.11,0-4.66V30Z"/><path class="cls-2" d="M29,26v-.29q0-5.09,0-10.15a2.71,2.71,0,0,1,.29-1.34,2,2,0,0,1,2.24-1,16.22,16.22,0,0,1,4.67,1.9,2.1,2.1,0,0,1,.39,3.39c-.76.77-1.55,1.51-2.31,2.28s-1.54,1.57-2.32,2.36L29,26Z"/><path class="cls-2" d="M30.1,27.17l3.23-3.24,1.35-1.36c1-1,2-1.93,2.91-2.91a2.13,2.13,0,0,1,3.49.41,16.94,16.94,0,0,1,1.85,4.54,2.06,2.06,0,0,1-2,2.58c-3.56,0-7.13,0-10.69,0Z"/></g></g></svg>