<svg xmlns="http://www.w3.org/2000/svg" viewBox="0 0 332.67 332.67"><defs><style>.cls-1{fill:#86d465;}.cls-2{fill:#e5eaeb;}</style></defs><title>yep_1</title><g id="Слой_2" data-name="Слой 2"><g id="Слой_8" data-name="Слой 8"><path class="cls-1" d="M241.47,126.16c.58,6.1-2,10.52-5.85,14.38q-35.7,35.76-71.44,71.5c-8.69,8.64-18.3,8.7-27.05.13Q116.55,192,96.4,171.38c-7.5-7.63-7.62-18.55-.65-25.44s17.1-6.87,24.83.47q12.22,11.6,23.8,23.84c4.46,4.73,7.89,4.6,12.41,0q27-27.53,54.46-54.61c8.92-8.84,22.46-7.6,28.17,2.34C240.93,120.61,241.87,123.44,241.47,126.16Z"/><path class="cls-2" d="M166.33,0A166.34,166.34,0,1,0,332.67,166.33,166.33,166.33,0,0,0,166.33,0Zm0,298A131.67,131.67,0,1,1,298,166.33,131.67,131.67,0,0,1,166.33,298Z"/></g></g></svg>